<svg xmlns="http://www.w3.org/2000/svg" xmlns:xlink="http://www.w3.org/1999/xlink" width="800" zoomAndPan="magnify" viewBox="0 0 600 449.999984" height="600" preserveAspectRatio="xMidYMid meet" version="1.0"><defs><clipPath id="3a0c94c8c6"><path d="M 18.75 231 L 581.25 231 L 581.25 450 L 18.75 450 Z M 18.75 231 " clip-rule="nonzero"/></clipPath><clipPath id="741be3ca50"><path d="M 233.011719 86.019531 L 237.511719 86.019531 L 237.511719 90.519531 L 233.011719 90.519531 Z M 233.011719 86.019531 " clip-rule="nonzero"/></clipPath></defs><path fill="#2d4542" d="M 147.699219 208.925781 C 145.878906 208.925781 144.058594 208.835938 142.246094 208.660156 C 140.433594 208.480469 138.636719 208.214844 136.851562 207.859375 C 135.0625 207.503906 133.300781 207.0625 131.554688 206.535156 C 129.8125 206.007812 128.101562 205.394531 126.417969 204.695312 C 124.734375 204 123.089844 203.222656 121.484375 202.367188 C 119.878906 201.507812 118.316406 200.574219 116.804688 199.5625 C 115.289062 198.550781 113.828125 197.464844 112.421875 196.3125 C 111.011719 195.15625 109.664062 193.933594 108.375 192.648438 C 107.089844 191.359375 105.867188 190.011719 104.710938 188.605469 C 103.554688 187.199219 102.472656 185.738281 101.457031 184.222656 C 100.445312 182.710938 99.511719 181.148438 98.652344 179.542969 C 97.792969 177.9375 97.015625 176.292969 96.320312 174.609375 C 95.621094 172.929688 95.007812 171.214844 94.480469 169.472656 C 93.949219 167.730469 93.507812 165.964844 93.152344 164.179688 C 92.796875 162.394531 92.53125 160.59375 92.351562 158.78125 C 92.171875 156.96875 92.082031 155.152344 92.082031 153.332031 C 92.082031 151.511719 92.171875 149.695312 92.347656 147.882812 C 92.527344 146.070312 92.792969 144.269531 93.148438 142.484375 C 93.503906 140.699219 93.945312 138.933594 94.472656 137.191406 C 95 135.449219 95.613281 133.734375 96.308594 132.050781 C 97.007812 130.371094 97.785156 128.726562 98.640625 127.117188 C 99.5 125.511719 100.433594 123.953125 101.445312 122.4375 C 102.457031 120.921875 103.539062 119.460938 104.695312 118.054688 C 105.851562 116.644531 107.070312 115.296875 108.359375 114.007812 C 109.648438 112.722656 110.996094 111.5 112.402344 110.34375 C 113.808594 109.1875 115.269531 108.105469 116.785156 107.09375 C 118.296875 106.082031 119.859375 105.144531 121.464844 104.285156 C 123.070312 103.425781 124.714844 102.648438 126.394531 101.953125 C 128.078125 101.253906 129.792969 100.640625 131.535156 100.113281 C 133.277344 99.582031 135.039062 99.140625 136.828125 98.785156 C 138.613281 98.429688 140.414062 98.160156 142.222656 97.984375 C 144.035156 97.804688 145.855469 97.714844 147.675781 97.714844 C 149.496094 97.714844 151.3125 97.800781 153.125 97.980469 C 154.9375 98.160156 156.738281 98.425781 158.523438 98.78125 C 160.308594 99.136719 162.074219 99.578125 163.816406 100.105469 C 165.558594 100.632812 167.273438 101.246094 168.957031 101.941406 C 170.636719 102.636719 172.28125 103.414062 173.886719 104.273438 C 175.496094 105.132812 177.054688 106.066406 178.570312 107.078125 C 180.085938 108.089844 181.546875 109.171875 182.953125 110.328125 C 184.363281 111.484375 185.710938 112.703125 186.996094 113.992188 C 188.285156 115.277344 189.507812 116.625 190.664062 118.035156 C 191.820312 119.441406 192.902344 120.902344 193.914062 122.417969 C 194.925781 123.929688 195.863281 125.492188 196.722656 127.097656 C 197.578125 128.703125 198.359375 130.347656 199.054688 132.027344 C 199.753906 133.710938 200.367188 135.425781 200.894531 137.167969 C 201.425781 138.910156 201.867188 140.671875 202.222656 142.460938 C 202.578125 144.246094 202.84375 146.046875 203.023438 147.855469 C 203.203125 149.667969 203.292969 151.488281 203.292969 153.308594 C 203.292969 155.128906 203.203125 156.945312 203.027344 158.757812 C 202.847656 160.570312 202.582031 162.371094 202.226562 164.15625 C 201.871094 165.941406 201.429688 167.707031 200.902344 169.449219 C 200.375 171.191406 199.761719 172.90625 199.0625 174.585938 C 198.367188 176.269531 197.589844 177.914062 196.730469 179.519531 C 195.875 181.128906 194.9375 182.6875 193.929688 184.203125 C 192.917969 185.71875 191.832031 187.179688 190.679688 188.585938 C 189.523438 189.992188 188.300781 191.34375 187.015625 192.628906 C 185.726562 193.917969 184.378906 195.140625 182.972656 196.296875 C 181.5625 197.453125 180.101562 198.535156 178.589844 199.546875 C 177.074219 200.558594 175.515625 201.496094 173.910156 202.355469 C 172.304688 203.210938 170.660156 203.992188 168.976562 204.6875 C 167.292969 205.386719 165.582031 206 163.839844 206.527344 C 162.097656 207.054688 160.332031 207.5 158.546875 207.855469 C 156.761719 208.210938 154.960938 208.476562 153.148438 208.65625 C 151.335938 208.835938 149.519531 208.925781 147.699219 208.925781 Z M 147.699219 106.023438 C 146.480469 106.023438 145.261719 106.070312 144.046875 106.164062 C 142.828125 106.257812 141.617188 106.398438 140.414062 106.582031 C 139.207031 106.769531 138.011719 107.003906 136.824219 107.285156 C 135.636719 107.5625 134.464844 107.886719 133.300781 108.257812 C 132.140625 108.628906 130.992188 109.042969 129.863281 109.503906 C 128.734375 109.960938 127.625 110.464844 126.53125 111.007812 C 125.441406 111.554688 124.375 112.140625 123.328125 112.769531 C 122.28125 113.394531 121.261719 114.0625 120.269531 114.769531 C 119.273438 115.476562 118.308594 116.21875 117.371094 117 C 116.4375 117.78125 115.53125 118.597656 114.65625 119.449219 C 113.785156 120.300781 112.945312 121.183594 112.140625 122.101562 C 111.335938 123.015625 110.566406 123.960938 109.835938 124.9375 C 109.101562 125.914062 108.410156 126.914062 107.753906 127.945312 C 107.101562 128.972656 106.488281 130.027344 105.914062 131.105469 C 105.339844 132.179688 104.808594 133.277344 104.320312 134.394531 C 103.832031 135.511719 103.390625 136.648438 102.988281 137.800781 C 102.589844 138.953125 102.234375 140.117188 101.921875 141.296875 C 101.613281 142.476562 101.347656 143.664062 101.128906 144.867188 C 100.914062 146.066406 100.742188 147.273438 100.617188 148.484375 C 100.492188 149.699219 100.414062 150.914062 100.382812 152.132812 C 100.351562 153.351562 100.367188 154.570312 100.433594 155.789062 C 100.496094 157.007812 100.605469 158.21875 100.761719 159.429688 C 100.921875 160.640625 101.125 161.839844 101.375 163.035156 C 101.625 164.226562 101.921875 165.410156 102.261719 166.582031 C 102.605469 167.75 102.988281 168.90625 103.421875 170.046875 C 103.851562 171.1875 104.328125 172.3125 104.84375 173.414062 C 105.363281 174.519531 105.921875 175.601562 106.523438 176.664062 C 107.125 177.722656 107.765625 178.761719 108.449219 179.769531 C 109.128906 180.78125 109.851562 181.765625 110.609375 182.722656 C 111.367188 183.675781 112.160156 184.601562 112.988281 185.496094 C 113.816406 186.390625 114.679688 187.25 115.578125 188.078125 C 116.472656 188.90625 117.398438 189.699219 118.355469 190.453125 C 120.425781 192.097656 122.621094 193.558594 124.9375 194.835938 C 127.253906 196.109375 129.660156 197.179688 132.160156 198.046875 C 134.65625 198.914062 137.210938 199.566406 139.820312 200 C 142.425781 200.433594 145.054688 200.648438 147.699219 200.636719 C 149.246094 200.636719 150.792969 200.558594 152.332031 200.40625 C 153.875 200.253906 155.40625 200.023438 156.925781 199.71875 C 158.441406 199.417969 159.941406 199.039062 161.425781 198.589844 C 162.90625 198.136719 164.363281 197.617188 165.792969 197.023438 C 167.226562 196.429688 168.621094 195.765625 169.988281 195.035156 C 171.355469 194.304688 172.679688 193.511719 173.96875 192.648438 C 175.257812 191.789062 176.5 190.867188 177.695312 189.882812 C 178.894531 188.902344 180.039062 187.863281 181.132812 186.765625 C 182.230469 185.671875 183.269531 184.523438 184.25 183.328125 C 185.234375 182.128906 186.15625 180.886719 187.015625 179.601562 C 187.878906 178.3125 188.671875 176.984375 189.40625 175.621094 C 190.136719 174.253906 190.796875 172.855469 191.390625 171.425781 C 191.984375 169.996094 192.507812 168.539062 192.957031 167.058594 C 193.40625 165.574219 193.785156 164.074219 194.089844 162.554688 C 194.390625 161.035156 194.621094 159.507812 194.773438 157.964844 C 194.925781 156.425781 195.003906 154.878906 195.007812 153.332031 C 195.003906 151.78125 194.929688 150.234375 194.773438 148.695312 C 194.621094 147.152344 194.394531 145.621094 194.089844 144.105469 C 193.789062 142.585938 193.410156 141.085938 192.960938 139.601562 C 192.511719 138.121094 191.988281 136.664062 191.394531 135.234375 C 190.800781 133.800781 190.140625 132.402344 189.410156 131.039062 C 188.679688 129.671875 187.882812 128.34375 187.023438 127.058594 C 186.160156 125.769531 185.238281 124.527344 184.257812 123.328125 C 183.273438 122.132812 182.234375 120.984375 181.140625 119.890625 C 180.042969 118.796875 178.898438 117.757812 177.699219 116.773438 C 176.503906 115.789062 175.261719 114.867188 173.972656 114.007812 C 172.683594 113.148438 171.355469 112.351562 169.992188 111.621094 C 168.625 110.890625 167.226562 110.230469 165.796875 109.636719 C 164.367188 109.042969 162.910156 108.519531 161.425781 108.070312 C 159.945312 107.621094 158.445312 107.242188 156.925781 106.941406 C 155.40625 106.636719 153.875 106.410156 152.335938 106.257812 C 150.792969 106.105469 149.246094 106.027344 147.699219 106.027344 Z M 147.699219 106.023438 " fill-opacity="1" fill-rule="nonzero"/><path fill="#2d4542" d="M 147.6875 190.839844 C 146.875 190.839844 146.066406 190.757812 145.269531 190.597656 C 144.472656 190.441406 143.699219 190.203125 142.945312 189.890625 C 142.195312 189.582031 141.480469 189.199219 140.804688 188.746094 C 140.128906 188.292969 139.503906 187.78125 138.929688 187.207031 C 138.351562 186.628906 137.839844 186.003906 137.386719 185.328125 C 136.933594 184.652344 136.554688 183.9375 136.242188 183.1875 C 135.929688 182.4375 135.695312 181.660156 135.535156 180.863281 C 135.375 180.066406 135.296875 179.261719 135.292969 178.445312 L 135.292969 165.714844 L 122.5625 165.714844 C 121.753906 165.710938 120.949219 165.625 120.15625 165.460938 C 119.363281 165.300781 118.59375 165.0625 117.84375 164.75 C 117.097656 164.433594 116.390625 164.050781 115.71875 163.597656 C 115.046875 163.144531 114.421875 162.632812 113.851562 162.058594 C 113.28125 161.480469 112.769531 160.855469 112.324219 160.183594 C 111.875 159.507812 111.496094 158.796875 111.1875 158.046875 C 110.878906 157.296875 110.644531 156.523438 110.488281 155.730469 C 110.328125 154.933594 110.25 154.132812 110.25 153.324219 C 110.25 152.511719 110.328125 151.710938 110.488281 150.914062 C 110.644531 150.121094 110.878906 149.347656 111.1875 148.597656 C 111.496094 147.847656 111.875 147.136719 112.324219 146.460938 C 112.769531 145.789062 113.28125 145.164062 113.851562 144.589844 C 114.421875 144.011719 115.046875 143.5 115.71875 143.046875 C 116.390625 142.59375 117.097656 142.210938 117.84375 141.894531 C 118.59375 141.582031 119.363281 141.34375 120.15625 141.183594 C 120.949219 141.019531 121.753906 140.933594 122.5625 140.929688 L 135.296875 140.929688 L 135.296875 128.222656 C 135.289062 127.40625 135.363281 126.597656 135.519531 125.796875 C 135.675781 124.992188 135.90625 124.214844 136.214844 123.457031 C 136.523438 122.699219 136.902344 121.980469 137.355469 121.300781 C 137.804688 120.617188 138.320312 119.988281 138.894531 119.40625 C 139.472656 118.828125 140.097656 118.308594 140.777344 117.855469 C 141.457031 117.398438 142.171875 117.011719 142.925781 116.699219 C 143.679688 116.386719 144.457031 116.148438 145.261719 115.988281 C 146.0625 115.828125 146.871094 115.75 147.6875 115.75 C 148.503906 115.75 149.316406 115.828125 150.117188 115.988281 C 150.917969 116.148438 151.695312 116.386719 152.449219 116.699219 C 153.203125 117.011719 153.921875 117.398438 154.597656 117.855469 C 155.277344 118.308594 155.90625 118.828125 156.480469 119.40625 C 157.054688 119.988281 157.570312 120.617188 158.019531 121.300781 C 158.472656 121.980469 158.851562 122.699219 159.160156 123.457031 C 159.46875 124.214844 159.703125 124.992188 159.855469 125.796875 C 160.011719 126.597656 160.085938 127.40625 160.082031 128.222656 L 160.082031 140.929688 L 172.8125 140.929688 C 173.625 140.933594 174.425781 141.019531 175.21875 141.183594 C 176.011719 141.34375 176.785156 141.582031 177.53125 141.894531 C 178.277344 142.210938 178.988281 142.59375 179.660156 143.046875 C 180.332031 143.5 180.953125 144.011719 181.523438 144.589844 C 182.09375 145.164062 182.605469 145.789062 183.054688 146.460938 C 183.5 147.136719 183.878906 147.847656 184.1875 148.597656 C 184.5 149.347656 184.730469 150.121094 184.890625 150.914062 C 185.046875 151.710938 185.125 152.511719 185.125 153.324219 C 185.125 154.132812 185.046875 154.933594 184.890625 155.730469 C 184.730469 156.523438 184.5 157.296875 184.1875 158.046875 C 183.878906 158.796875 183.5 159.507812 183.054688 160.183594 C 182.605469 160.855469 182.09375 161.480469 181.523438 162.058594 C 180.953125 162.632812 180.332031 163.144531 179.660156 163.597656 C 178.988281 164.050781 178.277344 164.433594 177.53125 164.75 C 176.785156 165.0625 176.011719 165.300781 175.21875 165.460938 C 174.425781 165.625 173.625 165.710938 172.8125 165.714844 L 160.078125 165.714844 L 160.078125 178.445312 C 160.078125 179.261719 160 180.066406 159.839844 180.863281 C 159.679688 181.660156 159.445312 182.4375 159.132812 183.1875 C 158.820312 183.9375 158.4375 184.652344 157.988281 185.328125 C 157.535156 186.003906 157.019531 186.628906 156.445312 187.207031 C 155.871094 187.78125 155.246094 188.292969 154.570312 188.746094 C 153.894531 189.199219 153.179688 189.582031 152.425781 189.890625 C 151.675781 190.203125 150.902344 190.441406 150.105469 190.597656 C 149.304688 190.757812 148.5 190.839844 147.6875 190.839844 Z M 122.5625 149.214844 C 122.296875 149.21875 122.03125 149.25 121.769531 149.304688 C 121.507812 149.359375 121.253906 149.4375 121.007812 149.542969 C 120.761719 149.648438 120.527344 149.773438 120.304688 149.925781 C 120.082031 150.074219 119.878906 150.246094 119.691406 150.4375 C 119.503906 150.625 119.335938 150.832031 119.1875 151.054688 C 119.039062 151.277344 118.914062 151.515625 118.8125 151.761719 C 118.710938 152.007812 118.636719 152.265625 118.582031 152.527344 C 118.53125 152.789062 118.503906 153.054688 118.503906 153.324219 C 118.503906 153.589844 118.53125 153.855469 118.582031 154.117188 C 118.636719 154.378906 118.710938 154.636719 118.8125 154.882812 C 118.914062 155.128906 119.039062 155.367188 119.1875 155.589844 C 119.335938 155.8125 119.503906 156.019531 119.691406 156.207031 C 119.878906 156.398438 120.082031 156.570312 120.304688 156.71875 C 120.527344 156.871094 120.761719 156.996094 121.007812 157.101562 C 121.253906 157.207031 121.507812 157.285156 121.769531 157.339844 C 122.03125 157.394531 122.296875 157.425781 122.5625 157.429688 L 139.4375 157.429688 C 139.710938 157.429688 139.980469 157.453125 140.246094 157.507812 C 140.515625 157.5625 140.773438 157.640625 141.023438 157.742188 C 141.277344 157.847656 141.515625 157.976562 141.742188 158.125 C 141.96875 158.277344 142.175781 158.449219 142.367188 158.640625 C 142.5625 158.835938 142.734375 159.042969 142.882812 159.269531 C 143.035156 159.496094 143.164062 159.734375 143.265625 159.984375 C 143.371094 160.238281 143.449219 160.496094 143.503906 160.761719 C 143.554688 161.03125 143.582031 161.300781 143.582031 161.570312 L 143.582031 178.445312 C 143.578125 178.71875 143.601562 178.988281 143.652344 179.253906 C 143.703125 179.523438 143.777344 179.78125 143.878906 180.035156 C 143.984375 180.285156 144.109375 180.523438 144.257812 180.75 C 144.40625 180.976562 144.578125 181.1875 144.769531 181.382812 C 144.957031 181.574219 145.167969 181.746094 145.390625 181.898438 C 145.617188 182.050781 145.855469 182.179688 146.105469 182.285156 C 146.355469 182.390625 146.613281 182.46875 146.882812 182.519531 C 147.148438 182.574219 147.417969 182.601562 147.6875 182.601562 C 147.960938 182.601562 148.230469 182.574219 148.496094 182.519531 C 148.761719 182.46875 149.019531 182.390625 149.269531 182.285156 C 149.519531 182.179688 149.757812 182.050781 149.984375 181.898438 C 150.210938 181.746094 150.417969 181.574219 150.609375 181.382812 C 150.800781 181.1875 150.96875 180.976562 151.117188 180.75 C 151.269531 180.523438 151.394531 180.285156 151.496094 180.03125 C 151.597656 179.78125 151.671875 179.523438 151.722656 179.253906 C 151.773438 178.988281 151.796875 178.71875 151.792969 178.445312 L 151.792969 161.570312 C 151.792969 161.300781 151.820312 161.03125 151.875 160.761719 C 151.925781 160.496094 152.003906 160.238281 152.109375 159.984375 C 152.214844 159.734375 152.339844 159.496094 152.492188 159.269531 C 152.644531 159.042969 152.816406 158.835938 153.007812 158.640625 C 153.199219 158.449219 153.410156 158.277344 153.636719 158.125 C 153.863281 157.976562 154.101562 157.847656 154.351562 157.742188 C 154.601562 157.640625 154.863281 157.5625 155.128906 157.507812 C 155.394531 157.453125 155.664062 157.429688 155.9375 157.429688 L 172.8125 157.429688 C 173.082031 157.425781 173.34375 157.394531 173.605469 157.339844 C 173.867188 157.285156 174.125 157.207031 174.371094 157.101562 C 174.617188 156.996094 174.847656 156.871094 175.070312 156.71875 C 175.292969 156.570312 175.496094 156.398438 175.683594 156.207031 C 175.875 156.019531 176.042969 155.8125 176.1875 155.589844 C 176.335938 155.367188 176.460938 155.128906 176.5625 154.882812 C 176.664062 154.636719 176.742188 154.378906 176.792969 154.117188 C 176.84375 153.855469 176.871094 153.589844 176.871094 153.324219 C 176.871094 153.054688 176.84375 152.789062 176.792969 152.527344 C 176.742188 152.265625 176.664062 152.007812 176.5625 151.761719 C 176.460938 151.515625 176.335938 151.277344 176.1875 151.054688 C 176.042969 150.832031 175.875 150.625 175.683594 150.4375 C 175.496094 150.246094 175.292969 150.074219 175.070312 149.925781 C 174.847656 149.773438 174.617188 149.648438 174.371094 149.542969 C 174.125 149.4375 173.867188 149.359375 173.605469 149.304688 C 173.34375 149.25 173.082031 149.21875 172.8125 149.214844 L 155.9375 149.214844 C 155.664062 149.214844 155.394531 149.191406 155.128906 149.136719 C 154.863281 149.082031 154.601562 149.003906 154.351562 148.902344 C 154.101562 148.796875 153.859375 148.667969 153.632812 148.519531 C 153.410156 148.367188 153.199219 148.195312 153.007812 148.003906 C 152.816406 147.8125 152.644531 147.601562 152.492188 147.375 C 152.339844 147.148438 152.210938 146.910156 152.109375 146.660156 C 152.003906 146.40625 151.925781 146.148438 151.871094 145.882812 C 151.820312 145.613281 151.792969 145.34375 151.792969 145.074219 L 151.792969 128.222656 C 151.796875 127.953125 151.773438 127.683594 151.722656 127.417969 C 151.671875 127.148438 151.597656 126.890625 151.496094 126.636719 C 151.394531 126.386719 151.265625 126.148438 151.117188 125.921875 C 150.96875 125.691406 150.800781 125.484375 150.609375 125.289062 C 150.417969 125.097656 150.207031 124.925781 149.984375 124.773438 C 149.757812 124.621094 149.519531 124.492188 149.269531 124.386719 C 149.019531 124.28125 148.761719 124.203125 148.496094 124.152344 C 148.226562 124.097656 147.960938 124.070312 147.6875 124.070312 C 147.414062 124.070312 147.148438 124.097656 146.878906 124.152344 C 146.613281 124.203125 146.355469 124.28125 146.105469 124.386719 C 145.855469 124.492188 145.617188 124.621094 145.390625 124.773438 C 145.167969 124.925781 144.957031 125.097656 144.765625 125.289062 C 144.574219 125.484375 144.40625 125.691406 144.257812 125.921875 C 144.109375 126.148438 143.980469 126.386719 143.878906 126.636719 C 143.777344 126.890625 143.703125 127.148438 143.652344 127.417969 C 143.601562 127.683594 143.578125 127.953125 143.582031 128.222656 L 143.582031 145.074219 C 143.582031 145.34375 143.554688 145.613281 143.503906 145.882812 C 143.449219 146.148438 143.371094 146.40625 143.265625 146.660156 C 143.160156 146.910156 143.035156 147.148438 142.882812 147.375 C 142.730469 147.601562 142.558594 147.8125 142.367188 148.003906 C 142.175781 148.195312 141.964844 148.367188 141.742188 148.519531 C 141.515625 148.667969 141.273438 148.796875 141.023438 148.902344 C 140.773438 149.003906 140.511719 149.082031 140.246094 149.136719 C 139.980469 149.191406 139.710938 149.214844 139.4375 149.214844 Z M 122.5625 149.214844 " fill-opacity="1" fill-rule="nonzero"/><path fill="#2d4542" d="M 457.628906 168.410156 C 455.804688 168.410156 453.988281 168.320312 452.175781 168.140625 C 450.363281 167.960938 448.566406 167.691406 446.777344 167.335938 C 444.992188 166.980469 443.226562 166.539062 441.484375 166.007812 C 439.742188 165.480469 438.03125 164.867188 436.347656 164.167969 C 434.664062 163.472656 433.019531 162.695312 431.414062 161.835938 C 429.808594 160.976562 428.25 160.039062 426.734375 159.027344 C 425.222656 158.015625 423.761719 156.933594 422.351562 155.777344 C 420.945312 154.621094 419.597656 153.398438 418.308594 152.113281 C 417.019531 150.824219 415.800781 149.476562 414.644531 148.070312 C 413.488281 146.660156 412.40625 145.199219 411.390625 143.6875 C 410.378906 142.171875 409.445312 140.613281 408.585938 139.003906 C 407.726562 137.398438 406.949219 135.753906 406.25 134.074219 C 405.554688 132.390625 404.941406 130.679688 404.410156 128.933594 C 403.882812 127.191406 403.441406 125.429688 403.082031 123.640625 C 402.726562 121.855469 402.460938 120.058594 402.28125 118.246094 C 402.101562 116.433594 402.011719 114.613281 402.011719 112.792969 C 402.011719 110.972656 402.101562 109.15625 402.277344 107.34375 C 402.457031 105.53125 402.726562 103.734375 403.082031 101.945312 C 403.4375 100.160156 403.878906 98.398438 404.40625 96.65625 C 404.9375 94.910156 405.550781 93.199219 406.246094 91.515625 C 406.945312 89.835938 407.722656 88.191406 408.582031 86.585938 C 409.4375 84.980469 410.375 83.417969 411.386719 81.90625 C 412.398438 80.390625 413.480469 78.929688 414.636719 77.523438 C 415.792969 76.117188 417.015625 74.769531 418.300781 73.480469 C 419.589844 72.195312 420.9375 70.972656 422.34375 69.816406 C 423.753906 68.664062 425.214844 67.578125 426.726562 66.566406 C 428.242188 65.554688 429.804688 64.621094 431.410156 63.761719 C 433.015625 62.90625 434.660156 62.128906 436.339844 61.429688 C 438.023438 60.734375 439.738281 60.121094 441.480469 59.59375 C 443.222656 59.066406 444.984375 58.621094 446.773438 58.269531 C 448.558594 57.914062 450.355469 57.644531 452.167969 57.46875 C 453.980469 57.289062 455.796875 57.199219 457.621094 57.199219 C 459.441406 57.199219 461.257812 57.289062 463.070312 57.46875 C 464.882812 57.648438 466.679688 57.914062 468.464844 58.269531 C 470.253906 58.625 472.015625 59.066406 473.757812 59.59375 C 475.5 60.125 477.214844 60.738281 478.898438 61.433594 C 480.578125 62.128906 482.222656 62.90625 483.828125 63.765625 C 485.433594 64.625 486.996094 65.558594 488.507812 66.570312 C 490.023438 67.582031 491.484375 68.667969 492.890625 69.824219 C 494.300781 70.976562 495.648438 72.199219 496.933594 73.488281 C 498.222656 74.773438 499.445312 76.121094 500.597656 77.53125 C 501.753906 78.9375 502.835938 80.398438 503.847656 81.910156 C 504.859375 83.425781 505.796875 84.984375 506.65625 86.59375 C 507.511719 88.199219 508.289062 89.84375 508.988281 91.523438 C 509.683594 93.207031 510.296875 94.917969 510.824219 96.660156 C 511.355469 98.40625 511.796875 100.167969 512.152344 101.953125 C 512.507812 103.742188 512.773438 105.539062 512.953125 107.351562 C 513.132812 109.164062 513.21875 110.980469 513.222656 112.800781 C 513.222656 114.621094 513.132812 116.4375 512.953125 118.25 C 512.773438 120.0625 512.507812 121.863281 512.152344 123.648438 C 511.796875 125.433594 511.355469 127.199219 510.828125 128.941406 C 510.300781 130.683594 509.6875 132.398438 508.992188 134.078125 C 508.292969 135.761719 507.515625 137.40625 506.65625 139.011719 C 505.800781 140.617188 504.863281 142.179688 503.851562 143.691406 C 502.84375 145.207031 501.757812 146.667969 500.605469 148.074219 C 499.449219 149.484375 498.226562 150.832031 496.941406 152.117188 C 495.652344 153.40625 494.304688 154.628906 492.898438 155.785156 C 491.488281 156.9375 490.03125 158.023438 488.515625 159.035156 C 487 160.046875 485.441406 160.980469 483.835938 161.839844 C 482.230469 162.699219 480.585938 163.476562 478.902344 164.175781 C 477.222656 164.871094 475.507812 165.484375 473.765625 166.011719 C 472.023438 166.542969 470.261719 166.984375 468.472656 167.339844 C 466.6875 167.695312 464.890625 167.964844 463.078125 168.140625 C 461.265625 168.320312 459.449219 168.410156 457.628906 168.410156 Z M 457.628906 65.488281 C 456.40625 65.484375 455.191406 65.53125 453.972656 65.625 C 452.757812 65.71875 451.546875 65.859375 450.34375 66.046875 C 449.136719 66.234375 447.941406 66.46875 446.753906 66.746094 C 445.566406 67.027344 444.390625 67.351562 443.230469 67.722656 C 442.070312 68.09375 440.921875 68.507812 439.792969 68.96875 C 438.664062 69.425781 437.550781 69.929688 436.460938 70.472656 C 435.371094 71.019531 434.300781 71.605469 433.257812 72.230469 C 432.210938 72.859375 431.191406 73.527344 430.195312 74.234375 C 429.203125 74.941406 428.238281 75.683594 427.300781 76.464844 C 426.363281 77.246094 425.460938 78.0625 424.585938 78.914062 C 423.710938 79.765625 422.875 80.648438 422.066406 81.5625 C 421.261719 82.480469 420.496094 83.425781 419.761719 84.402344 C 419.03125 85.378906 418.335938 86.378906 417.683594 87.410156 C 417.027344 88.4375 416.414062 89.492188 415.84375 90.566406 C 415.269531 91.644531 414.738281 92.742188 414.25 93.859375 C 413.761719 94.976562 413.316406 96.109375 412.917969 97.261719 C 412.515625 98.414062 412.164062 99.582031 411.851562 100.761719 C 411.542969 101.9375 411.277344 103.128906 411.058594 104.328125 C 410.839844 105.527344 410.667969 106.734375 410.546875 107.949219 C 410.421875 109.160156 410.34375 110.378906 410.3125 111.597656 C 410.28125 112.816406 410.296875 114.035156 410.359375 115.253906 C 410.421875 116.46875 410.535156 117.683594 410.691406 118.894531 C 410.847656 120.101562 411.050781 121.304688 411.304688 122.496094 C 411.554688 123.691406 411.847656 124.875 412.191406 126.042969 C 412.53125 127.214844 412.917969 128.371094 413.351562 129.511719 C 413.78125 130.652344 414.253906 131.773438 414.773438 132.878906 C 415.292969 133.984375 415.851562 135.066406 416.453125 136.125 C 417.054688 137.1875 417.695312 138.222656 418.378906 139.234375 C 419.058594 140.246094 419.777344 141.230469 420.535156 142.183594 C 421.292969 143.140625 422.089844 144.066406 422.917969 144.960938 C 423.746094 145.855469 424.609375 146.714844 425.503906 147.542969 C 426.402344 148.371094 427.328125 149.160156 428.285156 149.917969 C 430.351562 151.566406 432.542969 153.03125 434.859375 154.308594 C 437.175781 155.585938 439.585938 156.660156 442.082031 157.527344 C 444.582031 158.398438 447.136719 159.050781 449.746094 159.488281 C 452.355469 159.921875 454.980469 160.136719 457.628906 160.125 C 459.175781 160.121094 460.722656 160.046875 462.261719 159.890625 C 463.804688 159.738281 465.335938 159.507812 466.855469 159.203125 C 468.375 158.902344 469.875 158.523438 471.355469 158.070312 C 472.839844 157.621094 474.296875 157.097656 475.726562 156.503906 C 477.15625 155.910156 478.554688 155.246094 479.921875 154.515625 C 481.289062 153.785156 482.613281 152.988281 483.902344 152.128906 C 485.191406 151.265625 486.433594 150.34375 487.628906 149.359375 C 488.828125 148.378906 489.972656 147.335938 491.066406 146.242188 C 492.164062 145.144531 493.203125 144 494.183594 142.800781 C 495.167969 141.605469 496.089844 140.359375 496.949219 139.074219 C 497.8125 137.785156 498.605469 136.457031 499.335938 135.089844 C 500.066406 133.726562 500.730469 132.328125 501.324219 130.894531 C 501.917969 129.464844 502.4375 128.007812 502.890625 126.523438 C 503.339844 125.042969 503.714844 123.542969 504.019531 122.023438 C 504.324219 120.503906 504.550781 118.972656 504.703125 117.429688 C 504.855469 115.890625 504.933594 114.34375 504.933594 112.792969 C 504.933594 111.246094 504.855469 109.699219 504.703125 108.160156 C 504.550781 106.617188 504.324219 105.085938 504.019531 103.566406 C 503.71875 102.046875 503.339844 100.546875 502.890625 99.066406 C 502.441406 97.582031 501.917969 96.125 501.324219 94.695312 C 500.730469 93.265625 500.070312 91.867188 499.339844 90.5 C 498.609375 89.132812 497.8125 87.808594 496.953125 86.519531 C 496.089844 85.230469 495.167969 83.988281 494.1875 82.792969 C 493.203125 81.59375 492.164062 80.449219 491.070312 79.351562 C 489.972656 78.257812 488.828125 77.21875 487.628906 76.234375 C 486.433594 75.253906 485.191406 74.332031 483.902344 73.46875 C 482.613281 72.609375 481.285156 71.8125 479.921875 71.082031 C 478.554688 70.351562 477.15625 69.691406 475.726562 69.097656 C 474.292969 68.503906 472.839844 67.980469 471.355469 67.53125 C 469.875 67.082031 468.375 66.703125 466.855469 66.402344 C 465.335938 66.097656 463.804688 65.871094 462.261719 65.71875 C 460.722656 65.566406 459.175781 65.488281 457.628906 65.488281 Z M 457.628906 65.488281 " fill-opacity="1" fill-rule="nonzero"/><path fill="#2d4542" d="M 457.617188 150.304688 C 456.800781 150.304688 455.996094 150.222656 455.199219 150.066406 C 454.402344 149.90625 453.625 149.671875 452.875 149.359375 C 452.125 149.046875 451.410156 148.664062 450.734375 148.210938 C 450.058594 147.761719 449.433594 147.246094 448.855469 146.671875 C 448.28125 146.097656 447.769531 145.46875 447.316406 144.792969 C 446.863281 144.117188 446.480469 143.40625 446.171875 142.652344 C 445.859375 141.902344 445.621094 141.128906 445.464844 140.328125 C 445.304688 139.53125 445.222656 138.726562 445.222656 137.914062 L 445.222656 125.179688 L 432.492188 125.179688 C 431.671875 125.1875 430.863281 125.109375 430.0625 124.957031 C 429.257812 124.800781 428.480469 124.570312 427.722656 124.261719 C 426.96875 123.953125 426.25 123.570312 425.566406 123.121094 C 424.886719 122.667969 424.253906 122.15625 423.675781 121.578125 C 423.097656 121.003906 422.578125 120.375 422.121094 119.699219 C 421.667969 119.019531 421.28125 118.304688 420.96875 117.550781 C 420.65625 116.796875 420.417969 116.015625 420.257812 115.214844 C 420.097656 114.414062 420.019531 113.605469 420.019531 112.789062 C 420.019531 111.972656 420.097656 111.164062 420.257812 110.359375 C 420.417969 109.558594 420.65625 108.78125 420.96875 108.027344 C 421.28125 107.273438 421.667969 106.558594 422.121094 105.878906 C 422.578125 105.199219 423.097656 104.574219 423.675781 103.996094 C 424.253906 103.421875 424.886719 102.90625 425.566406 102.457031 C 426.25 102.003906 426.96875 101.625 427.722656 101.316406 C 428.480469 101.007812 429.257812 100.777344 430.0625 100.621094 C 430.863281 100.464844 431.671875 100.390625 432.492188 100.398438 L 445.222656 100.398438 L 445.222656 87.691406 C 445.21875 86.875 445.292969 86.0625 445.445312 85.261719 C 445.601562 84.457031 445.832031 83.679688 446.140625 82.921875 C 446.449219 82.167969 446.832031 81.445312 447.28125 80.765625 C 447.734375 80.085938 448.246094 79.453125 448.824219 78.875 C 449.398438 78.292969 450.027344 77.777344 450.703125 77.320312 C 451.382812 76.863281 452.097656 76.480469 452.851562 76.164062 C 453.609375 75.851562 454.386719 75.613281 455.1875 75.453125 C 455.988281 75.292969 456.796875 75.214844 457.613281 75.214844 C 458.433594 75.214844 459.242188 75.292969 460.042969 75.453125 C 460.84375 75.613281 461.621094 75.851562 462.375 76.164062 C 463.132812 76.480469 463.847656 76.863281 464.527344 77.320312 C 465.203125 77.777344 465.832031 78.292969 466.40625 78.875 C 466.984375 79.453125 467.496094 80.085938 467.949219 80.765625 C 468.398438 81.445312 468.777344 82.167969 469.089844 82.921875 C 469.398438 83.679688 469.628906 84.457031 469.785156 85.261719 C 469.9375 86.0625 470.011719 86.875 470.007812 87.691406 L 470.007812 100.398438 L 482.738281 100.398438 C 483.550781 100.402344 484.351562 100.484375 485.144531 100.648438 C 485.941406 100.8125 486.710938 101.050781 487.457031 101.363281 C 488.203125 101.675781 488.914062 102.058594 489.585938 102.511719 C 490.257812 102.964844 490.878906 103.480469 491.449219 104.054688 C 492.023438 104.628906 492.53125 105.253906 492.980469 105.929688 C 493.429688 106.605469 493.808594 107.316406 494.117188 108.066406 C 494.425781 108.8125 494.660156 109.585938 494.816406 110.378906 C 494.972656 111.175781 495.050781 111.976562 495.050781 112.789062 C 495.050781 113.597656 494.972656 114.402344 494.816406 115.195312 C 494.660156 115.992188 494.425781 116.761719 494.117188 117.511719 C 493.808594 118.261719 493.429688 118.972656 492.980469 119.648438 C 492.53125 120.324219 492.023438 120.949219 491.449219 121.523438 C 490.878906 122.097656 490.257812 122.613281 489.585938 123.066406 C 488.914062 123.515625 488.203125 123.902344 487.457031 124.214844 C 486.710938 124.527344 485.941406 124.765625 485.144531 124.929688 C 484.351562 125.089844 483.550781 125.175781 482.738281 125.179688 L 470.007812 125.179688 L 470.007812 137.914062 C 470.007812 138.726562 469.925781 139.53125 469.765625 140.328125 C 469.609375 141.128906 469.371094 141.902344 469.058594 142.652344 C 468.75 143.40625 468.367188 144.117188 467.914062 144.792969 C 467.460938 145.46875 466.949219 146.097656 466.375 146.671875 C 465.796875 147.246094 465.171875 147.761719 464.496094 148.210938 C 463.820312 148.664062 463.105469 149.046875 462.355469 149.359375 C 461.605469 149.667969 460.828125 149.90625 460.03125 150.066406 C 459.234375 150.222656 458.429688 150.304688 457.617188 150.304688 Z M 432.492188 108.683594 C 432.21875 108.679688 431.949219 108.703125 431.683594 108.753906 C 431.417969 108.804688 431.15625 108.878906 430.90625 108.980469 C 430.652344 109.082031 430.414062 109.207031 430.1875 109.359375 C 429.960938 109.507812 429.75 109.675781 429.554688 109.867188 C 429.363281 110.058594 429.191406 110.265625 429.039062 110.492188 C 428.886719 110.71875 428.757812 110.957031 428.652344 111.207031 C 428.550781 111.457031 428.46875 111.714844 428.417969 111.980469 C 428.363281 112.246094 428.335938 112.515625 428.335938 112.789062 C 428.335938 113.058594 428.363281 113.328125 428.417969 113.59375 C 428.46875 113.863281 428.550781 114.121094 428.652344 114.371094 C 428.757812 114.621094 428.886719 114.859375 429.039062 115.085938 C 429.191406 115.308594 429.363281 115.519531 429.554688 115.710938 C 429.75 115.898438 429.960938 116.070312 430.1875 116.21875 C 430.414062 116.367188 430.652344 116.496094 430.90625 116.597656 C 431.15625 116.699219 431.417969 116.773438 431.683594 116.824219 C 431.949219 116.875 432.21875 116.898438 432.492188 116.894531 L 449.367188 116.894531 C 449.640625 116.894531 449.90625 116.921875 450.175781 116.972656 C 450.441406 117.027344 450.699219 117.105469 450.953125 117.210938 C 451.203125 117.3125 451.441406 117.441406 451.667969 117.59375 C 451.894531 117.742188 452.105469 117.914062 452.296875 118.109375 C 452.488281 118.300781 452.660156 118.507812 452.8125 118.734375 C 452.960938 118.960938 453.089844 119.199219 453.195312 119.453125 C 453.296875 119.703125 453.378906 119.960938 453.429688 120.230469 C 453.484375 120.496094 453.511719 120.765625 453.511719 121.039062 L 453.511719 137.914062 C 453.507812 138.183594 453.53125 138.453125 453.582031 138.722656 C 453.628906 138.988281 453.707031 139.246094 453.808594 139.5 C 453.910156 139.75 454.035156 139.992188 454.183594 140.21875 C 454.335938 140.445312 454.503906 140.652344 454.695312 140.847656 C 454.886719 141.039062 455.09375 141.214844 455.320312 141.363281 C 455.542969 141.515625 455.78125 141.644531 456.035156 141.75 C 456.285156 141.855469 456.542969 141.933594 456.808594 141.988281 C 457.074219 142.039062 457.34375 142.066406 457.617188 142.066406 C 457.886719 142.066406 458.15625 142.039062 458.421875 141.988281 C 458.6875 141.933594 458.949219 141.855469 459.199219 141.75 C 459.449219 141.644531 459.6875 141.515625 459.910156 141.363281 C 460.136719 141.214844 460.34375 141.039062 460.535156 140.847656 C 460.726562 140.652344 460.898438 140.445312 461.046875 140.21875 C 461.195312 139.988281 461.320312 139.75 461.421875 139.5 C 461.523438 139.246094 461.601562 138.988281 461.652344 138.722656 C 461.703125 138.453125 461.726562 138.183594 461.722656 137.914062 L 461.722656 121.039062 C 461.722656 120.765625 461.75 120.496094 461.800781 120.230469 C 461.855469 119.960938 461.933594 119.703125 462.035156 119.453125 C 462.140625 119.199219 462.269531 118.960938 462.417969 118.734375 C 462.570312 118.507812 462.742188 118.300781 462.933594 118.109375 C 463.128906 117.914062 463.335938 117.742188 463.5625 117.59375 C 463.789062 117.441406 464.027344 117.3125 464.277344 117.210938 C 464.53125 117.105469 464.789062 117.027344 465.054688 116.972656 C 465.324219 116.921875 465.59375 116.894531 465.863281 116.894531 L 482.738281 116.894531 C 483.007812 116.890625 483.273438 116.863281 483.535156 116.808594 C 483.796875 116.753906 484.050781 116.671875 484.296875 116.566406 C 484.542969 116.464844 484.777344 116.335938 485 116.1875 C 485.21875 116.035156 485.425781 115.867188 485.613281 115.675781 C 485.800781 115.484375 485.96875 115.277344 486.117188 115.054688 C 486.265625 114.832031 486.386719 114.597656 486.488281 114.347656 C 486.589844 114.101562 486.667969 113.847656 486.71875 113.582031 C 486.773438 113.320312 486.796875 113.054688 486.796875 112.789062 C 486.796875 112.519531 486.773438 112.257812 486.71875 111.992188 C 486.667969 111.730469 486.589844 111.476562 486.488281 111.226562 C 486.386719 110.980469 486.265625 110.746094 486.117188 110.523438 C 485.96875 110.300781 485.800781 110.09375 485.613281 109.902344 C 485.425781 109.710938 485.21875 109.542969 485 109.390625 C 484.777344 109.242188 484.542969 109.113281 484.296875 109.007812 C 484.050781 108.90625 483.796875 108.824219 483.535156 108.769531 C 483.273438 108.714844 483.007812 108.6875 482.738281 108.683594 L 465.863281 108.683594 C 465.59375 108.683594 465.324219 108.65625 465.054688 108.601562 C 464.789062 108.550781 464.53125 108.472656 464.277344 108.367188 C 464.027344 108.261719 463.789062 108.136719 463.5625 107.984375 C 463.335938 107.832031 463.125 107.660156 462.933594 107.46875 C 462.742188 107.277344 462.570312 107.066406 462.417969 106.839844 C 462.269531 106.613281 462.140625 106.375 462.035156 106.125 C 461.933594 105.875 461.855469 105.613281 461.800781 105.347656 C 461.746094 105.082031 461.722656 104.8125 461.722656 104.539062 L 461.722656 87.691406 C 461.722656 87.417969 461.699219 87.148438 461.652344 86.882812 C 461.601562 86.617188 461.523438 86.355469 461.421875 86.105469 C 461.320312 85.851562 461.195312 85.613281 461.046875 85.386719 C 460.898438 85.160156 460.726562 84.949219 460.535156 84.757812 C 460.34375 84.5625 460.136719 84.390625 459.910156 84.238281 C 459.6875 84.085938 459.449219 83.957031 459.199219 83.855469 C 458.945312 83.75 458.6875 83.671875 458.421875 83.617188 C 458.15625 83.5625 457.886719 83.535156 457.617188 83.535156 C 457.34375 83.535156 457.074219 83.5625 456.808594 83.617188 C 456.542969 83.671875 456.285156 83.75 456.03125 83.855469 C 455.78125 83.957031 455.542969 84.085938 455.320312 84.238281 C 455.09375 84.390625 454.886719 84.5625 454.695312 84.757812 C 454.503906 84.949219 454.332031 85.160156 454.183594 85.386719 C 454.035156 85.613281 453.910156 85.851562 453.808594 86.105469 C 453.707031 86.355469 453.628906 86.617188 453.578125 86.882812 C 453.53125 87.148438 453.507812 87.417969 453.507812 87.691406 L 453.507812 104.539062 C 453.507812 104.8125 453.484375 105.082031 453.429688 105.347656 C 453.375 105.613281 453.296875 105.875 453.195312 106.125 C 453.089844 106.375 452.960938 106.613281 452.8125 106.839844 C 452.660156 107.066406 452.488281 107.277344 452.296875 107.46875 C 452.101562 107.660156 451.894531 107.832031 451.667969 107.984375 C 451.441406 108.136719 451.203125 108.261719 450.953125 108.367188 C 450.699219 108.472656 450.441406 108.550781 450.175781 108.601562 C 449.90625 108.65625 449.636719 108.683594 449.367188 108.683594 Z M 432.492188 108.683594 " fill-opacity="1" fill-rule="nonzero"/><g clip-path="url(#3a0c94c8c6)"><path fill="#2d4542" d="M 576.933594 450.011719 L 23.066406 450.011719 C 22.796875 450.011719 22.527344 449.984375 22.257812 449.929688 C 21.992188 449.878906 21.734375 449.800781 21.480469 449.695312 C 21.230469 449.589844 20.992188 449.464844 20.765625 449.3125 C 20.539062 449.160156 20.332031 448.988281 20.136719 448.796875 C 19.945312 448.605469 19.773438 448.394531 19.621094 448.167969 C 19.472656 447.945312 19.34375 447.703125 19.238281 447.453125 C 19.136719 447.203125 19.058594 446.941406 19.003906 446.675781 C 18.949219 446.410156 18.925781 446.140625 18.925781 445.867188 L 18.925781 236.316406 C 18.925781 235.886719 18.992188 235.464844 19.121094 235.054688 C 19.253906 234.644531 19.445312 234.261719 19.695312 233.910156 C 19.945312 233.558594 20.246094 233.253906 20.589844 232.996094 C 20.9375 232.738281 21.3125 232.539062 21.722656 232.398438 C 22.128906 232.261719 22.550781 232.183594 22.980469 232.175781 C 23.410156 232.167969 23.835938 232.222656 24.246094 232.347656 C 24.660156 232.46875 25.046875 232.652344 25.402344 232.894531 C 25.757812 233.140625 26.070312 233.429688 26.335938 233.769531 C 27.042969 234.679688 27.773438 235.5625 28.53125 236.429688 C 29.289062 237.296875 30.070312 238.136719 30.878906 238.957031 C 31.683594 239.78125 32.511719 240.578125 33.363281 241.351562 C 34.214844 242.125 35.085938 242.871094 35.980469 243.597656 C 36.871094 244.320312 37.785156 245.019531 38.71875 245.691406 C 39.652344 246.363281 40.605469 247.007812 41.574219 247.625 C 42.542969 248.242188 43.53125 248.832031 44.535156 249.394531 C 45.539062 249.957031 46.558594 250.488281 47.59375 250.992188 C 48.625 251.496094 49.671875 251.96875 50.734375 252.414062 C 51.796875 252.855469 52.867188 253.269531 53.953125 253.652344 C 55.035156 254.035156 56.132812 254.386719 57.234375 254.707031 C 58.339844 255.03125 59.453125 255.316406 60.574219 255.574219 C 61.695312 255.832031 62.820312 256.058594 63.957031 256.25 C 65.089844 256.445312 66.226562 256.605469 67.371094 256.734375 C 68.515625 256.859375 69.660156 256.957031 70.808594 257.019531 C 71.957031 257.082031 73.105469 257.113281 74.253906 257.109375 C 75.40625 257.109375 76.554688 257.074219 77.703125 257.003906 C 78.851562 256.9375 79.996094 256.835938 81.136719 256.703125 C 82.28125 256.570312 83.417969 256.40625 84.550781 256.207031 C 85.683594 256.011719 86.8125 255.78125 87.929688 255.519531 C 89.050781 255.257812 90.160156 254.964844 91.265625 254.636719 C 92.367188 254.3125 93.460938 253.957031 94.542969 253.570312 C 95.628906 253.179688 96.699219 252.765625 97.757812 252.316406 C 98.816406 251.867188 99.863281 251.390625 100.894531 250.882812 C 101.925781 250.371094 102.941406 249.835938 103.941406 249.269531 C 104.945312 248.703125 105.929688 248.109375 106.894531 247.488281 C 107.863281 246.867188 108.8125 246.21875 109.742188 245.542969 C 110.675781 244.867188 111.585938 244.164062 112.476562 243.4375 C 113.367188 242.710938 114.234375 241.957031 115.082031 241.179688 C 115.929688 240.402344 116.753906 239.601562 117.558594 238.777344 C 118.359375 237.953125 119.136719 237.109375 119.890625 236.238281 C 120.644531 235.371094 121.375 234.480469 122.078125 233.570312 C 122.46875 233.066406 122.953125 232.667969 123.53125 232.386719 C 124.105469 232.105469 124.714844 231.964844 125.355469 231.964844 L 127.785156 231.964844 C 128.425781 231.964844 129.035156 232.105469 129.609375 232.386719 C 130.183594 232.667969 130.667969 233.0625 131.0625 233.570312 C 132.46875 235.398438 133.976562 237.144531 135.582031 238.800781 C 137.191406 240.457031 138.886719 242.015625 140.675781 243.480469 C 142.460938 244.941406 144.328125 246.296875 146.269531 247.542969 C 148.210938 248.792969 150.21875 249.925781 152.289062 250.941406 C 154.363281 251.960938 156.488281 252.855469 158.664062 253.628906 C 160.839844 254.402344 163.050781 255.046875 165.300781 255.566406 C 167.550781 256.085938 169.820312 256.476562 172.117188 256.734375 C 174.410156 256.992188 176.710938 257.117188 179.019531 257.109375 C 181.328125 257.113281 183.628906 256.984375 185.921875 256.722656 C 188.210938 256.464844 190.484375 256.074219 192.730469 255.550781 C 194.980469 255.03125 197.191406 254.382812 199.363281 253.609375 C 201.535156 252.835938 203.660156 251.941406 205.730469 250.925781 C 207.800781 249.90625 209.808594 248.773438 211.75 247.527344 C 213.691406 246.28125 215.554688 244.929688 217.339844 243.46875 C 219.128906 242.007812 220.824219 240.449219 222.433594 238.796875 C 224.042969 237.140625 225.550781 235.398438 226.957031 233.574219 C 227.351562 233.066406 227.835938 232.671875 228.410156 232.386719 C 228.984375 232.105469 229.59375 231.964844 230.234375 231.964844 L 232.667969 231.964844 C 233.308594 231.964844 233.914062 232.105469 234.488281 232.386719 C 235.066406 232.667969 235.546875 233.0625 235.941406 233.570312 C 236.644531 234.480469 237.375 235.371094 238.132812 236.242188 C 238.886719 237.113281 239.667969 237.960938 240.472656 238.785156 C 241.277344 239.613281 242.105469 240.414062 242.953125 241.195312 C 243.804688 241.972656 244.675781 242.726562 245.570312 243.457031 C 246.460938 244.183594 247.375 244.886719 248.308594 245.5625 C 249.242188 246.242188 250.191406 246.890625 251.164062 247.511719 C 252.132812 248.136719 253.121094 248.730469 254.125 249.296875 C 255.128906 249.863281 256.148438 250.398438 257.183594 250.90625 C 258.21875 251.414062 259.265625 251.894531 260.328125 252.339844 C 261.390625 252.789062 262.464844 253.207031 263.550781 253.59375 C 264.636719 253.980469 265.730469 254.335938 266.839844 254.660156 C 267.945312 254.984375 269.058594 255.277344 270.179688 255.539062 C 271.304688 255.800781 272.433594 256.027344 273.570312 256.222656 C 274.707031 256.421875 275.847656 256.585938 276.992188 256.714844 C 278.136719 256.847656 279.285156 256.945312 280.4375 257.011719 C 281.585938 257.078125 282.738281 257.109375 283.890625 257.109375 C 285.042969 257.109375 286.195312 257.078125 287.347656 257.011719 C 288.496094 256.945312 289.644531 256.847656 290.789062 256.714844 C 291.9375 256.585938 293.078125 256.421875 294.210938 256.222656 C 295.347656 256.027344 296.476562 255.800781 297.601562 255.539062 C 298.722656 255.277344 299.839844 254.984375 300.945312 254.660156 C 302.050781 254.335938 303.144531 253.980469 304.230469 253.59375 C 305.316406 253.207031 306.390625 252.789062 307.453125 252.339844 C 308.515625 251.894531 309.566406 251.414062 310.597656 250.90625 C 311.632812 250.398438 312.652344 249.863281 313.65625 249.296875 C 314.660156 248.730469 315.648438 248.136719 316.621094 247.511719 C 317.589844 246.890625 318.542969 246.242188 319.472656 245.5625 C 320.40625 244.886719 321.320312 244.183594 322.214844 243.457031 C 323.105469 242.726562 323.976562 241.972656 324.828125 241.195312 C 325.679688 240.414062 326.503906 239.613281 327.308594 238.785156 C 328.113281 237.960938 328.894531 237.113281 329.648438 236.242188 C 330.40625 235.371094 331.136719 234.480469 331.839844 233.570312 C 332.234375 233.0625 332.71875 232.667969 333.292969 232.382812 C 333.867188 232.101562 334.476562 231.960938 335.117188 231.960938 L 337.550781 231.960938 C 338.191406 231.960938 338.796875 232.101562 339.371094 232.382812 C 339.949219 232.664062 340.429688 233.058594 340.824219 233.566406 C 342.230469 235.398438 343.738281 237.140625 345.347656 238.796875 C 346.953125 240.453125 348.652344 242.015625 350.4375 243.476562 C 352.226562 244.9375 354.089844 246.292969 356.03125 247.542969 C 357.976562 248.789062 359.980469 249.921875 362.054688 250.941406 C 364.128906 251.957031 366.25 252.851562 368.425781 253.625 C 370.601562 254.398438 372.816406 255.046875 375.066406 255.566406 C 377.316406 256.082031 379.585938 256.472656 381.882812 256.730469 C 384.175781 256.988281 386.476562 257.113281 388.785156 257.109375 C 391.09375 257.113281 393.394531 256.984375 395.6875 256.722656 C 397.980469 256.460938 400.25 256.070312 402.496094 255.550781 C 404.746094 255.03125 406.957031 254.382812 409.128906 253.609375 C 411.304688 252.835938 413.425781 251.941406 415.496094 250.925781 C 417.566406 249.90625 419.574219 248.777344 421.515625 247.527344 C 423.457031 246.28125 425.320312 244.929688 427.105469 243.46875 C 428.894531 242.007812 430.589844 240.449219 432.199219 238.792969 C 433.804688 237.140625 435.3125 235.398438 436.722656 233.570312 C 437.113281 233.0625 437.597656 232.667969 438.175781 232.386719 C 438.75 232.101562 439.359375 231.960938 440 231.960938 L 442.433594 231.960938 C 443.074219 231.960938 443.679688 232.101562 444.253906 232.382812 C 444.832031 232.664062 445.3125 233.058594 445.707031 233.566406 C 446.410156 234.476562 447.140625 235.371094 447.898438 236.238281 C 448.652344 237.109375 449.433594 237.957031 450.238281 238.785156 C 451.042969 239.609375 451.871094 240.414062 452.71875 241.191406 C 453.570312 241.96875 454.441406 242.722656 455.332031 243.453125 C 456.226562 244.179688 457.140625 244.882812 458.074219 245.5625 C 459.007812 246.238281 459.957031 246.886719 460.929688 247.511719 C 461.898438 248.132812 462.886719 248.726562 463.890625 249.292969 C 464.894531 249.859375 465.914062 250.394531 466.949219 250.902344 C 467.984375 251.414062 469.03125 251.890625 470.09375 252.339844 C 471.15625 252.785156 472.230469 253.203125 473.316406 253.589844 C 474.402344 253.976562 475.496094 254.332031 476.601562 254.65625 C 477.710938 254.980469 478.824219 255.273438 479.945312 255.535156 C 481.070312 255.796875 482.199219 256.023438 483.335938 256.222656 C 484.472656 256.417969 485.613281 256.582031 486.757812 256.710938 C 487.902344 256.84375 489.050781 256.941406 490.199219 257.007812 C 491.351562 257.074219 492.503906 257.105469 493.65625 257.105469 C 494.808594 257.105469 495.960938 257.074219 497.113281 257.007812 C 498.261719 256.941406 499.410156 256.84375 500.554688 256.710938 C 501.699219 256.582031 502.84375 256.417969 503.976562 256.222656 C 505.113281 256.023438 506.242188 255.796875 507.367188 255.535156 C 508.488281 255.273438 509.601562 254.980469 510.710938 254.65625 C 511.816406 254.332031 512.910156 253.976562 513.996094 253.589844 C 515.082031 253.203125 516.15625 252.785156 517.21875 252.339844 C 518.28125 251.890625 519.328125 251.414062 520.363281 250.902344 C 521.398438 250.394531 522.417969 249.859375 523.421875 249.292969 C 524.425781 248.726562 525.414062 248.132812 526.382812 247.511719 C 527.355469 246.886719 528.304688 246.238281 529.238281 245.5625 C 530.171875 244.882812 531.085938 244.179688 531.980469 243.453125 C 532.871094 242.722656 533.742188 241.96875 534.59375 241.191406 C 535.445312 240.414062 536.269531 239.609375 537.074219 238.785156 C 537.878906 237.957031 538.660156 237.109375 539.414062 236.238281 C 540.171875 235.371094 540.902344 234.476562 541.605469 233.566406 C 542 233.058594 542.484375 232.664062 543.058594 232.382812 C 543.632812 232.097656 544.242188 231.957031 544.882812 231.957031 L 547.3125 231.957031 C 547.953125 231.957031 548.5625 232.097656 549.136719 232.382812 C 549.714844 232.664062 550.199219 233.058594 550.589844 233.5625 C 554.144531 238.175781 558.28125 242.1875 562.996094 245.597656 C 567.714844 249.011719 572.820312 251.683594 578.3125 253.617188 C 578.714844 253.757812 579.089844 253.957031 579.433594 254.21875 C 579.777344 254.476562 580.070312 254.78125 580.320312 255.128906 C 580.570312 255.480469 580.757812 255.859375 580.886719 256.269531 C 581.019531 256.679688 581.082031 257.097656 581.082031 257.527344 L 581.082031 445.867188 C 581.082031 446.140625 581.058594 446.410156 581.003906 446.675781 C 580.949219 446.945312 580.871094 447.203125 580.769531 447.457031 C 580.664062 447.707031 580.535156 447.945312 580.382812 448.171875 C 580.230469 448.398438 580.058594 448.609375 579.867188 448.800781 C 579.675781 448.992188 579.464844 449.164062 579.238281 449.316406 C 579.011719 449.464844 578.773438 449.59375 578.519531 449.699219 C 578.269531 449.800781 578.007812 449.878906 577.742188 449.933594 C 577.472656 449.984375 577.203125 450.011719 576.933594 450.011719 Z M 27.210938 441.726562 L 572.789062 441.726562 L 572.789062 260.398438 C 567.625 258.328125 562.785156 255.667969 558.269531 252.417969 C 553.753906 249.167969 549.695312 245.421875 546.09375 241.183594 C 545.289062 242.128906 544.460938 243.050781 543.605469 243.953125 C 542.75 244.851562 541.871094 245.730469 540.964844 246.582031 C 540.0625 247.433594 539.140625 248.261719 538.191406 249.066406 C 537.242188 249.867188 536.273438 250.644531 535.285156 251.394531 C 534.296875 252.148438 533.285156 252.871094 532.257812 253.566406 C 531.230469 254.261719 530.183594 254.929688 529.117188 255.570312 C 528.050781 256.207031 526.972656 256.820312 525.875 257.398438 C 524.777344 257.980469 523.664062 258.53125 522.535156 259.050781 C 521.40625 259.574219 520.265625 260.0625 519.113281 260.519531 C 517.957031 260.980469 516.792969 261.40625 515.617188 261.804688 C 514.4375 262.199219 513.25 262.5625 512.054688 262.894531 C 510.859375 263.226562 509.652344 263.527344 508.4375 263.792969 C 507.226562 264.058594 506.007812 264.292969 504.78125 264.492188 C 503.554688 264.695312 502.324219 264.863281 501.089844 264.996094 C 499.855469 265.128906 498.617188 265.230469 497.378906 265.296875 C 496.136719 265.363281 494.894531 265.398438 493.652344 265.398438 C 492.414062 265.398438 491.171875 265.363281 489.929688 265.296875 C 488.691406 265.230469 487.453125 265.128906 486.21875 264.996094 C 484.984375 264.863281 483.753906 264.695312 482.527344 264.492188 C 481.300781 264.292969 480.082031 264.058594 478.871094 263.792969 C 477.65625 263.527344 476.449219 263.226562 475.253906 262.894531 C 474.058594 262.5625 472.871094 262.199219 471.691406 261.804688 C 470.515625 261.40625 469.351562 260.980469 468.195312 260.519531 C 467.042969 260.0625 465.902344 259.574219 464.773438 259.050781 C 463.644531 258.53125 462.53125 257.980469 461.433594 257.398438 C 460.335938 256.820312 459.253906 256.207031 458.191406 255.570312 C 457.125 254.929688 456.078125 254.261719 455.050781 253.566406 C 454.023438 252.871094 453.011719 252.148438 452.023438 251.394531 C 451.035156 250.644531 450.066406 249.867188 449.117188 249.066406 C 448.167969 248.261719 447.246094 247.433594 446.339844 246.582031 C 445.4375 245.730469 444.558594 244.851562 443.703125 243.953125 C 442.847656 243.050781 442.019531 242.128906 441.214844 241.183594 C 439.605469 243.078125 437.898438 244.878906 436.089844 246.589844 C 434.285156 248.296875 432.394531 249.90625 430.414062 251.410156 C 428.433594 252.914062 426.378906 254.304688 424.25 255.585938 C 422.117188 256.867188 419.925781 258.027344 417.667969 259.070312 C 415.410156 260.113281 413.105469 261.03125 410.746094 261.820312 C 408.390625 262.613281 406 263.277344 403.570312 263.808594 C 401.140625 264.339844 398.691406 264.738281 396.21875 265.003906 C 393.75 265.269531 391.269531 265.402344 388.785156 265.398438 C 386.296875 265.40625 383.816406 265.277344 381.34375 265.015625 C 378.871094 264.753906 376.417969 264.355469 373.988281 263.824219 C 371.558594 263.296875 369.164062 262.636719 366.804688 261.84375 C 364.445312 261.054688 362.136719 260.136719 359.878906 259.09375 C 357.621094 258.050781 355.425781 256.890625 353.296875 255.605469 C 351.164062 254.324219 349.109375 252.933594 347.128906 251.425781 C 345.148438 249.921875 343.257812 248.3125 341.453125 246.597656 C 339.648438 244.886719 337.941406 243.082031 336.332031 241.183594 C 335.527344 242.128906 334.699219 243.054688 333.84375 243.953125 C 332.988281 244.855469 332.109375 245.730469 331.203125 246.585938 C 330.300781 247.4375 329.378906 248.265625 328.429688 249.066406 C 327.480469 249.871094 326.511719 250.648438 325.523438 251.398438 C 324.535156 252.148438 323.523438 252.871094 322.496094 253.566406 C 321.46875 254.265625 320.421875 254.933594 319.355469 255.570312 C 318.289062 256.210938 317.210938 256.820312 316.113281 257.402344 C 315.015625 257.980469 313.902344 258.53125 312.773438 259.054688 C 311.644531 259.574219 310.503906 260.0625 309.351562 260.523438 C 308.195312 260.980469 307.03125 261.410156 305.855469 261.804688 C 304.675781 262.203125 303.488281 262.566406 302.292969 262.898438 C 301.09375 263.230469 299.890625 263.527344 298.675781 263.792969 C 297.464844 264.0625 296.246094 264.292969 295.019531 264.496094 C 293.792969 264.695312 292.5625 264.863281 291.328125 264.996094 C 290.09375 265.132812 288.855469 265.230469 287.617188 265.300781 C 286.375 265.367188 285.132812 265.398438 283.894531 265.398438 C 282.652344 265.398438 281.410156 265.367188 280.167969 265.300781 C 278.929688 265.230469 277.691406 265.132812 276.457031 264.996094 C 275.222656 264.863281 273.992188 264.695312 272.765625 264.496094 C 271.539062 264.292969 270.320312 264.0625 269.109375 263.792969 C 267.894531 263.527344 266.691406 263.230469 265.492188 262.898438 C 264.296875 262.566406 263.109375 262.203125 261.929688 261.804688 C 260.753906 261.410156 259.589844 260.980469 258.433594 260.523438 C 257.28125 260.0625 256.140625 259.574219 255.011719 259.054688 C 253.882812 258.53125 252.769531 257.980469 251.671875 257.402344 C 250.574219 256.820312 249.496094 256.210938 248.429688 255.570312 C 247.363281 254.933594 246.316406 254.265625 245.289062 253.566406 C 244.261719 252.871094 243.25 252.148438 242.261719 251.398438 C 241.273438 250.648438 240.304688 249.871094 239.355469 249.066406 C 238.40625 248.265625 237.484375 247.4375 236.582031 246.585938 C 235.675781 245.730469 234.796875 244.855469 233.941406 243.953125 C 233.085938 243.054688 232.257812 242.128906 231.453125 241.183594 C 229.839844 243.078125 228.132812 244.878906 226.328125 246.589844 C 224.523438 248.296875 222.632812 249.90625 220.652344 251.410156 C 218.671875 252.910156 216.617188 254.304688 214.484375 255.585938 C 212.355469 256.863281 210.160156 258.027344 207.902344 259.066406 C 205.648438 260.109375 203.339844 261.027344 200.984375 261.820312 C 198.628906 262.609375 196.234375 263.273438 193.808594 263.804688 C 191.378906 264.335938 188.929688 264.734375 186.457031 265.003906 C 183.984375 265.269531 181.507812 265.398438 179.019531 265.398438 C 176.53125 265.40625 174.054688 265.277344 171.578125 265.015625 C 169.105469 264.75 166.65625 264.355469 164.222656 263.824219 C 161.792969 263.292969 159.398438 262.632812 157.042969 261.84375 C 154.683594 261.050781 152.375 260.136719 150.117188 259.09375 C 147.859375 258.050781 145.664062 256.886719 143.53125 255.605469 C 141.402344 254.324219 139.34375 252.929688 137.367188 251.425781 C 135.386719 249.917969 133.492188 248.308594 131.6875 246.597656 C 129.882812 244.886719 128.179688 243.082031 126.570312 241.183594 C 125.820312 242.066406 125.046875 242.925781 124.25 243.769531 C 123.457031 244.613281 122.640625 245.433594 121.804688 246.238281 C 120.96875 247.039062 120.109375 247.816406 119.234375 248.578125 C 118.359375 249.335938 117.464844 250.070312 116.550781 250.785156 C 115.640625 251.496094 114.707031 252.1875 113.761719 252.855469 C 112.8125 253.519531 111.847656 254.164062 110.867188 254.78125 C 109.886719 255.398438 108.894531 255.992188 107.882812 256.558594 C 106.875 257.125 105.847656 257.667969 104.8125 258.183594 C 103.773438 258.699219 102.726562 259.191406 101.664062 259.652344 C 100.601562 260.117188 99.527344 260.550781 98.445312 260.960938 C 97.359375 261.371094 96.265625 261.75 95.164062 262.105469 C 94.058594 262.457031 92.949219 262.785156 91.828125 263.082031 C 90.707031 263.378906 89.582031 263.648438 88.449219 263.890625 C 87.316406 264.132812 86.175781 264.34375 85.03125 264.527344 C 83.890625 264.710938 82.742188 264.867188 81.589844 264.992188 C 80.4375 265.117188 79.28125 265.214844 78.125 265.28125 C 76.96875 265.347656 75.8125 265.386719 74.652344 265.394531 C 73.496094 265.402344 72.335938 265.382812 71.179688 265.335938 C 70.023438 265.285156 68.867188 265.207031 67.710938 265.097656 C 66.558594 264.992188 65.410156 264.855469 64.261719 264.6875 C 63.113281 264.523438 61.972656 264.328125 60.835938 264.105469 C 59.699219 263.882812 58.570312 263.628906 57.445312 263.351562 C 56.320312 263.070312 55.203125 262.761719 54.09375 262.425781 C 52.988281 262.089844 51.886719 261.722656 50.796875 261.332031 C 49.707031 260.941406 48.625 260.519531 47.558594 260.074219 C 46.488281 259.628906 45.429688 259.15625 44.386719 258.65625 C 43.339844 258.15625 42.308594 257.628906 41.289062 257.078125 C 40.269531 256.527344 39.265625 255.949219 38.277344 255.347656 C 37.289062 254.742188 36.3125 254.117188 35.355469 253.464844 C 34.398438 252.8125 33.457031 252.136719 32.53125 251.441406 C 31.609375 250.742188 30.703125 250.019531 29.816406 249.273438 C 28.925781 248.527344 28.058594 247.761719 27.210938 246.972656 Z M 27.210938 441.726562 " fill-opacity="1" fill-rule="nonzero"/></g><path fill="#2d4542" d="M 388.78125 265.398438 C 386.296875 265.40625 383.816406 265.277344 381.34375 265.015625 C 378.867188 264.75 376.417969 264.355469 373.988281 263.824219 C 371.554688 263.292969 369.164062 262.632812 366.804688 261.84375 C 364.445312 261.050781 362.136719 260.136719 359.878906 259.09375 C 357.621094 258.050781 355.425781 256.886719 353.292969 255.605469 C 351.164062 254.324219 349.105469 252.929688 347.128906 251.425781 C 345.148438 249.917969 343.253906 248.308594 341.453125 246.597656 C 339.648438 244.886719 337.941406 243.082031 336.332031 241.183594 C 335.527344 242.128906 334.695312 243.050781 333.84375 243.953125 C 332.988281 244.851562 332.109375 245.730469 331.203125 246.582031 C 330.300781 247.433594 329.375 248.261719 328.429688 249.066406 C 327.480469 249.871094 326.511719 250.644531 325.523438 251.398438 C 324.535156 252.148438 323.523438 252.871094 322.496094 253.566406 C 321.46875 254.261719 320.421875 254.929688 319.355469 255.570312 C 318.289062 256.207031 317.210938 256.820312 316.109375 257.398438 C 315.011719 257.980469 313.902344 258.53125 312.773438 259.050781 C 311.644531 259.574219 310.503906 260.0625 309.351562 260.523438 C 308.195312 260.980469 307.03125 261.40625 305.851562 261.804688 C 304.675781 262.199219 303.488281 262.5625 302.292969 262.894531 C 301.09375 263.226562 299.890625 263.527344 298.675781 263.792969 C 297.464844 264.058594 296.246094 264.292969 295.019531 264.492188 C 293.792969 264.695312 292.5625 264.863281 291.328125 264.996094 C 290.09375 265.128906 288.855469 265.230469 287.617188 265.296875 C 286.375 265.363281 285.132812 265.398438 283.890625 265.398438 C 282.648438 265.398438 281.410156 265.363281 280.167969 265.296875 C 278.929688 265.230469 277.691406 265.128906 276.457031 264.996094 C 275.222656 264.863281 273.992188 264.695312 272.765625 264.492188 C 271.539062 264.292969 270.320312 264.058594 269.105469 263.792969 C 267.894531 263.527344 266.6875 263.226562 265.492188 262.894531 C 264.296875 262.5625 263.109375 262.199219 261.929688 261.804688 C 260.753906 261.40625 259.585938 260.980469 258.433594 260.523438 C 257.28125 260.0625 256.140625 259.574219 255.011719 259.050781 C 253.882812 258.53125 252.769531 257.980469 251.671875 257.398438 C 250.574219 256.820312 249.492188 256.207031 248.429688 255.570312 C 247.363281 254.929688 246.316406 254.261719 245.289062 253.566406 C 244.261719 252.871094 243.25 252.148438 242.261719 251.398438 C 241.269531 250.644531 240.304688 249.871094 239.355469 249.066406 C 238.40625 248.261719 237.480469 247.433594 236.578125 246.582031 C 235.675781 245.730469 234.796875 244.851562 233.941406 243.953125 C 233.085938 243.050781 232.257812 242.128906 231.449219 241.183594 C 229.226562 243.785156 226.824219 246.210938 224.246094 248.453125 C 221.664062 250.699219 218.929688 252.746094 216.042969 254.585938 C 213.160156 256.425781 210.15625 258.046875 207.03125 259.441406 C 203.90625 260.835938 200.695312 261.996094 197.402344 262.917969 C 197.09375 263 196.78125 263.050781 196.460938 263.0625 C 196.140625 263.074219 195.824219 263.050781 195.511719 262.992188 C 195.199219 262.929688 194.898438 262.835938 194.605469 262.707031 C 194.3125 262.574219 194.042969 262.414062 193.789062 262.21875 C 193.535156 262.027344 193.304688 261.808594 193.101562 261.5625 C 192.898438 261.316406 192.726562 261.050781 192.585938 260.761719 C 192.441406 260.476562 192.335938 260.179688 192.261719 259.867188 C 192.1875 259.558594 192.152344 259.242188 192.152344 258.921875 L 192.152344 241.011719 C 192.15625 239.441406 192.234375 237.875 192.390625 236.316406 C 192.542969 234.753906 192.777344 233.203125 193.082031 231.664062 C 193.390625 230.125 193.773438 228.605469 194.230469 227.101562 C 194.6875 225.601562 195.214844 224.125 195.816406 222.675781 C 196.417969 221.226562 197.089844 219.808594 197.828125 218.425781 C 198.570312 217.042969 199.375 215.699219 200.246094 214.394531 C 201.121094 213.089844 202.054688 211.828125 203.050781 210.617188 C 204.046875 209.402344 205.097656 208.242188 206.207031 207.132812 C 207.316406 206.023438 208.480469 204.96875 209.691406 203.972656 C 210.90625 202.980469 212.164062 202.042969 213.46875 201.171875 C 214.773438 200.300781 216.117188 199.492188 217.5 198.753906 C 218.886719 198.011719 220.300781 197.34375 221.75 196.742188 C 223.203125 196.140625 224.675781 195.609375 226.179688 195.152344 C 227.679688 194.695312 229.199219 194.316406 230.738281 194.007812 C 232.277344 193.699219 233.828125 193.46875 235.390625 193.3125 C 236.953125 193.15625 238.515625 193.078125 240.085938 193.078125 L 362.363281 193.078125 C 363.929688 193.078125 365.496094 193.15625 367.058594 193.3125 C 368.621094 193.46875 370.171875 193.699219 371.710938 194.007812 C 373.25 194.316406 374.769531 194.695312 376.269531 195.152344 C 377.769531 195.609375 379.246094 196.140625 380.695312 196.742188 C 382.144531 197.34375 383.5625 198.011719 384.945312 198.753906 C 386.332031 199.492188 387.675781 200.300781 388.980469 201.171875 C 390.285156 202.042969 391.542969 202.976562 392.757812 203.972656 C 393.96875 204.96875 395.128906 206.023438 396.238281 207.132812 C 397.351562 208.242188 398.402344 209.402344 399.398438 210.617188 C 400.394531 211.828125 401.328125 213.089844 402.199219 214.394531 C 403.074219 215.699219 403.878906 217.042969 404.621094 218.425781 C 405.359375 219.808594 406.03125 221.226562 406.632812 222.675781 C 407.234375 224.125 407.761719 225.601562 408.21875 227.101562 C 408.675781 228.605469 409.058594 230.125 409.367188 231.664062 C 409.671875 233.203125 409.902344 234.753906 410.058594 236.316406 C 410.214844 237.875 410.292969 239.441406 410.296875 241.011719 L 410.296875 258.898438 C 410.296875 259.351562 410.222656 259.792969 410.078125 260.222656 C 409.933594 260.652344 409.722656 261.046875 409.449219 261.410156 C 409.175781 261.769531 408.851562 262.078125 408.476562 262.332031 C 408.101562 262.585938 407.695312 262.773438 407.257812 262.894531 C 401.210938 264.5625 395.054688 265.398438 388.78125 265.398438 Z M 406.152344 258.898438 Z M 335.117188 231.964844 L 337.546875 231.964844 C 338.1875 231.964844 338.796875 232.105469 339.371094 232.386719 C 339.945312 232.667969 340.429688 233.0625 340.820312 233.570312 C 342.230469 235.398438 343.738281 237.144531 345.34375 238.800781 C 346.953125 240.457031 348.648438 242.015625 350.4375 243.480469 C 352.222656 244.941406 354.089844 246.296875 356.03125 247.542969 C 357.972656 248.792969 359.980469 249.925781 362.054688 250.941406 C 364.125 251.960938 366.25 252.855469 368.425781 253.628906 C 370.601562 254.402344 372.8125 255.046875 375.0625 255.566406 C 377.3125 256.085938 379.585938 256.476562 381.878906 256.734375 C 384.175781 256.992188 386.476562 257.117188 388.785156 257.109375 C 393.246094 257.109375 397.65625 256.628906 402.011719 255.660156 L 402.011719 241.007812 C 402.011719 239.710938 401.945312 238.414062 401.816406 237.125 C 401.6875 235.832031 401.496094 234.550781 401.242188 233.277344 C 400.988281 232.003906 400.671875 230.746094 400.292969 229.503906 C 399.917969 228.261719 399.480469 227.042969 398.980469 225.84375 C 398.484375 224.644531 397.929688 223.472656 397.316406 222.328125 C 396.703125 221.183594 396.039062 220.070312 395.316406 218.992188 C 394.59375 217.914062 393.820312 216.871094 393 215.867188 C 392.175781 214.863281 391.304688 213.90625 390.386719 212.988281 C 389.46875 212.070312 388.507812 211.199219 387.503906 210.375 C 386.5 209.550781 385.460938 208.777344 384.378906 208.054688 C 383.300781 207.335938 382.191406 206.667969 381.046875 206.054688 C 379.902344 205.441406 378.730469 204.886719 377.53125 204.390625 C 376.332031 203.894531 375.109375 203.457031 373.867188 203.078125 C 372.625 202.699219 371.367188 202.382812 370.097656 202.128906 C 368.824219 201.875 367.539062 201.683594 366.25 201.554688 C 364.957031 201.425781 363.664062 201.363281 362.363281 201.359375 L 240.089844 201.359375 C 238.789062 201.363281 237.496094 201.425781 236.203125 201.554688 C 234.910156 201.683594 233.628906 201.875 232.355469 202.128906 C 231.082031 202.382812 229.828125 202.699219 228.585938 203.078125 C 227.34375 203.457031 226.121094 203.894531 224.921875 204.390625 C 223.722656 204.886719 222.550781 205.441406 221.40625 206.054688 C 220.261719 206.667969 219.152344 207.335938 218.070312 208.054688 C 216.992188 208.777344 215.953125 209.550781 214.949219 210.375 C 213.945312 211.199219 212.984375 212.070312 212.066406 212.988281 C 211.148438 213.90625 210.277344 214.863281 209.453125 215.867188 C 208.628906 216.871094 207.859375 217.914062 207.136719 218.992188 C 206.414062 220.070312 205.746094 221.183594 205.136719 222.328125 C 204.523438 223.472656 203.96875 224.644531 203.472656 225.84375 C 202.972656 227.042969 202.535156 228.261719 202.160156 229.503906 C 201.78125 230.746094 201.464844 232.003906 201.210938 233.277344 C 200.957031 234.550781 200.765625 235.832031 200.636719 237.125 C 200.507812 238.414062 200.441406 239.710938 200.441406 241.007812 L 200.441406 253.210938 C 205.675781 251.214844 210.546875 248.550781 215.050781 245.214844 C 219.554688 241.878906 223.523438 238 226.957031 233.570312 C 227.347656 233.066406 227.832031 232.667969 228.410156 232.386719 C 228.984375 232.105469 229.59375 231.964844 230.234375 231.964844 L 232.664062 231.964844 C 233.304688 231.964844 233.914062 232.105469 234.488281 232.386719 C 235.0625 232.667969 235.546875 233.0625 235.941406 233.570312 C 236.644531 234.480469 237.375 235.371094 238.132812 236.242188 C 238.886719 237.113281 239.667969 237.960938 240.472656 238.785156 C 241.277344 239.613281 242.101562 240.414062 242.953125 241.191406 C 243.804688 241.972656 244.675781 242.726562 245.566406 243.453125 C 246.460938 244.183594 247.375 244.886719 248.304688 245.5625 C 249.238281 246.238281 250.191406 246.890625 251.160156 247.511719 C 252.132812 248.132812 253.117188 248.730469 254.125 249.296875 C 255.128906 249.863281 256.148438 250.398438 257.179688 250.90625 C 258.214844 251.414062 259.265625 251.894531 260.328125 252.339844 C 261.390625 252.789062 262.460938 253.207031 263.546875 253.59375 C 264.632812 253.980469 265.730469 254.335938 266.835938 254.660156 C 267.941406 254.984375 269.058594 255.277344 270.179688 255.539062 C 271.304688 255.796875 272.433594 256.027344 273.570312 256.222656 C 274.703125 256.421875 275.84375 256.582031 276.988281 256.714844 C 278.136719 256.847656 279.285156 256.945312 280.433594 257.011719 C 281.585938 257.074219 282.738281 257.109375 283.890625 257.109375 C 285.042969 257.109375 286.195312 257.074219 287.34375 257.011719 C 288.496094 256.945312 289.644531 256.847656 290.789062 256.714844 C 291.933594 256.582031 293.074219 256.421875 294.210938 256.222656 C 295.347656 256.027344 296.476562 255.796875 297.597656 255.539062 C 298.722656 255.277344 299.835938 254.984375 300.941406 254.660156 C 302.050781 254.335938 303.144531 253.980469 304.230469 253.59375 C 305.316406 253.207031 306.390625 252.789062 307.453125 252.339844 C 308.515625 251.894531 309.5625 251.414062 310.597656 250.90625 C 311.632812 250.398438 312.652344 249.863281 313.65625 249.296875 C 314.660156 248.730469 315.648438 248.132812 316.617188 247.511719 C 317.589844 246.890625 318.539062 246.238281 319.472656 245.5625 C 320.40625 244.886719 321.320312 244.183594 322.210938 243.453125 C 323.105469 242.726562 323.976562 241.972656 324.828125 241.191406 C 325.675781 240.414062 326.503906 239.613281 327.308594 238.785156 C 328.113281 237.960938 328.894531 237.113281 329.648438 236.242188 C 330.40625 235.371094 331.136719 234.480469 331.839844 233.570312 C 332.230469 233.0625 332.714844 232.667969 333.292969 232.386719 C 333.867188 232.105469 334.476562 231.964844 335.117188 231.964844 Z M 335.117188 231.964844 " fill-opacity="1" fill-rule="nonzero"/><path fill="#2d4542" d="M 320.8125 201.363281 L 282.722656 201.363281 C 282.453125 201.363281 282.183594 201.335938 281.914062 201.28125 C 281.648438 201.230469 281.390625 201.148438 281.136719 201.046875 C 280.886719 200.941406 280.648438 200.8125 280.421875 200.664062 C 280.195312 200.511719 279.988281 200.339844 279.792969 200.148438 C 279.601562 199.957031 279.429688 199.746094 279.277344 199.519531 C 279.128906 199.292969 279 199.054688 278.894531 198.804688 C 278.792969 198.550781 278.714844 198.292969 278.660156 198.027344 C 278.609375 197.757812 278.582031 197.492188 278.582031 197.21875 L 278.582031 173.4375 C 278.582031 173.089844 278.625 172.75 278.710938 172.414062 C 278.796875 172.074219 278.921875 171.753906 279.089844 171.449219 C 279.253906 171.144531 279.457031 170.867188 279.695312 170.613281 C 279.929688 170.359375 280.195312 170.136719 280.488281 169.949219 C 280.78125 169.761719 281.089844 169.613281 281.421875 169.503906 C 281.75 169.394531 282.089844 169.328125 282.433594 169.304688 C 282.78125 169.28125 283.125 169.300781 283.46875 169.363281 C 283.808594 169.425781 284.136719 169.527344 284.453125 169.671875 C 287.171875 170.914062 289.988281 171.855469 292.90625 172.488281 C 295.828125 173.125 298.78125 173.441406 301.769531 173.441406 C 304.753906 173.441406 307.707031 173.125 310.628906 172.488281 C 313.546875 171.855469 316.367188 170.914062 319.082031 169.671875 C 319.398438 169.527344 319.726562 169.425781 320.070312 169.363281 C 320.410156 169.300781 320.753906 169.28125 321.101562 169.304688 C 321.445312 169.328125 321.785156 169.394531 322.113281 169.503906 C 322.445312 169.613281 322.753906 169.761719 323.046875 169.949219 C 323.339844 170.136719 323.605469 170.359375 323.839844 170.613281 C 324.078125 170.867188 324.28125 171.144531 324.445312 171.449219 C 324.613281 171.753906 324.738281 172.074219 324.824219 172.414062 C 324.910156 172.75 324.953125 173.089844 324.953125 173.4375 L 324.953125 197.21875 C 324.953125 197.492188 324.929688 197.761719 324.875 198.027344 C 324.820312 198.292969 324.742188 198.550781 324.640625 198.804688 C 324.535156 199.054688 324.40625 199.292969 324.257812 199.519531 C 324.105469 199.746094 323.933594 199.957031 323.742188 200.148438 C 323.550781 200.339844 323.339844 200.511719 323.113281 200.664062 C 322.886719 200.816406 322.648438 200.941406 322.398438 201.046875 C 322.144531 201.148438 321.886719 201.230469 321.621094 201.28125 C 321.351562 201.335938 321.082031 201.363281 320.8125 201.363281 Z M 286.867188 193.074219 L 316.667969 193.074219 L 316.667969 179.464844 C 311.816406 180.972656 306.847656 181.730469 301.769531 181.730469 C 296.6875 181.730469 291.71875 180.972656 286.867188 179.464844 Z M 286.867188 193.074219 " fill-opacity="1" fill-rule="nonzero"/><path fill="#2d4542" d="M 301.769531 181.730469 C 294.511719 181.746094 287.589844 180.238281 280.996094 177.203125 C 278.835938 176.207031 276.757812 175.066406 274.761719 173.777344 C 272.765625 172.484375 270.871094 171.0625 269.078125 169.5 C 267.28125 167.941406 265.609375 166.261719 264.054688 164.464844 C 262.5 162.664062 261.078125 160.765625 259.796875 158.765625 C 258.511719 156.765625 257.375 154.683594 256.386719 152.519531 C 255.398438 150.359375 254.570312 148.136719 253.898438 145.855469 C 253.226562 143.578125 252.71875 141.261719 252.378906 138.90625 C 252.035156 136.554688 251.863281 134.191406 251.855469 131.8125 L 251.855469 88.589844 C 251.855469 88.292969 251.890625 87.996094 251.953125 87.703125 C 252.015625 87.414062 252.113281 87.128906 252.238281 86.859375 C 252.363281 86.585938 252.515625 86.332031 252.695312 86.09375 C 252.875 85.855469 253.078125 85.640625 253.304688 85.445312 C 253.53125 85.25 253.777344 85.082031 254.042969 84.941406 C 254.304688 84.800781 254.582031 84.6875 254.867188 84.605469 C 255.15625 84.523438 255.449219 84.472656 255.746094 84.457031 C 256.046875 84.4375 256.34375 84.453125 256.636719 84.496094 C 258.484375 84.785156 260.671875 85.0625 263.3125 85.34375 C 265.855469 85.625 268.855469 85.902344 273.050781 86.253906 C 275.660156 86.460938 278.273438 86.492188 280.890625 86.34375 C 287.546875 85.945312 293.988281 84.554688 300.214844 82.167969 C 309.546875 78.65625 317.945312 73.589844 325.402344 66.964844 C 325.636719 66.742188 325.894531 66.546875 326.171875 66.382812 C 326.453125 66.21875 326.746094 66.085938 327.054688 65.992188 C 327.363281 65.894531 327.679688 65.835938 328.003906 65.816406 C 328.328125 65.792969 328.648438 65.8125 328.96875 65.863281 C 329.285156 65.917969 329.597656 66.007812 329.894531 66.132812 C 330.191406 66.261719 330.472656 66.417969 330.734375 66.609375 C 330.996094 66.800781 331.230469 67.019531 331.4375 67.269531 C 331.648438 67.515625 331.828125 67.78125 331.972656 68.070312 C 332.589844 69.183594 333.273438 70.25 334.03125 71.269531 C 337.402344 75.941406 341.621094 79.648438 346.691406 82.386719 C 347.484375 82.8125 348.296875 83.199219 349.128906 83.546875 C 349.503906 83.703125 349.851562 83.910156 350.167969 84.171875 C 350.484375 84.429688 350.753906 84.730469 350.980469 85.070312 C 351.207031 85.414062 351.378906 85.777344 351.5 86.167969 C 351.617188 86.5625 351.675781 86.960938 351.675781 87.371094 L 351.675781 131.816406 C 351.671875 134.195312 351.5 136.558594 351.15625 138.914062 C 350.816406 141.265625 350.308594 143.582031 349.636719 145.863281 C 348.964844 148.144531 348.132812 150.363281 347.148438 152.527344 C 346.160156 154.6875 345.023438 156.769531 343.738281 158.769531 C 342.453125 160.769531 341.035156 162.671875 339.480469 164.46875 C 337.925781 166.265625 336.25 167.945312 334.457031 169.507812 C 332.664062 171.066406 330.765625 172.492188 328.769531 173.78125 C 326.773438 175.070312 324.695312 176.214844 322.535156 177.207031 C 317.125 179.695312 311.449219 181.15625 305.507812 181.589844 C 304.292969 181.679688 303.027344 181.730469 301.769531 181.730469 Z M 260.144531 93.328125 L 260.144531 131.8125 C 260.148438 133.796875 260.292969 135.769531 260.578125 137.730469 C 260.863281 139.691406 261.285156 141.625 261.847656 143.527344 C 262.40625 145.429688 263.097656 147.28125 263.921875 149.085938 C 264.746094 150.890625 265.695312 152.625 266.765625 154.292969 C 267.839844 155.960938 269.023438 157.546875 270.320312 159.046875 C 271.617188 160.546875 273.015625 161.945312 274.511719 163.25 C 276.007812 164.550781 277.589844 165.738281 279.253906 166.8125 C 280.917969 167.890625 282.652344 168.84375 284.453125 169.671875 C 289.949219 172.199219 295.71875 173.457031 301.769531 173.441406 C 302.8125 173.441406 303.863281 173.402344 304.882812 173.320312 C 309.835938 172.964844 314.566406 171.746094 319.078125 169.671875 C 320.878906 168.84375 322.613281 167.890625 324.28125 166.816406 C 325.945312 165.738281 327.527344 164.550781 329.023438 163.25 C 330.519531 161.949219 331.917969 160.546875 333.214844 159.046875 C 334.511719 157.546875 335.695312 155.964844 336.765625 154.292969 C 337.839844 152.625 338.789062 150.890625 339.613281 149.085938 C 340.4375 147.28125 341.128906 145.429688 341.6875 143.527344 C 342.25 141.625 342.671875 139.691406 342.957031 137.730469 C 343.242188 135.769531 343.386719 133.796875 343.390625 131.8125 L 343.390625 90.007812 C 343.191406 89.902344 342.992188 89.800781 342.792969 89.695312 C 336.621094 86.367188 331.480469 81.867188 327.363281 76.1875 C 319.996094 82.023438 311.914062 86.601562 303.121094 89.925781 C 296.105469 92.609375 288.847656 94.171875 281.347656 94.617188 C 278.355469 94.785156 275.363281 94.75 272.371094 94.511719 C 268.09375 94.152344 265.027344 93.867188 262.421875 93.582031 C 261.625 93.496094 260.867188 93.414062 260.144531 93.328125 Z M 260.144531 93.328125 " fill-opacity="1" fill-rule="nonzero"/><path fill="#2d4542" d="M 255.996094 127.898438 L 246.195312 127.898438 C 245.441406 127.898438 244.691406 127.859375 243.941406 127.785156 C 243.191406 127.710938 242.449219 127.597656 241.710938 127.453125 C 240.972656 127.304688 240.242188 127.121094 239.519531 126.902344 C 238.800781 126.683594 238.09375 126.429688 237.398438 126.140625 C 236.703125 125.851562 236.023438 125.53125 235.359375 125.175781 C 234.695312 124.820312 234.050781 124.433594 233.421875 124.011719 C 232.796875 123.59375 232.195312 123.148438 231.613281 122.667969 C 231.03125 122.191406 230.472656 121.6875 229.941406 121.152344 C 229.40625 120.621094 228.902344 120.0625 228.425781 119.480469 C 227.945312 118.898438 227.5 118.296875 227.078125 117.671875 C 226.660156 117.042969 226.273438 116.398438 225.917969 115.734375 C 225.5625 115.070312 225.242188 114.390625 224.953125 113.695312 C 224.664062 113 224.410156 112.292969 224.191406 111.574219 C 223.972656 110.851562 223.789062 110.121094 223.640625 109.382812 C 223.496094 108.644531 223.382812 107.902344 223.308594 107.152344 C 223.234375 106.402344 223.195312 105.652344 223.195312 104.898438 C 223.183594 102.320312 223.601562 99.8125 224.445312 97.375 C 225.292969 94.9375 226.515625 92.707031 228.121094 90.6875 C 228.675781 89.972656 229.273438 89.296875 229.917969 88.660156 C 230.9375 87.628906 232.050781 86.707031 233.246094 85.890625 C 234.445312 85.070312 235.710938 84.375 237.042969 83.796875 C 238.375 83.222656 239.746094 82.777344 241.164062 82.460938 C 242.578125 82.144531 244.011719 81.96875 245.464844 81.925781 C 246.035156 81.914062 246.585938 82.007812 247.121094 82.210938 C 249.390625 83.105469 252.503906 83.851562 256.636719 84.496094 C 257.125 84.574219 257.585938 84.730469 258.015625 84.972656 C 258.449219 85.210938 258.824219 85.519531 259.144531 85.894531 C 259.46875 86.269531 259.714844 86.691406 259.886719 87.152344 C 260.054688 87.617188 260.140625 88.097656 260.140625 88.589844 L 260.140625 123.753906 C 260.140625 124.027344 260.117188 124.296875 260.0625 124.5625 C 260.007812 124.828125 259.929688 125.089844 259.828125 125.339844 C 259.722656 125.589844 259.59375 125.832031 259.445312 126.054688 C 259.292969 126.28125 259.121094 126.492188 258.929688 126.683594 C 258.734375 126.875 258.527344 127.046875 258.300781 127.199219 C 258.074219 127.351562 257.835938 127.476562 257.582031 127.582031 C 257.332031 127.6875 257.074219 127.765625 256.804688 127.816406 C 256.539062 127.871094 256.269531 127.898438 255.996094 127.898438 Z M 244.957031 90.25 C 243.222656 90.390625 241.566406 90.828125 239.988281 91.5625 C 238.410156 92.292969 237.007812 93.277344 235.78125 94.511719 C 235.390625 94.898438 235.027344 95.304688 234.691406 95.738281 C 234.671875 95.761719 234.65625 95.785156 234.636719 95.808594 C 233.605469 97.097656 232.820312 98.523438 232.28125 100.085938 C 231.738281 101.644531 231.472656 103.25 231.480469 104.898438 C 231.480469 105.867188 231.574219 106.820312 231.765625 107.769531 C 231.953125 108.714844 232.234375 109.636719 232.605469 110.527344 C 232.972656 111.417969 233.425781 112.265625 233.964844 113.070312 C 234.5 113.871094 235.113281 114.617188 235.792969 115.296875 C 236.476562 115.980469 237.21875 116.589844 238.023438 117.128906 C 238.828125 117.664062 239.675781 118.117188 240.566406 118.488281 C 241.457031 118.859375 242.378906 119.136719 243.324219 119.328125 C 244.273438 119.515625 245.230469 119.609375 246.195312 119.609375 L 251.855469 119.609375 L 251.855469 92.074219 C 249.511719 91.636719 247.210938 91.03125 244.957031 90.25 Z M 244.957031 90.25 " fill-opacity="1" fill-rule="nonzero"/><path fill="#2d4542" d="M 356.164062 127.898438 L 347.539062 127.898438 C 347.265625 127.898438 346.996094 127.871094 346.730469 127.816406 C 346.460938 127.765625 346.203125 127.6875 345.953125 127.582031 C 345.699219 127.476562 345.460938 127.351562 345.234375 127.199219 C 345.011719 127.046875 344.800781 126.875 344.609375 126.683594 C 344.414062 126.492188 344.242188 126.28125 344.09375 126.054688 C 343.941406 125.828125 343.8125 125.589844 343.710938 125.339844 C 343.605469 125.089844 343.527344 124.828125 343.472656 124.5625 C 343.421875 124.296875 343.394531 124.027344 343.394531 123.753906 L 343.394531 87.363281 C 343.394531 87.015625 343.4375 86.675781 343.523438 86.339844 C 343.609375 86.003906 343.734375 85.6875 343.898438 85.382812 C 344.066406 85.078125 344.265625 84.800781 344.5 84.546875 C 344.734375 84.292969 345 84.070312 345.289062 83.882812 C 345.582031 83.695312 345.890625 83.546875 346.21875 83.4375 C 346.546875 83.324219 346.882812 83.257812 347.226562 83.230469 C 347.570312 83.207031 347.914062 83.222656 348.257812 83.28125 C 348.597656 83.34375 348.925781 83.445312 349.242188 83.585938 C 350.519531 84.15625 351.832031 84.628906 353.179688 85 L 353.246094 85.019531 C 353.675781 85.136719 354.105469 85.253906 354.535156 85.351562 C 355.761719 85.636719 357.054688 85.109375 358.402344 83.789062 C 359.207031 83 360.175781 82.605469 361.304688 82.605469 C 361.699219 82.605469 362.089844 82.660156 362.46875 82.765625 C 363.660156 83.113281 364.820312 83.550781 365.941406 84.082031 C 367.0625 84.613281 368.132812 85.230469 369.15625 85.9375 C 370.179688 86.640625 371.136719 87.421875 372.035156 88.28125 C 372.929688 89.136719 373.753906 90.0625 374.5 91.054688 C 375.246094 92.046875 375.910156 93.089844 376.488281 94.1875 C 377.070312 95.285156 377.558594 96.421875 377.953125 97.597656 C 378.351562 98.773438 378.648438 99.976562 378.851562 101.199219 C 379.054688 102.425781 379.160156 103.65625 379.164062 104.898438 C 379.175781 107.480469 378.761719 109.992188 377.914062 112.433594 C 377.070312 114.875 375.84375 117.109375 374.238281 119.128906 C 373.683594 119.847656 373.085938 120.523438 372.445312 121.160156 C 371.378906 122.234375 370.214844 123.191406 368.960938 124.03125 C 367.703125 124.871094 366.375 125.582031 364.980469 126.160156 C 363.582031 126.738281 362.140625 127.175781 360.65625 127.464844 C 359.175781 127.757812 357.675781 127.902344 356.164062 127.898438 Z M 351.679688 119.609375 L 356.164062 119.609375 C 358.117188 119.617188 359.996094 119.25 361.800781 118.503906 C 363.605469 117.757812 365.195312 116.695312 366.574219 115.308594 C 366.964844 114.925781 367.332031 114.515625 367.667969 114.082031 C 367.683594 114.058594 367.703125 114.035156 367.722656 114.011719 C 368.753906 112.71875 369.539062 111.289062 370.082031 109.726562 C 370.621094 108.164062 370.886719 106.554688 370.878906 104.898438 C 370.871094 103.476562 370.664062 102.082031 370.257812 100.71875 C 369.851562 99.351562 369.257812 98.074219 368.484375 96.882812 C 367.707031 95.6875 366.777344 94.628906 365.695312 93.703125 C 364.613281 92.777344 363.425781 92.023438 362.125 91.441406 C 360.769531 92.441406 359.265625 93.113281 357.617188 93.460938 C 355.96875 93.804688 354.320312 93.792969 352.675781 93.425781 C 352.355469 93.351562 352.019531 93.265625 351.679688 93.179688 Z M 351.679688 119.609375 " fill-opacity="1" fill-rule="nonzero"/><path fill="#2d4542" d="M 277.691406 94.726562 C 275.910156 94.726562 274.136719 94.652344 272.371094 94.511719 C 264.527344 93.863281 259.445312 93.316406 255.367188 92.6875 C 250.679688 91.957031 247.160156 91.105469 244.316406 90.011719 C 244.230469 89.984375 244.144531 89.953125 244.058594 89.921875 C 234.820312 86.261719 232.714844 79.707031 230.742188 70.847656 C 228.753906 61.804688 232.414062 38.039062 250.152344 21.433594 C 261.429688 10.882812 282.285156 0.0117188 317.621094 8.167969 C 353.46875 16.441406 365.613281 36.945312 369.664062 48.433594 C 375.449219 64.84375 371.796875 80.324219 365.953125 87.773438 C 365.421875 88.460938 364.84375 89.109375 364.21875 89.71875 C 364.125 89.8125 364.027344 89.898438 363.921875 89.980469 C 360.574219 93.125 356.59375 94.347656 352.675781 93.429688 C 350.347656 92.878906 348.09375 92.128906 345.902344 91.175781 C 344.835938 90.726562 343.789062 90.230469 342.796875 89.695312 C 336.625 86.367188 331.484375 81.867188 327.367188 76.191406 C 319.996094 82.027344 311.914062 86.605469 303.125 89.929688 C 294.9375 93.078125 286.460938 94.679688 277.691406 94.726562 Z M 361.324219 86.75 Z M 246.910156 82.132812 C 246.980469 82.160156 247.050781 82.183594 247.121094 82.210938 C 249.394531 83.105469 252.507812 83.851562 256.640625 84.496094 C 260.507812 85.09375 265.417969 85.621094 273.046875 86.253906 C 281.96875 86.972656 291.109375 85.601562 300.210938 82.167969 C 309.554688 78.671875 317.953125 73.605469 325.402344 66.96875 C 325.636719 66.746094 325.890625 66.550781 326.171875 66.382812 C 326.449219 66.21875 326.746094 66.085938 327.054688 65.992188 C 327.363281 65.894531 327.679688 65.835938 328.003906 65.8125 C 328.328125 65.792969 328.652344 65.808594 328.96875 65.863281 C 329.289062 65.914062 329.601562 66.003906 329.898438 66.132812 C 330.199219 66.257812 330.476562 66.417969 330.738281 66.609375 C 331 66.800781 331.234375 67.023438 331.445312 67.269531 C 331.65625 67.515625 331.832031 67.785156 331.980469 68.074219 C 333.730469 71.089844 335.855469 73.8125 338.351562 76.242188 C 340.851562 78.671875 343.632812 80.71875 346.695312 82.382812 C 347.488281 82.808594 348.300781 83.195312 349.128906 83.542969 L 349.210938 83.578125 C 350.949219 84.335938 352.738281 84.929688 354.585938 85.363281 C 355.765625 85.640625 357.054688 85.113281 358.402344 83.796875 C 358.476562 83.722656 358.554688 83.652344 358.636719 83.582031 C 358.90625 83.304688 359.164062 83.007812 359.402344 82.699219 C 359.410156 82.6875 359.417969 82.679688 359.425781 82.671875 C 364.066406 76.769531 366.386719 64.0625 361.847656 51.191406 C 357.59375 39.117188 346.144531 23.257812 315.757812 16.242188 C 290.242188 10.355469 270.078125 14.136719 255.816406 27.484375 C 241.390625 40.984375 237.152344 61.417969 238.835938 69.0625 C 240.671875 77.339844 241.976562 80.125 246.90625 82.132812 Z M 246.910156 82.132812 " fill-opacity="1" fill-rule="nonzero"/><g clip-path="url(#741be3ca50)"><path fill="#2d4542" d="M 237.304688 88.164062 C 237.304688 88.445312 237.25 88.71875 237.140625 88.984375 C 237.03125 89.246094 236.875 89.476562 236.675781 89.679688 C 236.472656 89.878906 236.242188 90.035156 235.980469 90.144531 C 235.714844 90.253906 235.441406 90.308594 235.15625 90.308594 C 234.875 90.308594 234.601562 90.253906 234.335938 90.144531 C 234.074219 90.035156 233.84375 89.878906 233.640625 89.679688 C 233.441406 89.476562 233.285156 89.246094 233.175781 88.984375 C 233.066406 88.71875 233.011719 88.445312 233.011719 88.164062 C 233.011719 87.878906 233.066406 87.605469 233.175781 87.339844 C 233.285156 87.078125 233.441406 86.847656 233.640625 86.644531 C 233.84375 86.445312 234.074219 86.289062 234.335938 86.179688 C 234.601562 86.070312 234.875 86.019531 235.15625 86.019531 C 235.441406 86.019531 235.714844 86.070312 235.980469 86.179688 C 236.242188 86.289062 236.472656 86.445312 236.675781 86.644531 C 236.875 86.847656 237.03125 87.078125 237.140625 87.339844 C 237.25 87.605469 237.304688 87.878906 237.304688 88.164062 Z M 237.304688 88.164062 " fill-opacity="1" fill-rule="nonzero"/></g></svg>