<svg xmlns="http://www.w3.org/2000/svg" xmlns:xlink="http://www.w3.org/1999/xlink" width="800" zoomAndPan="magnify" viewBox="0 0 600 449.999984" height="600" preserveAspectRatio="xMidYMid meet" version="1.0"><defs><clipPath id="95b524a772"><path d="M 76.40625 121 L 284 121 L 284 346 L 76.40625 346 Z M 76.40625 121 " clip-rule="nonzero"/></clipPath><clipPath id="a18e5aca91"><path d="M 355.339844 98.472656 L 397.339844 98.472656 L 397.339844 140.472656 L 355.339844 140.472656 Z M 355.339844 98.472656 " clip-rule="nonzero"/></clipPath></defs><path fill="#2d4542" d="M 523 171.621094 C 519.300781 176.5 515.601562 181.378906 511.902344 186.253906 C 511.683594 186.535156 511.457031 186.804688 511.03125 187.332031 C 507.488281 184.882812 503.945312 182.433594 500.210938 179.847656 C 491.003906 192.746094 482.003906 205.351562 472.890625 218.125 C 474.78125 219.625 476.515625 221 478.574219 222.632812 C 471.007812 233.277344 463.496094 243.859375 455.582031 254.996094 C 446.382812 248.488281 437.289062 242.039062 427.925781 235.394531 C 435.757812 224.398438 443.386719 213.722656 451.105469 202.894531 C 454.09375 204.992188 456.789062 206.882812 460.003906 209.144531 C 469.128906 196.363281 478.171875 183.703125 487.472656 170.660156 C 481.789062 166.652344 476.332031 162.726562 470.742188 158.996094 C 470.316406 158.707031 468.632812 159.550781 468.105469 160.277344 C 457.855469 174.515625 447.683594 188.820312 437.496094 203.109375 C 436.058594 205.136719 434.417969 207.058594 433.21875 209.21875 C 431.875 211.636719 430.324219 212.152344 427.710938 211.273438 C 414.449219 206.820312 401.140625 202.511719 387.851562 198.148438 C 370.957031 192.609375 354.050781 187.113281 337.183594 181.460938 C 335.5 180.890625 333.703125 179.765625 332.605469 178.382812 C 317.382812 159.117188 302.277344 139.753906 287.136719 120.417969 C 281.433594 113.132812 275.789062 105.816406 269.941406 98.65625 C 268.421875 96.804688 268.453125 95.699219 269.816406 93.796875 C 281.804688 77.140625 293.675781 60.398438 305.582031 43.675781 C 305.914062 43.210938 306.160156 42.695312 306.648438 41.871094 C 294.640625 33.28125 282.714844 24.765625 270.40625 15.972656 C 274.09375 10.703125 277.628906 5.566406 281.328125 0.5625 C 281.636719 0.128906 283.34375 0.171875 283.972656 0.617188 C 300.992188 12.675781 317.960938 24.828125 334.953125 36.941406 C 352.519531 49.476562 370.117188 61.96875 387.695312 74.484375 C 406.628906 87.96875 425.550781 101.476562 444.480469 114.960938 C 462.164062 127.546875 479.855469 140.113281 497.535156 152.703125 C 506.042969 158.746094 514.515625 164.832031 523 170.910156 C 523 171.148438 523 171.386719 523 171.621094 " fill-opacity="1" fill-rule="nonzero"/><g clip-path="url(#95b524a772)"><path fill="#2d4542" d="M 76.734375 121.71875 C 140.640625 121.730469 204.546875 121.761719 268.453125 121.679688 C 271.542969 121.667969 273.484375 122.484375 275.054688 125.160156 C 277.671875 129.605469 280.585938 133.882812 283.675781 138.6875 C 281.96875 138.78125 280.84375 138.894531 279.714844 138.894531 C 219.128906 138.90625 158.5625 138.90625 97.972656 138.875 C 95.554688 138.875 93.777344 138.699219 93.777344 142.242188 C 93.890625 203.535156 93.859375 264.824219 93.859375 326.117188 C 93.859375 326.703125 93.921875 327.292969 93.984375 328.316406 C 143.554688 328.316406 193.117188 328.316406 243.527344 328.316406 C 242.484375 329.433594 242.121094 330 241.613281 330.34375 C 234.578125 335.167969 227.550781 340.027344 220.429688 344.71875 C 219.324219 345.441406 217.753906 345.730469 216.398438 345.730469 C 170.433594 345.78125 124.46875 345.78125 78.492188 345.769531 C 77.914062 345.769531 77.324219 345.625 76.734375 345.554688 C 76.734375 270.941406 76.734375 196.332031 76.734375 121.71875 " fill-opacity="1" fill-rule="nonzero"/></g><path fill="#2d4542" d="M 422.171875 345.480469 C 416.714844 346.03125 411.816406 346.785156 408.074219 341.339844 C 405.058594 336.945312 400.996094 333.277344 396.800781 328.617188 C 400.117188 328.617188 402.421875 328.617188 405.097656 328.617188 C 405.097656 290.753906 405.097656 253.1875 405.097656 215.003906 C 410.761719 216.988281 415.992188 218.621094 421.011719 220.75 C 421.914062 221.132812 422.285156 223.601562 422.285156 225.101562 C 422.355469 258.210938 422.335938 291.332031 422.324219 324.441406 C 422.324219 330.261719 422.347656 336.066406 422.324219 341.886719 C 422.316406 343.042969 422.222656 344.199219 422.171875 345.480469 " fill-opacity="1" fill-rule="nonzero"/><path fill="#2d4542" d="M 322.890625 410.296875 C 324.484375 409.386719 325.847656 408.5 327.316406 407.828125 C 327.964844 407.527344 328.90625 407.464844 329.589844 407.683594 C 333.277344 408.828125 336.347656 408.066406 339.054688 405.265625 C 339.714844 404.582031 340.988281 404.117188 341.949219 404.160156 C 345.742188 404.34375 348.394531 402.773438 350.296875 399.558594 C 350.699219 398.878906 351.589844 398.359375 352.363281 398.0625 C 353.699219 397.554688 355.125 397.277344 356.777344 396.832031 C 359.660156 402.855469 362.605469 409.003906 365.550781 415.164062 C 368.164062 420.628906 370.871094 426.066406 373.300781 431.617188 C 373.859375 432.886719 373.992188 435.160156 373.238281 435.945312 C 372.464844 436.761719 370.242188 436.773438 368.898438 436.359375 C 364.671875 435.066406 360.550781 433.445312 356.40625 431.894531 C 353.914062 430.964844 352.355469 431.699219 351.496094 434.230469 C 350.039062 438.613281 348.601562 443.003906 346.898438 447.292969 C 346.433594 448.449219 345.027344 450.03125 344.097656 450 C 342.929688 449.957031 341.316406 448.707031 340.75 447.5625 C 334.703125 435.191406 328.824219 422.75 322.890625 410.296875 " fill-opacity="1" fill-rule="nonzero"/><path fill="#2d4542" d="M 315.511719 407.746094 C 317.640625 408.675781 319.460938 409.460938 321.570312 410.367188 C 321.371094 410.90625 321.136719 411.691406 320.792969 412.414062 C 315.246094 424.0625 309.726562 435.71875 304.0625 447.3125 C 303.472656 448.511719 301.820312 450.125 300.890625 449.988281 C 299.691406 449.824219 298.265625 448.273438 297.730469 446.984375 C 296.035156 442.902344 294.730469 438.664062 293.242188 434.488281 C 292.179688 431.492188 291 430.933594 287.992188 432.007812 C 283.652344 433.558594 279.34375 435.253906 274.953125 436.628906 C 273.878906 436.96875 272.039062 436.730469 271.375 436.007812 C 270.707031 435.265625 270.550781 433.371094 271.003906 432.378906 C 276.039062 421.550781 281.226562 410.804688 286.382812 400.035156 C 286.453125 399.878906 286.671875 399.796875 286.691406 399.777344 C 288.304688 400.035156 289.824219 400.160156 291.28125 400.550781 C 291.992188 400.75 292.746094 401.304688 293.171875 401.925781 C 295.363281 405.160156 298.378906 406.296875 302.171875 405.75 C 302.832031 405.65625 303.824219 405.585938 304.175781 405.957031 C 307.660156 409.71875 311.554688 410.132812 315.511719 407.746094 " fill-opacity="1" fill-rule="nonzero"/><path fill="#2d4542" d="M 319.710938 384.542969 C 301.902344 384.511719 287.828125 370.367188 287.859375 352.519531 C 287.890625 334.992188 302.191406 320.722656 319.738281 320.710938 C 337.339844 320.691406 351.683594 335.136719 351.628906 352.828125 C 351.589844 370.398438 337.316406 384.574219 319.710938 384.542969 " fill-opacity="1" fill-rule="nonzero"/><path fill="#2d4542" d="M 319.523438 393.421875 C 296.933594 393.140625 279.042969 375.007812 279.128906 352.476562 C 279.210938 329.929688 297.335938 311.867188 319.855469 311.917969 C 342.453125 311.96875 360.539062 330.261719 360.414062 352.941406 C 360.289062 375.386719 341.792969 393.691406 319.523438 393.421875 Z M 371.699219 353.769531 C 373.609375 351.558594 373.488281 349.429688 371.503906 347.34375 C 370.109375 345.875 369.652344 344.179688 370.613281 342.320312 C 372.019531 339.613281 371.171875 337.742188 368.980469 335.769531 C 367.867188 334.753906 367.101562 332.667969 367.203125 331.128906 C 367.390625 328.460938 366.863281 326.53125 364.320312 325.527344 C 362.046875 324.636719 360.992188 323.058594 361.015625 320.660156 C 361.023438 318.128906 359.722656 316.679688 357.261719 316.351562 C 354.84375 316.019531 353.429688 314.707031 352.910156 312.371094 C 352.363281 309.902344 350.8125 308.746094 348.335938 308.953125 C 345.78125 309.167969 344.160156 308.105469 343.042969 305.839844 C 341.96875 303.660156 340.160156 302.863281 337.753906 303.628906 C 335.5 304.351562 333.628906 303.898438 332.140625 301.902344 C 330.582031 299.796875 328.585938 299.453125 326.332031 300.878906 C 324.390625 302.109375 322.550781 302.027344 320.742188 300.550781 C 318.613281 298.8125 316.484375 298.957031 314.519531 300.839844 C 312.929688 302.359375 311.195312 302.667969 309.242188 301.6875 C 306.625 300.363281 304.632812 301.085938 303.039062 303.421875 C 301.820312 305.199219 300.179688 305.921875 298.027344 305.304688 C 295.445312 304.558594 293.636719 305.65625 292.695312 307.96875 C 291.785156 310.222656 290.371094 311.402344 287.910156 311.347656 C 285.253906 311.285156 283.746094 312.785156 283.394531 315.285156 C 283.066406 317.621094 281.835938 318.933594 279.625 319.429688 C 276.90625 320.039062 275.75 321.796875 275.976562 324.472656 C 276.171875 326.820312 275.179688 328.328125 273.082031 329.269531 C 270.757812 330.3125 269.992188 332.253906 270.734375 334.515625 C 271.550781 337.019531 270.871094 338.773438 268.9375 340.355469 C 267.148438 341.824219 266.675781 343.765625 267.875 345.769531 C 269.1875 347.960938 269.164062 349.851562 267.53125 351.867188 C 265.984375 353.78125 266.066406 355.816406 267.769531 357.625 C 269.433594 359.359375 269.847656 361.191406 268.742188 363.402344 C 267.5625 365.738281 268.152344 367.761719 270.300781 369.1875 C 272.246094 370.46875 272.886719 372.09375 272.390625 374.367188 C 271.832031 376.96875 272.730469 378.882812 275.386719 379.820312 C 277.566406 380.597656 278.519531 382.25 278.507812 384.523438 C 278.507812 387.148438 279.832031 388.65625 282.445312 388.976562 C 284.605469 389.246094 286 390.425781 286.476562 392.53125 C 287.105469 395.332031 288.800781 396.6875 291.652344 396.429688 C 293.863281 396.230469 295.363281 397.152344 296.261719 399.125 C 297.378906 401.535156 299.339844 402.390625 301.726562 401.617188 C 304.125 400.839844 305.808594 401.472656 307.308594 403.332031 C 308.941406 405.335938 310.964844 405.78125 313.199219 404.375 C 315.183594 403.113281 316.980469 403.257812 318.777344 404.707031 C 320.90625 406.410156 323.015625 406.308594 325 404.417969 C 326.675781 402.824219 328.421875 402.617188 330.539062 403.640625 C 332.792969 404.738281 334.664062 404.136719 336.398438 402.144531 C 337.214844 401.203125 338.402344 400.59375 339.292969 400.136719 C 339.683594 399.953125 340.378906 399.671875 340.8125 399.828125 L 340.789062 399.808594 C 344.335938 400.367188 345.976562 399.3125 347.21875 396.726562 C 347.816406 395.488281 349.738281 394.351562 351.1875 394.15625 C 353.964844 393.773438 355.785156 392.707031 356.167969 389.886719 C 356.488281 387.542969 357.769531 386.382812 360.011719 385.847656 C 362.480469 385.257812 363.773438 383.574219 363.503906 380.96875 C 363.257812 378.632812 364.195312 377.144531 366.261719 376.121094 C 368.640625 374.933594 369.582031 373.042969 368.691406 370.375 C 368 368.339844 368.484375 366.574219 370.261719 365.25 C 372.566406 363.535156 373.167969 361.519531 371.410156 359.039062 C 370.117188 357.222656 370.242188 355.445312 371.699219 353.769531 " fill-opacity="1" fill-rule="nonzero"/><path fill="#2d4542" d="M 348.324219 289.875 L 164.585938 289.875 L 164.585938 275.664062 L 348.324219 275.664062 L 348.324219 289.875 " fill-opacity="1" fill-rule="nonzero"/><path fill="#2d4542" d="M 348.324219 262.105469 L 164.585938 262.105469 L 164.585938 247.886719 L 348.324219 247.886719 L 348.324219 262.105469 " fill-opacity="1" fill-rule="nonzero"/><path fill="#2d4542" d="M 348.324219 233.71875 L 164.585938 233.71875 L 164.585938 219.511719 L 348.324219 219.511719 L 348.324219 233.71875 " fill-opacity="1" fill-rule="nonzero"/><path fill="#2d4542" d="M 272.679688 203.265625 L 164.585938 203.265625 L 164.585938 189.046875 L 272.679688 189.046875 L 272.679688 203.265625 " fill-opacity="1" fill-rule="nonzero"/><g clip-path="url(#a18e5aca91)"><path fill="#2d4542" d="M 397.308594 119.457031 C 397.308594 120.144531 397.273438 120.832031 397.207031 121.515625 C 397.136719 122.199219 397.039062 122.878906 396.902344 123.550781 C 396.769531 124.226562 396.601562 124.890625 396.402344 125.550781 C 396.203125 126.207031 395.972656 126.855469 395.710938 127.488281 C 395.445312 128.125 395.152344 128.742188 394.828125 129.351562 C 394.503906 129.957031 394.152344 130.546875 393.769531 131.117188 C 393.386719 131.6875 392.980469 132.238281 392.542969 132.769531 C 392.109375 133.300781 391.648438 133.8125 391.160156 134.296875 C 390.675781 134.78125 390.164062 135.242188 389.632812 135.679688 C 389.101562 136.117188 388.550781 136.523438 387.980469 136.90625 C 387.410156 137.289062 386.820312 137.640625 386.214844 137.964844 C 385.609375 138.289062 384.988281 138.582031 384.351562 138.84375 C 383.71875 139.109375 383.070312 139.339844 382.414062 139.539062 C 381.753906 139.738281 381.089844 139.90625 380.414062 140.039062 C 379.742188 140.175781 379.0625 140.273438 378.378906 140.34375 C 377.695312 140.410156 377.007812 140.441406 376.320312 140.441406 C 375.632812 140.441406 374.949219 140.410156 374.265625 140.34375 C 373.582031 140.273438 372.902344 140.175781 372.226562 140.039062 C 371.554688 139.90625 370.886719 139.738281 370.230469 139.539062 C 369.574219 139.339844 368.925781 139.109375 368.292969 138.84375 C 367.65625 138.582031 367.035156 138.289062 366.429688 137.964844 C 365.824219 137.640625 365.234375 137.289062 364.664062 136.90625 C 364.089844 136.523438 363.539062 136.117188 363.007812 135.679688 C 362.476562 135.242188 361.96875 134.78125 361.484375 134.296875 C 360.996094 133.8125 360.535156 133.300781 360.101562 132.769531 C 359.664062 132.238281 359.253906 131.6875 358.875 131.117188 C 358.492188 130.546875 358.140625 129.957031 357.816406 129.351562 C 357.492188 128.742188 357.195312 128.125 356.933594 127.488281 C 356.671875 126.855469 356.441406 126.207031 356.242188 125.550781 C 356.039062 124.890625 355.875 124.226562 355.738281 123.550781 C 355.605469 122.878906 355.503906 122.199219 355.4375 121.515625 C 355.371094 120.832031 355.335938 120.144531 355.335938 119.457031 C 355.335938 118.769531 355.371094 118.085938 355.4375 117.402344 C 355.503906 116.71875 355.605469 116.039062 355.738281 115.363281 C 355.875 114.691406 356.039062 114.023438 356.242188 113.367188 C 356.441406 112.707031 356.671875 112.0625 356.933594 111.425781 C 357.195312 110.792969 357.492188 110.171875 357.816406 109.566406 C 358.140625 108.960938 358.492188 108.371094 358.875 107.800781 C 359.253906 107.226562 359.664062 106.675781 360.101562 106.144531 C 360.535156 105.613281 360.996094 105.105469 361.484375 104.621094 C 361.96875 104.132812 362.476562 103.671875 363.007812 103.234375 C 363.539062 102.800781 364.089844 102.390625 364.664062 102.007812 C 365.234375 101.628906 365.824219 101.273438 366.429688 100.949219 C 367.035156 100.625 367.65625 100.332031 368.292969 100.070312 C 368.925781 99.808594 369.574219 99.574219 370.230469 99.375 C 370.886719 99.175781 371.554688 99.011719 372.226562 98.875 C 372.902344 98.742188 373.582031 98.640625 374.265625 98.574219 C 374.949219 98.507812 375.632812 98.472656 376.320312 98.472656 C 377.007812 98.472656 377.695312 98.507812 378.378906 98.574219 C 379.0625 98.640625 379.742188 98.742188 380.414062 98.875 C 381.089844 99.011719 381.753906 99.175781 382.414062 99.375 C 383.070312 99.574219 383.71875 99.808594 384.351562 100.070312 C 384.988281 100.332031 385.609375 100.625 386.214844 100.949219 C 386.820312 101.273438 387.410156 101.628906 387.980469 102.007812 C 388.550781 102.390625 389.101562 102.800781 389.632812 103.234375 C 390.164062 103.671875 390.675781 104.132812 391.160156 104.621094 C 391.648438 105.105469 392.109375 105.613281 392.542969 106.144531 C 392.980469 106.675781 393.386719 107.226562 393.769531 107.800781 C 394.152344 108.371094 394.503906 108.960938 394.828125 109.566406 C 395.152344 110.171875 395.445312 110.792969 395.710938 111.425781 C 395.972656 112.0625 396.203125 112.707031 396.402344 113.367188 C 396.601562 114.023438 396.769531 114.691406 396.902344 115.363281 C 397.039062 116.039062 397.136719 116.71875 397.207031 117.402344 C 397.273438 118.085938 397.308594 118.769531 397.308594 119.457031 Z M 397.308594 119.457031 " fill-opacity="1" fill-rule="nonzero"/></g></svg>