<svg xmlns="http://www.w3.org/2000/svg" xmlns:xlink="http://www.w3.org/1999/xlink" width="800" zoomAndPan="magnify" viewBox="0 0 600 449.999984" height="600" preserveAspectRatio="xMidYMid meet" version="1.0"><defs><clipPath id="2765d14d7a"><path d="M 233.011719 86.019531 L 237.511719 86.019531 L 237.511719 90.519531 L 233.011719 90.519531 Z M 233.011719 86.019531 " clip-rule="nonzero"/></clipPath><clipPath id="d905fc5203"><path d="M 5.574219 0 L 594.425781 0 L 594.425781 449.972656 L 5.574219 449.972656 Z M 5.574219 0 " clip-rule="nonzero"/></clipPath></defs><g clip-path="url(#2765d14d7a)"><path fill="#2d4542" d="M 237.304688 88.164062 C 237.304688 88.445312 237.25 88.71875 237.140625 88.984375 C 237.03125 89.246094 236.875 89.476562 236.675781 89.679688 C 236.472656 89.878906 236.242188 90.035156 235.980469 90.144531 C 235.714844 90.253906 235.441406 90.308594 235.15625 90.308594 C 234.875 90.308594 234.601562 90.253906 234.335938 90.144531 C 234.074219 90.035156 233.84375 89.878906 233.640625 89.679688 C 233.441406 89.476562 233.285156 89.246094 233.175781 88.984375 C 233.066406 88.71875 233.011719 88.445312 233.011719 88.164062 C 233.011719 87.878906 233.066406 87.605469 233.175781 87.339844 C 233.285156 87.078125 233.441406 86.847656 233.640625 86.644531 C 233.84375 86.445312 234.074219 86.289062 234.335938 86.179688 C 234.601562 86.070312 234.875 86.019531 235.15625 86.019531 C 235.441406 86.019531 235.714844 86.070312 235.980469 86.179688 C 236.242188 86.289062 236.472656 86.445312 236.675781 86.644531 C 236.875 86.847656 237.03125 87.078125 237.140625 87.339844 C 237.25 87.605469 237.304688 87.878906 237.304688 88.164062 Z M 237.304688 88.164062 " fill-opacity="1" fill-rule="nonzero"/></g><path fill="#2d4542" d="M 300 120.828125 C 213.960938 120.828125 161.117188 147.796875 161.117188 167.125 C 161.117188 186.449219 213.960938 213.417969 300 213.417969 C 386.035156 213.417969 438.878906 186.449219 438.878906 167.125 C 438.878906 147.796875 386.035156 120.828125 300 120.828125 " fill-opacity="1" fill-rule="nonzero"/><g clip-path="url(#d905fc5203)"><path fill="#2d4542" d="M 577.757812 329.148438 C 577.757812 335.535156 572.574219 340.722656 566.1875 340.722656 C 559.800781 340.722656 554.613281 335.535156 554.613281 329.148438 L 554.613281 228.234375 C 530.832031 257.949219 490.027344 282.371094 438.457031 298.128906 C 438.589844 298.832031 438.878906 299.476562 438.878906 300.21875 L 438.878906 421.738281 C 438.878906 428.121094 433.691406 433.3125 427.304688 433.3125 C 420.921875 433.3125 415.730469 428.121094 415.730469 421.738281 L 415.730469 304.335938 C 380.65625 312.835938 341.550781 317.578125 300 317.578125 C 258.449219 317.578125 219.339844 312.835938 184.265625 304.335938 L 184.265625 421.738281 C 184.265625 428.121094 179.078125 433.3125 172.691406 433.3125 C 166.304688 433.3125 161.117188 428.121094 161.117188 421.738281 L 161.117188 300.21875 C 161.117188 299.476562 161.40625 298.832031 161.539062 298.128906 C 109.96875 282.371094 69.167969 257.949219 45.386719 228.234375 L 45.386719 329.148438 C 45.386719 335.535156 40.195312 340.722656 33.808594 340.722656 C 27.425781 340.722656 22.242188 335.535156 22.242188 329.148438 L 22.242188 167.125 C 22.242188 82.757812 144.242188 16.671875 300 16.671875 C 455.753906 16.671875 577.757812 82.757812 577.757812 167.125 Z M 300 0.00390625 C 132.148438 0.00390625 5.574219 71.847656 5.574219 167.125 L 5.574219 329.148438 C 5.574219 344.722656 18.242188 357.394531 33.808594 357.394531 C 49.386719 357.394531 62.050781 344.722656 62.050781 329.148438 L 62.050781 268.003906 C 84.195312 285.132812 112.105469 299.570312 144.453125 310.539062 L 144.453125 421.730469 C 144.453125 437.304688 157.121094 449.972656 172.691406 449.972656 C 188.265625 449.972656 200.933594 437.304688 200.933594 421.730469 L 200.933594 325.21875 C 231.640625 331.058594 264.898438 334.242188 300 334.242188 C 335.101562 334.242188 368.359375 331.058594 399.066406 325.214844 L 399.066406 421.730469 C 399.066406 437.304688 411.734375 449.972656 427.300781 449.972656 C 442.875 449.972656 455.542969 437.304688 455.542969 421.730469 L 455.542969 310.539062 C 487.898438 299.5625 515.808594 285.132812 537.949219 268 L 537.949219 329.148438 C 537.949219 344.722656 550.609375 357.394531 566.183594 357.394531 C 581.75 357.394531 594.425781 344.722656 594.425781 329.148438 L 594.425781 167.125 C 594.425781 71.847656 467.847656 0.00390625 300 0.00390625 " fill-opacity="1" fill-rule="nonzero"/></g><path fill="#2d4542" d="M 300 236.566406 C 221.4375 236.566406 137.972656 212.238281 137.972656 167.125 C 137.972656 122.011719 221.4375 97.683594 300 97.683594 C 378.558594 97.683594 462.023438 122.011719 462.023438 167.125 C 462.023438 212.238281 378.558594 236.566406 300 236.566406 Z M 300 39.816406 C 162 39.816406 45.386719 98.125 45.386719 167.125 C 45.386719 236.125 162 294.429688 300 294.429688 C 437.996094 294.429688 554.613281 236.125 554.613281 167.125 C 554.613281 98.125 437.996094 39.816406 300 39.816406 " fill-opacity="1" fill-rule="nonzero"/></svg>