<svg xmlns="http://www.w3.org/2000/svg" xmlns:xlink="http://www.w3.org/1999/xlink" width="800" zoomAndPan="magnify" viewBox="0 0 600 449.999984" height="600" preserveAspectRatio="xMidYMid meet" version="1.0"><defs><clipPath id="3c71be0449"><path d="M 426.457031 110.253906 L 432.457031 110.253906 L 432.457031 116.253906 L 426.457031 116.253906 Z M 426.457031 110.253906 " clip-rule="nonzero"/></clipPath><clipPath id="1251293632"><path d="M 84.28125 12 L 515.53125 12 L 515.53125 450 L 84.28125 450 Z M 84.28125 12 " clip-rule="nonzero"/></clipPath></defs><g clip-path="url(#3c71be0449)"><path fill="#2d4542" d="M 432.773438 113.414062 C 432.773438 113.832031 432.691406 114.234375 432.53125 114.625 C 432.371094 115.011719 432.144531 115.351562 431.847656 115.648438 C 431.550781 115.945312 431.210938 116.171875 430.824219 116.332031 C 430.4375 116.492188 430.035156 116.574219 429.613281 116.574219 C 429.195312 116.574219 428.792969 116.492188 428.40625 116.332031 C 428.019531 116.171875 427.675781 115.945312 427.382812 115.648438 C 427.085938 115.351562 426.855469 115.011719 426.695312 114.625 C 426.535156 114.234375 426.457031 113.832031 426.457031 113.414062 C 426.457031 112.996094 426.535156 112.59375 426.695312 112.207031 C 426.855469 111.820312 427.085938 111.476562 427.382812 111.179688 C 427.675781 110.882812 428.019531 110.65625 428.40625 110.496094 C 428.792969 110.335938 429.195312 110.253906 429.613281 110.253906 C 430.035156 110.253906 430.4375 110.335938 430.824219 110.496094 C 431.210938 110.65625 431.550781 110.882812 431.847656 111.179688 C 432.144531 111.476562 432.371094 111.820312 432.53125 112.207031 C 432.691406 112.59375 432.773438 112.996094 432.773438 113.414062 Z M 432.773438 113.414062 " fill-opacity="1" fill-rule="nonzero"/></g><g clip-path="url(#1251293632)"><path fill="#2d4542" d="M 514.554688 47.6875 C 514.289062 47.28125 513.972656 46.921875 513.601562 46.609375 C 513.230469 46.296875 512.820312 46.042969 512.371094 45.855469 C 511.925781 45.664062 511.460938 45.542969 510.976562 45.492188 C 510.492188 45.441406 510.011719 45.464844 509.535156 45.558594 C 446.488281 58.21875 431.546875 0.0429688 382.359375 15.589844 C 372.617188 18.515625 368.761719 22.8125 364.269531 30.761719 C 348.675781 58.332031 328.15625 67.144531 317.875 69.925781 L 317.972656 61.300781 C 336.816406 44.636719 325.089844 13.066406 299.636719 12.984375 C 273.738281 13.09375 262.289062 45.515625 281.960938 61.867188 L 282.046875 69.921875 C 271.761719 67.132812 251.234375 58.304688 235.660156 30.765625 C 231.164062 22.816406 227.308594 18.519531 217.566406 15.59375 C 168.410156 0.03125 153.398438 58.238281 90.390625 45.558594 C 89.914062 45.464844 89.433594 45.445312 88.949219 45.496094 C 88.464844 45.546875 88 45.664062 87.550781 45.855469 C 87.105469 46.046875 86.695312 46.296875 86.324219 46.609375 C 85.949219 46.921875 85.632812 47.285156 85.367188 47.691406 C 85.105469 48.101562 84.90625 48.539062 84.773438 49.007812 C 84.640625 49.472656 84.582031 49.953125 84.589844 50.4375 C 84.601562 50.921875 84.683594 51.398438 84.835938 51.859375 C 84.988281 52.320312 85.207031 52.75 85.488281 53.144531 C 85.785156 53.566406 89.703125 58.90625 98.882812 63.402344 C 105.300781 94.039062 130.800781 117.554688 167.578125 117.566406 C 177.152344 129.996094 199.53125 141.449219 227.347656 134.332031 C 228.964844 136.046875 230.703125 137.636719 232.558594 139.097656 C 229.53125 142.789062 227.425781 146.945312 226.238281 151.570312 C 204.289062 176.992188 212.933594 205.664062 243.992188 220.539062 C 207.511719 251.78125 235.40625 294.429688 271.207031 323.015625 C 251.800781 348.867188 256.386719 378.386719 280.746094 402.492188 C 281.75 405.46875 283.402344 408.023438 285.707031 410.15625 L 285.972656 434.863281 C 286.070312 443.210938 292.351562 450 299.96875 450 C 307.585938 450 313.863281 443.210938 313.964844 434.859375 L 314.269531 406.566406 C 341.273438 383.027344 349.105469 350.339844 328.0625 323.015625 C 363.886719 294.386719 391.777344 251.824219 355.28125 220.539062 C 386.332031 205.667969 394.992188 176.996094 373.035156 151.578125 C 371.890625 147.085938 369.867188 143.027344 366.972656 139.410156 C 368.976562 137.863281 370.847656 136.171875 372.585938 134.332031 C 400.503906 141.457031 422.78125 129.964844 432.351562 117.566406 C 469.148438 117.5625 494.640625 94.011719 501.050781 63.398438 C 510.226562 58.902344 514.148438 53.566406 514.445312 53.144531 C 514.726562 52.746094 514.941406 52.316406 515.09375 51.855469 C 515.246094 51.394531 515.328125 50.917969 515.335938 50.433594 C 515.347656 49.945312 515.285156 49.46875 515.152344 49.003906 C 515.019531 48.535156 514.820312 48.097656 514.554688 47.6875 Z M 372.730469 35.546875 C 376.378906 29.097656 378.453125 26.917969 385.152344 24.90625 C 424.464844 12.527344 439.25 57.035156 491.140625 57 C 473.460938 63.054688 446.023438 59.753906 428.132812 47.421875 C 413.140625 37.191406 388.683594 31.328125 375.984375 50.917969 C 369.972656 60.15625 348.664062 89.277344 317.628906 92.277344 L 317.761719 79.953125 C 328.621094 77.496094 354.15625 68.398438 372.730469 35.546875 Z M 346.21875 126.949219 C 335.460938 125.296875 325.710938 131.335938 323.46875 141.613281 C 321.386719 141.449219 319.265625 141.207031 317.109375 140.863281 L 317.527344 102.050781 C 323.234375 101.527344 328.792969 100.332031 334.210938 98.464844 C 339.625 96.59375 344.742188 94.109375 349.554688 91.007812 C 350.828125 97.691406 352.734375 104.191406 355.273438 110.503906 C 357.816406 116.816406 360.945312 122.820312 364.660156 128.523438 C 363.160156 130 361.554688 131.355469 359.84375 132.582031 C 355.765625 129.585938 351.222656 127.707031 346.21875 126.949219 Z M 317.007812 150.664062 C 319.171875 150.976562 321.316406 151.226562 323.425781 151.371094 C 325.371094 162.296875 335.046875 172.929688 345.808594 176.222656 C 346.949219 177.457031 347.898438 178.820312 348.65625 180.320312 C 347.195312 182.257812 340.703125 188.789062 316.523438 195.445312 Z M 299.632812 22.707031 C 300.21875 22.707031 300.804688 22.734375 301.390625 22.792969 C 301.972656 22.851562 302.554688 22.9375 303.128906 23.054688 C 303.703125 23.167969 304.273438 23.3125 304.832031 23.480469 C 305.394531 23.652344 305.945312 23.851562 306.488281 24.074219 C 307.03125 24.300781 307.558594 24.550781 308.078125 24.828125 C 308.59375 25.105469 309.097656 25.40625 309.585938 25.730469 C 310.074219 26.058594 310.542969 26.40625 310.996094 26.78125 C 311.449219 27.152344 311.886719 27.546875 312.300781 27.960938 C 312.714844 28.375 313.109375 28.808594 313.480469 29.261719 C 313.851562 29.71875 314.203125 30.1875 314.527344 30.675781 C 314.855469 31.164062 315.15625 31.664062 315.433594 32.183594 C 315.710938 32.699219 315.960938 33.230469 316.183594 33.773438 C 316.410156 34.3125 316.609375 34.867188 316.777344 35.425781 C 316.949219 35.988281 317.09375 36.558594 317.207031 37.132812 C 317.320312 37.707031 317.410156 38.289062 317.464844 38.871094 C 317.523438 39.457031 317.554688 40.039062 317.554688 40.628906 C 316.570312 64.402344 282.695312 64.394531 281.714844 40.628906 C 281.714844 40.039062 281.742188 39.457031 281.800781 38.871094 C 281.859375 38.289062 281.945312 37.707031 282.0625 37.132812 C 282.175781 36.558594 282.316406 35.988281 282.488281 35.425781 C 282.660156 34.867188 282.859375 34.3125 283.082031 33.773438 C 283.308594 33.230469 283.558594 32.699219 283.835938 32.183594 C 284.113281 31.667969 284.414062 31.164062 284.738281 30.675781 C 285.066406 30.1875 285.414062 29.71875 285.785156 29.265625 C 286.160156 28.808594 286.550781 28.375 286.96875 27.960938 C 287.382812 27.546875 287.816406 27.152344 288.269531 26.78125 C 288.722656 26.40625 289.195312 26.058594 289.683594 25.734375 C 290.167969 25.40625 290.671875 25.105469 291.191406 24.828125 C 291.707031 24.550781 292.238281 24.300781 292.777344 24.074219 C 293.320312 23.851562 293.871094 23.652344 294.433594 23.484375 C 294.996094 23.3125 295.5625 23.167969 296.136719 23.054688 C 296.714844 22.9375 297.292969 22.851562 297.878906 22.792969 C 298.460938 22.734375 299.046875 22.707031 299.632812 22.707031 Z M 299.632812 68.273438 C 302.554688 68.273438 305.402344 67.820312 308.179688 66.910156 L 306.769531 197.898438 C 304.511719 198.417969 302.132812 198.933594 299.632812 199.449219 C 297.375 198.988281 295.210938 198.519531 293.148438 198.050781 L 291.738281 67.117188 C 294.3125 67.886719 296.945312 68.273438 299.632812 68.273438 Z M 239.753906 132.351562 C 238.164062 131.1875 236.664062 129.910156 235.261719 128.527344 C 238.976562 122.824219 242.105469 116.816406 244.644531 110.503906 C 247.1875 104.191406 249.09375 97.691406 250.367188 91.007812 C 255.179688 94.109375 260.296875 96.59375 265.710938 98.460938 C 271.125 100.328125 276.683594 101.523438 282.386719 102.050781 L 282.804688 140.867188 C 280.433594 141.246094 278.101562 141.503906 275.804688 141.664062 C 272.210938 125.746094 253.417969 122.542969 239.753906 132.351562 Z M 266.71875 167.988281 C 269.023438 165.738281 270.949219 163.203125 272.503906 160.382812 C 274.054688 157.5625 275.164062 154.574219 275.832031 151.425781 C 278.160156 151.285156 280.527344 151.039062 282.917969 150.6875 L 283.402344 195.632812 C 258.679688 188.914062 252.085938 182.28125 250.613281 180.324219 C 251.371094 178.824219 252.320312 177.460938 253.460938 176.226562 C 258.542969 174.546875 262.960938 171.800781 266.71875 167.988281 Z M 168.632812 35.058594 C 189.726562 20.308594 203.273438 21.464844 214.769531 24.90625 C 221.46875 26.917969 223.542969 29.097656 227.191406 35.546875 C 245.75 68.371094 271.300781 77.484375 282.152344 79.949219 L 282.285156 92.277344 C 251.261719 89.269531 229.953125 60.160156 223.941406 50.917969 C 211.226562 31.324219 186.789062 37.195312 171.792969 47.421875 C 153.949219 59.75 126.394531 63.050781 108.789062 57 C 133.839844 56.671875 152.894531 46.066406 168.632812 35.058594 Z M 110.011719 67.421875 C 118.007812 69.578125 129.519531 70.183594 139.109375 69.125 C 145.875 68.394531 152.460938 66.886719 158.871094 64.601562 C 165.28125 62.316406 171.335938 59.316406 177.039062 55.605469 C 184.671875 50.707031 195.507812 45.707031 205.207031 48.339844 C 195.800781 80.269531 173.765625 102.589844 168.179688 107.863281 C 128.808594 107.109375 114.859375 82.5 110.011719 67.421875 Z M 176.667969 113.214844 C 184.617188 105.421875 204.128906 84.019531 213.769531 53.613281 C 219.847656 61.644531 226.253906 72.46875 241.496094 84.722656 C 238.964844 104.757812 229.214844 120.183594 226.15625 124.605469 C 197.910156 131.636719 182.378906 119.339844 176.667969 113.214844 Z M 224.152344 185.289062 C 222.488281 175.925781 225.914062 166.4375 234.324219 157.089844 C 234.929688 156.421875 235.316406 155.644531 235.484375 154.757812 C 236.046875 152.234375 237 149.871094 238.339844 147.664062 C 239.683594 145.457031 241.34375 143.523438 243.324219 141.863281 C 251.824219 133.960938 268.128906 133.628906 266.4375 148.632812 C 265.453125 156.765625 257.613281 165.246094 249.507812 167.246094 C 248.609375 167.484375 247.847656 167.945312 247.210938 168.621094 C 242.308594 173.867188 240.160156 178.394531 240.824219 182.085938 C 241.398438 185.285156 245.914062 195.089844 278.109375 204.261719 C 269.453125 206.582031 261.191406 209.886719 253.324219 214.175781 C 235.785156 206.472656 226.230469 197.007812 224.152344 185.289062 Z M 316.035156 241.496094 C 329.578125 245.929688 335.199219 250.859375 335.808594 254 C 336.96875 259.984375 328.902344 272.066406 315.5625 284.929688 Z M 305.742188 293.714844 C 303.71875 295.402344 301.675781 297.035156 299.628906 298.597656 C 297.773438 297.183594 295.953125 295.742188 294.175781 294.28125 L 293.582031 238.605469 C 297.585938 237.625 302.226562 236.808594 306.363281 235.960938 Z M 283.882812 241.296875 L 284.359375 285.570312 C 270.988281 272.785156 262.257812 260.160156 263.449219 254.011719 C 264.144531 250.433594 270.824219 245.507812 283.886719 241.289062 Z M 299.960938 440.265625 C 297.644531 440.265625 295.726562 437.785156 295.691406 434.746094 L 295.476562 414.769531 C 298.566406 415.1875 301.5625 414.820312 304.460938 413.671875 L 304.230469 434.742188 C 304.195312 437.785156 302.277344 440.265625 299.960938 440.265625 Z M 310.84375 396.429688 C 308.496094 398.734375 305.902344 401.050781 303.128906 403.324219 C 301.925781 404.316406 300.550781 404.917969 299.003906 405.121094 C 294.25 405.910156 289.757812 401.882812 289.480469 397.15625 C 289.410156 396.429688 289.429688 395.703125 289.535156 394.980469 C 289.644531 394.257812 289.835938 393.558594 290.117188 392.882812 C 290.394531 392.207031 290.75 391.574219 291.183594 390.984375 C 291.617188 390.394531 292.113281 389.867188 292.675781 389.398438 C 296.503906 386.304688 300.046875 382.914062 303.304688 379.226562 C 315.480469 365.527344 316.675781 351.734375 306.402344 339.148438 C 307.957031 337.824219 309.605469 336.632812 311.351562 335.574219 C 314.109375 333.703125 316.367188 332.105469 320.425781 329.039062 C 337.027344 351.488281 332.308594 375.460938 310.84375 396.429688 Z M 303.667969 356.050781 C 303.9375 360.164062 302.035156 364.414062 299.625 368.0625 C 294.191406 360.191406 294.414062 353.222656 299.636719 346.320312 C 301.703125 349.164062 303.429688 352.535156 303.667969 356.050781 Z M 361.980469 248.671875 C 368.375 275.945312 331.617188 310.292969 305.789062 327.59375 L 305.75 327.617188 C 303.457031 329.046875 301.296875 330.65625 299.273438 332.449219 C 285.976562 344.140625 280.277344 359.117188 293.199219 375.816406 C 289.28125 380.074219 283.648438 383.074219 281.347656 388.652344 C 258.90625 361.5625 268.957031 331.164062 295.492188 313.425781 C 311.40625 302.839844 348.253906 273.714844 345.359375 252.15625 C 343.578125 242.972656 332.160156 236.761719 320.558594 232.761719 C 328.898438 230.726562 337.074219 228.164062 345.082031 225.074219 C 354.609375 231.414062 360.144531 239.15625 361.980469 248.671875 Z M 375.109375 185.289062 C 372.945312 197.492188 362.667969 207.257812 343.714844 215.132812 C 332.839844 219.433594 321.679688 222.789062 310.234375 225.195312 C 292.351562 229.09375 258.648438 233.851562 253.898438 252.160156 C 250.871094 267.835938 273.980469 290.78125 291.378906 304.507812 C 286.363281 307.710938 281.765625 311.429688 277.585938 315.671875 C 254.546875 297.371094 232.226562 270.03125 237.285156 248.671875 C 239.929688 232.257812 256.722656 221.378906 273.253906 215.992188 C 284.675781 211.796875 300.195312 209.582031 312.558594 206.527344 L 312.578125 206.527344 C 353.867188 196.394531 358.03125 184.507812 358.433594 182.109375 C 359.105469 178.414062 356.957031 173.882812 352.046875 168.636719 C 351.414062 167.960938 350.648438 167.5 349.75 167.261719 C 345.757812 166.136719 342.316406 164.089844 339.417969 161.121094 C 333.625 155.480469 329.761719 145.273438 335.40625 139.179688 C 337.585938 136.886719 341.464844 136.050781 344.875 136.59375 C 353.40625 137.601562 362.304688 146.234375 363.773438 154.777344 C 363.945312 155.660156 364.332031 156.441406 364.933594 157.109375 C 373.347656 166.445312 376.773438 175.929688 375.113281 185.285156 Z M 373.75 124.605469 C 369.699219 118.636719 366.382812 112.28125 363.792969 105.546875 C 361.203125 98.8125 359.410156 91.871094 358.417969 84.726562 C 373.679688 72.457031 380.058594 61.660156 386.152344 53.613281 C 395.78125 83.992188 415.273438 105.386719 423.234375 113.195312 C 417.503906 119.265625 401.863281 131.585938 373.757812 124.605469 Z M 431.738281 107.867188 C 426.144531 102.585938 404.117188 80.269531 394.707031 48.347656 C 404.40625 45.714844 415.242188 50.714844 422.875 55.617188 C 441.753906 68.550781 470.015625 72.773438 489.902344 67.429688 C 485.058594 82.503906 471.113281 107.109375 431.742188 107.867188 Z M 431.738281 107.867188 " fill-opacity="1" fill-rule="nonzero"/></g></svg>