<svg xmlns="http://www.w3.org/2000/svg" xmlns:xlink="http://www.w3.org/1999/xlink" width="500" zoomAndPan="magnify" viewBox="0 0 375 374.999991" height="500" preserveAspectRatio="xMidYMid meet" version="1.0"><defs><clipPath id="a1f9810636"><path d="M 168.519531 83.917969 L 273.925781 83.917969 L 273.925781 375 L 168.519531 375 Z M 168.519531 83.917969 " clip-rule="nonzero"/></clipPath><clipPath id="c3a46e233f"><path d="M 101.015625 48 L 170 48 L 170 87 L 101.015625 87 Z M 101.015625 48 " clip-rule="nonzero"/></clipPath><clipPath id="8479ae3db6"><path d="M 214.652344 23.957031 L 241.652344 23.957031 L 241.652344 50.957031 L 214.652344 50.957031 Z M 214.652344 23.957031 " clip-rule="nonzero"/></clipPath></defs><path fill="#2d4542" d="M 245.257812 86.832031 L 245.40625 86.832031 C 247.34375 86.824219 248.902344 86.09375 250.320312 84.53125 C 257.320312 76.8125 256.761719 53.148438 255.957031 44.679688 C 255.945312 44.601562 255.941406 44.515625 255.941406 44.433594 L 255.820312 29.761719 C 255.679688 13.351562 242.21875 0 225.808594 0 C 209.257812 0 195.792969 13.464844 195.792969 30.011719 L 195.792969 44.410156 C 195.792969 49.355469 197.292969 57.683594 201.515625 64.890625 C 209.214844 78.023438 226.78125 86.828125 245.257812 86.832031 " fill-opacity="1" fill-rule="nonzero"/><g clip-path="url(#a1f9810636)"><path fill="#2d4542" d="M 272.957031 363.53125 C 272.3125 362.351562 271.65625 361.183594 271.007812 360.023438 C 268.976562 356.40625 267.0625 352.988281 265.550781 349.523438 C 261.800781 340.929688 260.523438 332.5625 258.90625 321.96875 C 257.402344 312.101562 255.695312 300.914062 251.476562 286.246094 C 247.277344 271.625 241.144531 261.867188 235.734375 253.257812 C 229.683594 243.625 224.457031 235.308594 224.457031 223.765625 C 226.363281 156.121094 221.648438 144.941406 214.238281 135.597656 C 213.269531 134.375 213.472656 132.597656 214.695312 131.628906 C 215.917969 130.660156 217.695312 130.863281 218.667969 132.089844 C 226.847656 142.40625 232.066406 154.367188 230.105469 223.847656 C 230.109375 233.679688 234.703125 240.992188 240.519531 250.25 C 243.59375 255.144531 246.628906 260.066406 249.25 265.226562 C 250.789062 268.253906 252.195312 271.347656 253.445312 274.503906 C 254.246094 276.523438 255.082031 282.507812 258.039062 282.289062 C 260.78125 282.085938 260.480469 278.15625 260.644531 276.257812 C 260.910156 273.179688 261.175781 270.101562 261.445312 267.019531 C 262.625 253.441406 263.738281 240.613281 264.382812 232.484375 C 266.984375 199.5625 266.542969 191.800781 263.414062 178.410156 C 259.679688 162.4375 253.28125 150.480469 240.359375 129.722656 C 231.179688 114.976562 230.820312 114.402344 230.820312 102.742188 C 230.820312 100.433594 231.316406 97.511719 231.890625 94.890625 C 232.324219 92.914062 231.105469 90.960938 229.144531 90.460938 C 223.765625 89.097656 218.707031 87.070312 214.136719 84.464844 C 211.917969 83.203125 209.148438 84.519531 208.625 87.019531 C 208.402344 88.082031 208.140625 89.175781 207.832031 90.289062 C 205.929688 97.183594 200.859375 102.746094 194.984375 109.1875 C 183.613281 121.660156 169.457031 137.183594 171.082031 171.140625 C 171.21875 173.992188 171.441406 176.703125 171.730469 179.292969 C 173.777344 197.410156 179.375 209.417969 184.808594 221.082031 C 190.425781 233.140625 195.746094 244.5625 196.183594 261.097656 C 196.359375 267.664062 194.875 274.183594 191.757812 279.960938 C 183.394531 295.472656 168.582031 308.296875 168.582031 342.570312 C 168.582031 351.664062 169.90625 361.21875 172.308594 369.46875 C 173.257812 372.726562 176.308594 375 179.722656 375 L 248.082031 375 C 250.496094 375 252.292969 372.769531 251.761719 370.414062 C 250.6875 365.667969 249.191406 359.949219 247.636719 356.777344 C 245.007812 351.417969 240.054688 343.4375 234.316406 334.199219 C 223.554688 316.867188 210.164062 295.296875 201.851562 274.964844 C 201.199219 273.375 202.105469 271.539062 203.851562 271.136719 C 205.226562 270.820312 206.601562 271.65625 207.136719 272.960938 C 215.273438 292.816406 228.492188 314.105469 239.117188 331.21875 C 244.933594 340.585938 249.957031 348.675781 252.710938 354.289062 C 254.847656 358.648438 256.769531 366.679688 257.898438 372.011719 C 258.265625 373.757812 259.800781 375 261.582031 375 L 265.847656 375 C 268.441406 375 270.988281 373.882812 272.484375 371.765625 C 274.230469 369.289062 274.390625 366.152344 272.957031 363.53125 " fill-opacity="1" fill-rule="nonzero"/></g><path fill="#2d4542" d="M 152.746094 222.785156 C 154.316406 226.109375 155.796875 229.25 157.15625 232.46875 C 158.039062 234.566406 160.085938 235.921875 162.363281 235.921875 C 163.121094 235.921875 163.859375 235.773438 164.558594 235.476562 C 167.429688 234.265625 168.78125 230.945312 167.570312 228.074219 C 166.113281 224.625 164.578125 221.371094 162.945312 217.914062 C 161.859375 215.609375 160.757812 213.273438 159.671875 210.855469 C 158.761719 208.828125 156.738281 207.515625 154.511719 207.515625 C 153.714844 207.515625 152.9375 207.683594 152.203125 208.011719 C 150.828125 208.628906 149.773438 209.746094 149.234375 211.160156 C 148.699219 212.566406 148.742188 214.105469 149.359375 215.480469 C 150.464844 217.945312 151.589844 220.328125 152.746094 222.785156 " fill-opacity="1" fill-rule="nonzero"/><path fill="#2d4542" d="M 173.132812 96.960938 C 174.078125 97.613281 175.183594 97.957031 176.332031 97.957031 C 178.195312 97.957031 179.9375 97.042969 180.992188 95.507812 C 183.574219 91.75 185.210938 88.398438 186.136719 84.949219 C 186.949219 81.933594 187.550781 78.695312 187.925781 75.324219 C 188.089844 73.824219 187.660156 72.347656 186.71875 71.171875 C 185.773438 69.992188 184.425781 69.253906 182.933594 69.089844 C 182.71875 69.0625 182.503906 69.050781 182.292969 69.050781 C 179.414062 69.050781 177.007812 71.21875 176.691406 74.085938 C 176.382812 76.886719 175.886719 79.550781 175.226562 82.007812 C 174.640625 84.179688 173.511719 86.4375 171.679688 89.101562 C 170.824219 90.347656 170.503906 91.847656 170.777344 93.332031 C 171.050781 94.816406 171.886719 96.105469 173.132812 96.960938 " fill-opacity="1" fill-rule="nonzero"/><path fill="#2d4542" d="M 162.164062 278.710938 C 161.257812 278.136719 160.214844 277.832031 159.144531 277.832031 C 157.195312 277.832031 155.410156 278.816406 154.367188 280.460938 L 152.175781 283.894531 C 149.15625 288.597656 146.308594 293.039062 144.589844 296.757812 C 143.960938 298.128906 143.898438 299.664062 144.421875 301.078125 C 144.941406 302.496094 145.984375 303.625 147.355469 304.253906 C 148.101562 304.601562 148.898438 304.777344 149.71875 304.777344 C 151.917969 304.777344 153.933594 303.488281 154.855469 301.492188 C 156.242188 298.484375 158.886719 294.359375 161.6875 289.992188 C 162.421875 288.847656 163.171875 287.683594 163.914062 286.507812 C 164.722656 285.234375 164.984375 283.71875 164.65625 282.246094 C 164.324219 280.773438 163.441406 279.519531 162.164062 278.710938 " fill-opacity="1" fill-rule="nonzero"/><path fill="#2d4542" d="M 168.035156 102.542969 C 167.023438 101.710938 165.75 101.253906 164.445312 101.253906 C 162.746094 101.253906 161.15625 102.003906 160.078125 103.3125 C 156.78125 107.320312 152.507812 112.789062 148.738281 119.578125 C 147.222656 122.300781 148.207031 125.746094 150.929688 127.261719 C 151.769531 127.730469 152.71875 127.972656 153.671875 127.972656 C 155.726562 127.972656 157.617188 126.859375 158.617188 125.070312 C 161.949219 119.070312 165.8125 114.132812 168.804688 110.5 C 170.785156 108.09375 170.4375 104.523438 168.035156 102.542969 " fill-opacity="1" fill-rule="nonzero"/><path fill="#2d4542" d="M 143.828125 163.941406 C 146.84375 163.941406 149.324219 161.582031 149.472656 158.566406 C 149.769531 152.433594 150.652344 146.585938 152.097656 141.183594 C 152.902344 138.171875 151.109375 135.070312 148.097656 134.261719 C 147.621094 134.136719 147.128906 134.074219 146.640625 134.074219 C 144.085938 134.074219 141.839844 135.796875 141.179688 138.265625 C 139.53125 144.4375 138.519531 151.082031 138.179688 158.015625 C 138.109375 159.523438 138.625 160.96875 139.640625 162.089844 C 140.652344 163.207031 142.042969 163.863281 143.558594 163.9375 L 143.828125 163.941406 " fill-opacity="1" fill-rule="nonzero"/><path fill="#2d4542" d="M 142.53125 197.078125 C 143.214844 199.503906 145.453125 201.199219 147.96875 201.199219 C 148.488281 201.199219 149.003906 201.125 149.503906 200.984375 C 150.957031 200.574219 152.164062 199.621094 152.902344 198.304688 C 153.640625 196.988281 153.820312 195.464844 153.410156 194.011719 C 151.820312 188.378906 150.726562 182.648438 150.066406 176.484375 C 149.757812 173.605469 147.347656 171.4375 144.460938 171.4375 C 144.253906 171.4375 144.046875 171.445312 143.839844 171.46875 C 140.742188 171.800781 138.496094 174.59375 138.828125 177.691406 C 139.558594 184.496094 140.769531 190.835938 142.53125 197.078125 " fill-opacity="1" fill-rule="nonzero"/><path fill="#2d4542" d="M 173.296875 268.632812 C 174.179688 265.96875 174.609375 263.609375 174.609375 261.414062 C 174.609375 256.472656 174.21875 251.835938 173.414062 247.242188 C 172.9375 244.53125 170.601562 242.566406 167.859375 242.566406 C 167.53125 242.566406 167.199219 242.59375 166.875 242.652344 C 165.386719 242.914062 164.089844 243.738281 163.222656 244.972656 C 162.355469 246.207031 162.023438 247.707031 162.285156 249.195312 C 162.972656 253.136719 163.308594 257.132812 163.308594 261.414062 C 163.308594 262.351562 163.050781 263.617188 162.570312 265.070312 C 162.09375 266.503906 162.203125 268.035156 162.882812 269.382812 C 163.558594 270.734375 164.71875 271.738281 166.148438 272.214844 C 166.726562 272.40625 167.328125 272.503906 167.933594 272.503906 C 170.375 272.503906 172.527344 270.945312 173.296875 268.632812 " fill-opacity="1" fill-rule="nonzero"/><g clip-path="url(#c3a46e233f)"><path fill="#2d4542" d="M 147.238281 72.867188 L 143.015625 76.132812 C 140.554688 78.039062 140.097656 81.59375 142.003906 84.058594 C 143.082031 85.453125 144.714844 86.253906 146.476562 86.253906 C 147.738281 86.253906 148.933594 85.84375 149.933594 85.074219 L 167.347656 71.601562 L 167.449219 71.496094 C 167.644531 71.328125 167.828125 71.148438 168 70.957031 C 168.101562 70.84375 168.199219 70.726562 168.289062 70.605469 C 168.445312 70.398438 168.582031 70.179688 168.734375 69.90625 C 168.796875 69.796875 168.855469 69.695312 168.90625 69.582031 C 169.023438 69.320312 169.117188 69.046875 169.199219 68.773438 L 169.273438 68.542969 L 169.296875 68.4375 C 169.390625 68.015625 169.433594 67.617188 169.433594 67.214844 C 169.433594 66.816406 169.390625 66.417969 169.296875 65.996094 C 169.269531 65.878906 169.234375 65.769531 169.199219 65.664062 C 169.121094 65.382812 169.027344 65.109375 168.90625 64.851562 C 168.855469 64.738281 168.796875 64.632812 168.707031 64.480469 C 168.582031 64.253906 168.445312 64.035156 168.289062 63.828125 C 168.199219 63.710938 168.105469 63.597656 167.996094 63.472656 C 167.824219 63.28125 167.644531 63.105469 167.535156 63.015625 L 167.359375 62.839844 L 149.929688 49.359375 C 148.929688 48.585938 147.738281 48.179688 146.476562 48.179688 C 144.710938 48.179688 143.082031 48.976562 142.003906 50.375 C 140.097656 52.835938 140.550781 56.394531 143.015625 58.300781 L 147.238281 61.566406 L 106.730469 61.566406 C 103.613281 61.566406 101.078125 64.101562 101.078125 67.214844 C 101.078125 70.332031 103.613281 72.867188 106.730469 72.867188 L 147.238281 72.867188 " fill-opacity="1" fill-rule="nonzero"/></g><path fill="#2d4542" d="M 153.902344 262.367188 C 154.101562 262.199219 154.285156 262.019531 154.453125 261.828125 C 154.554688 261.710938 154.652344 261.59375 154.742188 261.476562 C 154.898438 261.269531 155.035156 261.054688 155.191406 260.777344 C 155.253906 260.667969 155.3125 260.558594 155.363281 260.449219 C 155.484375 260.191406 155.578125 259.921875 155.660156 259.636719 L 155.730469 259.40625 L 155.753906 259.304688 C 155.847656 258.882812 155.890625 258.484375 155.890625 258.085938 C 155.890625 257.683594 155.847656 257.285156 155.753906 256.867188 C 155.726562 256.75 155.695312 256.636719 155.65625 256.53125 C 155.578125 256.25 155.484375 255.980469 155.363281 255.71875 C 155.3125 255.605469 155.253906 255.5 155.167969 255.347656 C 155.039062 255.121094 154.902344 254.902344 154.746094 254.699219 C 154.65625 254.578125 154.5625 254.464844 154.457031 254.34375 C 154.285156 254.152344 154.105469 253.976562 153.992188 253.886719 L 153.816406 253.707031 L 136.386719 240.226562 C 135.386719 239.453125 134.195312 239.046875 132.933594 239.046875 C 131.167969 239.046875 129.539062 239.847656 128.460938 241.242188 C 126.554688 243.707031 127.007812 247.261719 129.472656 249.167969 L 133.695312 252.433594 L 110.496094 252.433594 C 107.382812 252.433594 104.847656 254.96875 104.847656 258.085938 C 104.847656 261.199219 107.382812 263.734375 110.496094 263.734375 L 133.695312 263.734375 L 129.472656 267 C 127.011719 268.90625 126.554688 272.460938 128.460938 274.925781 C 129.539062 276.320312 131.171875 277.121094 132.933594 277.121094 C 134.195312 277.121094 135.390625 276.710938 136.390625 275.941406 L 153.800781 262.476562 L 153.902344 262.367188 " fill-opacity="1" fill-rule="nonzero"/><g clip-path="url(#8479ae3db6)"><path fill="#2d4542" d="M 241.738281 37.5 C 241.738281 38.386719 241.648438 39.269531 241.476562 40.140625 C 241.304688 41.011719 241.046875 41.859375 240.707031 42.683594 C 240.367188 43.503906 239.949219 44.285156 239.453125 45.023438 C 238.960938 45.761719 238.398438 46.445312 237.769531 47.074219 C 237.140625 47.703125 236.457031 48.265625 235.71875 48.757812 C 234.976562 49.253906 234.199219 49.671875 233.375 50.011719 C 232.554688 50.351562 231.707031 50.609375 230.835938 50.78125 C 229.964844 50.957031 229.082031 51.042969 228.195312 51.042969 C 227.304688 51.042969 226.425781 50.957031 225.550781 50.78125 C 224.679688 50.609375 223.832031 50.351562 223.011719 50.011719 C 222.191406 49.671875 221.410156 49.253906 220.671875 48.757812 C 219.929688 48.265625 219.246094 47.703125 218.617188 47.074219 C 217.988281 46.445312 217.425781 45.761719 216.933594 45.023438 C 216.441406 44.285156 216.023438 43.503906 215.683594 42.683594 C 215.339844 41.859375 215.085938 41.011719 214.910156 40.140625 C 214.738281 39.269531 214.652344 38.386719 214.652344 37.5 C 214.652344 36.609375 214.738281 35.730469 214.910156 34.855469 C 215.085938 33.984375 215.339844 33.136719 215.683594 32.316406 C 216.023438 31.496094 216.441406 30.714844 216.933594 29.976562 C 217.425781 29.234375 217.988281 28.550781 218.617188 27.921875 C 219.246094 27.292969 219.929688 26.734375 220.671875 26.238281 C 221.410156 25.746094 222.191406 25.328125 223.011719 24.988281 C 223.832031 24.648438 224.679688 24.390625 225.550781 24.214844 C 226.425781 24.042969 227.304688 23.957031 228.195312 23.957031 C 229.082031 23.957031 229.964844 24.042969 230.835938 24.214844 C 231.707031 24.390625 232.554688 24.648438 233.375 24.988281 C 234.199219 25.328125 234.976562 25.746094 235.71875 26.238281 C 236.457031 26.734375 237.140625 27.292969 237.769531 27.921875 C 238.398438 28.550781 238.960938 29.234375 239.453125 29.976562 C 239.949219 30.714844 240.367188 31.496094 240.707031 32.316406 C 241.046875 33.136719 241.304688 33.984375 241.476562 34.855469 C 241.648438 35.730469 241.738281 36.609375 241.738281 37.5 Z M 241.738281 37.5 " fill-opacity="1" fill-rule="nonzero"/></g></svg>