<svg xmlns="http://www.w3.org/2000/svg" xmlns:xlink="http://www.w3.org/1999/xlink" width="800" zoomAndPan="magnify" viewBox="0 0 600 449.999984" height="600" preserveAspectRatio="xMidYMid meet" version="1.0"><defs><clipPath id="6bf630e5b1"><path d="M 277.222656 100.703125 L 403.710938 100.703125 L 403.710938 450 L 277.222656 450 Z M 277.222656 100.703125 " clip-rule="nonzero"/></clipPath><clipPath id="6a283310da"><path d="M 196.21875 57 L 279 57 L 279 104 L 196.21875 104 Z M 196.21875 57 " clip-rule="nonzero"/></clipPath><clipPath id="aadbf5c370"><path d="M 319.140625 11.625 L 374.640625 11.625 L 374.640625 67.125 L 319.140625 67.125 Z M 319.140625 11.625 " clip-rule="nonzero"/></clipPath></defs><path fill="#2d4542" d="M 369.3125 104.195312 L 369.488281 104.195312 C 371.808594 104.191406 373.683594 103.3125 375.386719 101.4375 C 383.785156 92.175781 383.113281 63.777344 382.148438 53.617188 C 382.136719 53.519531 382.132812 53.421875 382.132812 53.320312 L 381.984375 35.714844 C 381.816406 16.019531 365.660156 0 345.96875 0 C 326.109375 0 309.953125 16.15625 309.953125 36.015625 L 309.953125 53.292969 C 309.953125 59.222656 311.75 69.21875 316.820312 77.867188 C 326.058594 93.628906 347.136719 104.195312 369.3125 104.195312 " fill-opacity="1" fill-rule="nonzero"/><g clip-path="url(#6bf630e5b1)"><path fill="#2d4542" d="M 402.546875 436.238281 C 401.773438 434.820312 400.988281 433.417969 400.207031 432.03125 C 397.773438 427.6875 395.476562 423.585938 393.660156 419.429688 C 389.160156 409.117188 387.628906 399.078125 385.6875 386.363281 C 383.882812 374.523438 381.832031 361.097656 376.773438 343.492188 C 371.730469 325.949219 364.371094 314.238281 357.878906 303.90625 C 350.621094 292.351562 344.347656 282.367188 344.347656 268.519531 C 346.636719 187.347656 340.976562 173.929688 332.085938 162.71875 C 330.921875 161.25 331.167969 159.117188 332.636719 157.957031 C 334.101562 156.792969 336.234375 157.035156 337.398438 158.507812 C 347.21875 170.886719 353.476562 185.238281 351.128906 268.613281 C 351.128906 280.414062 356.644531 289.191406 363.621094 300.296875 C 367.3125 306.175781 370.957031 312.082031 374.101562 318.269531 C 375.949219 321.902344 377.632812 325.617188 379.132812 329.402344 C 380.09375 331.828125 381.097656 339.007812 384.644531 338.746094 C 387.9375 338.503906 387.574219 333.785156 387.773438 331.507812 C 388.09375 327.8125 388.414062 324.121094 388.734375 320.421875 C 390.148438 304.128906 391.488281 288.734375 392.257812 278.984375 C 395.382812 239.476562 394.851562 230.160156 391.097656 214.089844 C 386.613281 194.925781 378.941406 180.578125 363.429688 155.667969 C 352.417969 137.972656 351.988281 137.28125 351.988281 123.289062 C 351.988281 120.523438 352.578125 117.011719 353.265625 113.867188 C 353.789062 111.496094 352.324219 109.152344 349.972656 108.554688 C 343.519531 106.917969 337.445312 104.484375 331.964844 101.359375 C 329.304688 99.84375 325.980469 101.425781 325.351562 104.421875 C 325.082031 105.695312 324.769531 107.011719 324.398438 108.347656 C 322.113281 116.621094 316.027344 123.296875 308.984375 131.023438 C 295.335938 145.992188 278.347656 164.621094 280.300781 205.367188 C 280.464844 208.792969 280.726562 212.046875 281.078125 215.152344 C 283.535156 236.890625 290.25 251.300781 296.769531 265.296875 C 303.511719 279.769531 309.894531 293.472656 310.421875 313.320312 C 310.628906 321.195312 308.851562 329.019531 305.109375 335.953125 C 295.074219 354.566406 277.296875 369.957031 277.296875 411.082031 C 277.296875 422 278.886719 433.464844 281.769531 443.363281 C 282.910156 447.273438 286.570312 450 290.667969 450 L 372.699219 450 C 375.59375 450 377.75 447.320312 377.113281 444.496094 C 375.824219 438.800781 374.03125 431.941406 372.164062 428.132812 C 369.007812 421.703125 363.066406 412.125 356.179688 401.039062 C 343.265625 380.242188 327.195312 354.355469 317.21875 329.957031 C 316.441406 328.050781 317.523438 325.84375 319.621094 325.363281 C 321.273438 324.984375 322.921875 325.988281 323.5625 327.554688 C 333.328125 351.378906 349.191406 376.925781 361.941406 397.460938 C 368.921875 408.703125 374.949219 418.414062 378.253906 425.144531 C 380.820312 430.378906 383.125 440.015625 384.476562 446.414062 C 384.917969 448.507812 386.757812 450 388.898438 450 L 394.019531 450 C 397.128906 450 400.1875 448.65625 401.980469 446.117188 C 404.074219 443.144531 404.269531 439.382812 402.546875 436.238281 " fill-opacity="1" fill-rule="nonzero"/></g><path fill="#2d4542" d="M 258.296875 267.339844 C 260.179688 271.328125 261.957031 275.097656 263.585938 278.960938 C 264.648438 281.480469 267.101562 283.109375 269.835938 283.109375 C 270.742188 283.109375 271.628906 282.929688 272.46875 282.574219 C 275.914062 281.121094 277.535156 277.136719 276.082031 273.691406 C 274.335938 269.550781 272.492188 265.644531 270.535156 261.5 C 269.230469 258.734375 267.910156 255.929688 266.605469 253.027344 C 265.515625 250.59375 263.085938 249.019531 260.417969 249.019531 C 259.457031 249.019531 258.523438 249.21875 257.644531 249.617188 C 255.992188 250.355469 254.726562 251.695312 254.082031 253.390625 C 253.4375 255.082031 253.492188 256.925781 254.230469 258.578125 C 255.558594 261.535156 256.90625 264.394531 258.296875 267.339844 " fill-opacity="1" fill-rule="nonzero"/><path fill="#2d4542" d="M 282.757812 116.355469 C 283.890625 117.136719 285.21875 117.546875 286.597656 117.546875 C 288.832031 117.546875 290.921875 116.449219 292.1875 114.609375 C 295.289062 110.101562 297.25 106.078125 298.367188 101.941406 C 299.339844 98.320312 300.0625 94.433594 300.507812 90.386719 C 300.707031 88.589844 300.191406 86.816406 299.0625 85.40625 C 297.929688 83.992188 296.3125 83.105469 294.519531 82.90625 C 294.261719 82.875 294.003906 82.863281 293.753906 82.863281 C 290.296875 82.863281 287.40625 85.460938 287.027344 88.902344 C 286.65625 92.265625 286.066406 95.460938 285.269531 98.410156 C 284.566406 101.015625 283.214844 103.722656 281.015625 106.921875 C 279.988281 108.417969 279.601562 110.21875 279.933594 112 C 280.261719 113.78125 281.265625 115.328125 282.757812 116.355469 " fill-opacity="1" fill-rule="nonzero"/><path fill="#2d4542" d="M 269.597656 334.453125 C 268.511719 333.765625 267.257812 333.398438 265.972656 333.398438 C 263.632812 333.398438 261.492188 334.578125 260.242188 336.554688 L 257.609375 340.671875 C 253.988281 346.316406 250.566406 351.648438 248.511719 356.109375 C 247.75 357.753906 247.679688 359.59375 248.304688 361.296875 C 248.933594 362.992188 250.183594 364.347656 251.824219 365.105469 C 252.722656 365.519531 253.679688 365.730469 254.664062 365.730469 C 257.300781 365.730469 259.71875 364.183594 260.824219 361.789062 C 262.488281 358.179688 265.664062 353.234375 269.027344 347.992188 C 269.90625 346.617188 270.804688 345.21875 271.695312 343.808594 C 272.664062 342.28125 272.980469 340.464844 272.585938 338.699219 C 272.1875 336.929688 271.128906 335.421875 269.597656 334.453125 " fill-opacity="1" fill-rule="nonzero"/><path fill="#2d4542" d="M 276.640625 123.050781 C 275.429688 122.054688 273.898438 121.503906 272.332031 121.503906 C 270.296875 121.503906 268.390625 122.40625 267.09375 123.976562 C 263.136719 128.785156 258.011719 135.347656 253.484375 143.492188 C 251.667969 146.761719 252.847656 150.898438 256.117188 152.714844 C 257.125 153.273438 258.261719 153.570312 259.40625 153.570312 C 261.871094 153.570312 264.140625 152.234375 265.339844 150.082031 C 269.339844 142.882812 273.976562 136.957031 277.566406 132.597656 C 279.941406 129.710938 279.527344 125.425781 276.640625 123.050781 " fill-opacity="1" fill-rule="nonzero"/><path fill="#2d4542" d="M 247.59375 196.730469 C 251.214844 196.730469 254.1875 193.898438 254.367188 190.28125 C 254.722656 182.921875 255.785156 175.902344 257.519531 169.421875 C 258.480469 165.808594 256.328125 162.082031 252.714844 161.117188 C 252.144531 160.964844 251.554688 160.886719 250.96875 160.886719 C 247.902344 160.886719 245.207031 162.953125 244.414062 165.917969 C 242.433594 173.324219 241.222656 181.300781 240.816406 189.617188 C 240.730469 191.429688 241.351562 193.164062 242.570312 194.503906 C 243.785156 195.847656 245.453125 196.636719 247.273438 196.722656 L 247.59375 196.730469 " fill-opacity="1" fill-rule="nonzero"/><path fill="#2d4542" d="M 246.039062 236.496094 C 246.859375 239.402344 249.542969 241.4375 252.5625 241.4375 C 253.183594 241.4375 253.808594 241.351562 254.40625 241.179688 C 256.148438 240.6875 257.597656 239.546875 258.480469 237.96875 C 259.367188 236.386719 259.582031 234.554688 259.089844 232.8125 C 257.183594 226.054688 255.871094 219.175781 255.078125 211.78125 C 254.707031 208.328125 251.816406 205.722656 248.351562 205.722656 C 248.105469 205.722656 247.855469 205.734375 247.609375 205.765625 C 243.894531 206.164062 241.195312 209.511719 241.589844 213.230469 C 242.46875 221.394531 243.925781 229.003906 246.039062 236.496094 " fill-opacity="1" fill-rule="nonzero"/><path fill="#2d4542" d="M 282.953125 322.359375 C 284.015625 319.164062 284.53125 316.332031 284.53125 313.699219 C 284.535156 307.765625 284.0625 302.203125 283.097656 296.691406 C 282.527344 293.441406 279.722656 291.078125 276.429688 291.078125 C 276.039062 291.078125 275.640625 291.113281 275.25 291.183594 C 273.464844 291.496094 271.910156 292.484375 270.867188 293.96875 C 269.828125 295.449219 269.425781 297.25 269.742188 299.03125 C 270.570312 303.765625 270.972656 308.5625 270.96875 313.699219 C 270.96875 314.824219 270.664062 316.339844 270.082031 318.085938 C 269.511719 319.804688 269.644531 321.640625 270.457031 323.261719 C 271.269531 324.882812 272.664062 326.085938 274.378906 326.65625 C 275.074219 326.886719 275.792969 327.003906 276.519531 327.003906 C 279.449219 327.003906 282.035156 325.136719 282.953125 322.359375 " fill-opacity="1" fill-rule="nonzero"/><g clip-path="url(#6a283310da)"><path fill="#2d4542" d="M 251.683594 87.441406 L 246.621094 91.359375 C 243.664062 93.648438 243.117188 97.914062 245.40625 100.871094 C 246.699219 102.546875 248.65625 103.503906 250.773438 103.503906 C 252.285156 103.503906 253.71875 103.015625 254.917969 102.085938 L 275.820312 85.921875 L 275.941406 85.792969 C 276.175781 85.589844 276.394531 85.378906 276.597656 85.148438 C 276.71875 85.011719 276.835938 84.871094 276.945312 84.726562 C 277.132812 84.476562 277.296875 84.214844 277.480469 83.886719 C 277.554688 83.757812 277.625 83.632812 277.6875 83.5 C 277.828125 83.183594 277.941406 82.859375 278.039062 82.527344 L 278.128906 82.25 L 278.15625 82.125 C 278.265625 81.617188 278.320312 81.140625 278.320312 80.660156 C 278.320312 80.179688 278.265625 79.703125 278.15625 79.195312 C 278.125 79.058594 278.082031 78.921875 278.039062 78.796875 C 277.945312 78.460938 277.832031 78.132812 277.6875 77.820312 C 277.625 77.6875 277.554688 77.558594 277.449219 77.378906 C 277.296875 77.101562 277.132812 76.84375 276.949219 76.59375 C 276.839844 76.449219 276.726562 76.316406 276.59375 76.167969 C 276.390625 75.9375 276.171875 75.726562 276.042969 75.621094 L 275.832031 75.40625 L 254.917969 59.230469 C 253.714844 58.304688 252.285156 57.8125 250.769531 57.8125 C 248.652344 57.8125 246.699219 58.773438 245.40625 60.449219 C 243.117188 63.40625 243.664062 67.671875 246.621094 69.960938 L 251.6875 73.878906 L 203.074219 73.878906 C 199.335938 73.878906 196.292969 76.921875 196.292969 80.660156 C 196.292969 84.398438 199.335938 87.441406 203.074219 87.441406 L 251.683594 87.441406 " fill-opacity="1" fill-rule="nonzero"/></g><path fill="#2d4542" d="M 259.683594 314.839844 C 259.921875 314.636719 260.140625 314.421875 260.34375 314.195312 C 260.46875 314.054688 260.585938 313.914062 260.691406 313.769531 C 260.878906 313.523438 261.042969 313.265625 261.230469 312.933594 C 261.304688 312.800781 261.375 312.667969 261.4375 312.539062 C 261.578125 312.230469 261.691406 311.90625 261.789062 311.566406 L 261.878906 311.289062 L 261.90625 311.167969 C 262.015625 310.660156 262.070312 310.179688 262.070312 309.703125 C 262.070312 309.222656 262.015625 308.742188 261.90625 308.238281 C 261.875 308.097656 261.832031 307.960938 261.789062 307.835938 C 261.691406 307.5 261.578125 307.175781 261.4375 306.863281 C 261.375 306.730469 261.304688 306.601562 261.199219 306.417969 C 261.046875 306.144531 260.882812 305.882812 260.695312 305.636719 C 260.589844 305.492188 260.476562 305.355469 260.347656 305.214844 C 260.144531 304.980469 259.925781 304.769531 259.792969 304.664062 L 259.582031 304.449219 L 238.664062 288.273438 C 237.464844 287.34375 236.03125 286.855469 234.519531 286.855469 C 232.402344 286.855469 230.445312 287.816406 229.152344 289.488281 C 226.867188 292.445312 227.410156 296.714844 230.367188 299 L 235.433594 302.917969 L 207.597656 302.917969 C 203.855469 302.917969 200.816406 305.960938 200.816406 309.703125 C 200.816406 313.441406 203.855469 316.480469 207.597656 316.480469 L 235.433594 316.480469 L 230.367188 320.398438 C 227.414062 322.6875 226.867188 326.953125 229.152344 329.914062 C 230.449219 331.585938 232.402344 332.546875 234.519531 332.546875 C 236.035156 332.546875 237.46875 332.054688 238.667969 331.128906 L 259.558594 314.96875 L 259.683594 314.839844 " fill-opacity="1" fill-rule="nonzero"/><g clip-path="url(#aadbf5c370)"><path fill="#2d4542" d="M 374.972656 39.542969 C 374.972656 40.457031 374.925781 41.371094 374.835938 42.277344 C 374.746094 43.1875 374.613281 44.09375 374.433594 44.988281 C 374.257812 45.886719 374.035156 46.773438 373.769531 47.648438 C 373.503906 48.523438 373.195312 49.382812 372.847656 50.226562 C 372.496094 51.070312 372.105469 51.898438 371.675781 52.703125 C 371.242188 53.507812 370.773438 54.292969 370.265625 55.054688 C 369.757812 55.8125 369.214844 56.546875 368.632812 57.253906 C 368.054688 57.960938 367.441406 58.636719 366.792969 59.285156 C 366.148438 59.929688 365.472656 60.542969 364.765625 61.125 C 364.058594 61.703125 363.324219 62.246094 362.5625 62.753906 C 361.804688 63.261719 361.019531 63.734375 360.214844 64.164062 C 359.40625 64.59375 358.582031 64.984375 357.738281 65.335938 C 356.890625 65.683594 356.03125 65.992188 355.15625 66.257812 C 354.28125 66.523438 353.394531 66.746094 352.5 66.925781 C 351.601562 67.101562 350.699219 67.238281 349.789062 67.324219 C 348.878906 67.414062 347.96875 67.460938 347.054688 67.460938 C 346.140625 67.460938 345.226562 67.414062 344.316406 67.324219 C 343.40625 67.238281 342.503906 67.101562 341.605469 66.925781 C 340.710938 66.746094 339.824219 66.523438 338.949219 66.257812 C 338.074219 65.992188 337.214844 65.683594 336.371094 65.335938 C 335.523438 64.984375 334.699219 64.59375 333.894531 64.164062 C 333.085938 63.734375 332.304688 63.261719 331.542969 62.753906 C 330.78125 62.246094 330.050781 61.703125 329.34375 61.125 C 328.636719 60.542969 327.960938 59.929688 327.3125 59.285156 C 326.667969 58.636719 326.054688 57.960938 325.472656 57.253906 C 324.894531 56.546875 324.347656 55.8125 323.839844 55.054688 C 323.332031 54.292969 322.863281 53.507812 322.433594 52.703125 C 322 51.898438 321.609375 51.070312 321.261719 50.226562 C 320.910156 49.382812 320.601562 48.523438 320.335938 47.648438 C 320.074219 46.773438 319.851562 45.886719 319.671875 44.988281 C 319.492188 44.09375 319.359375 43.1875 319.269531 42.277344 C 319.179688 41.371094 319.136719 40.457031 319.136719 39.542969 C 319.136719 38.628906 319.179688 37.714844 319.269531 36.804688 C 319.359375 35.894531 319.492188 34.992188 319.671875 34.097656 C 319.851562 33.199219 320.074219 32.3125 320.335938 31.4375 C 320.601562 30.5625 320.910156 29.703125 321.261719 28.859375 C 321.609375 28.015625 322 27.1875 322.433594 26.382812 C 322.863281 25.578125 323.332031 24.792969 323.839844 24.03125 C 324.347656 23.273438 324.894531 22.539062 325.472656 21.832031 C 326.054688 21.125 326.667969 20.449219 327.3125 19.800781 C 327.960938 19.15625 328.636719 18.542969 329.34375 17.960938 C 330.050781 17.382812 330.78125 16.839844 331.542969 16.332031 C 332.304688 15.820312 333.085938 15.351562 333.894531 14.921875 C 334.699219 14.492188 335.523438 14.101562 336.371094 13.75 C 337.214844 13.402344 338.074219 13.09375 338.949219 12.828125 C 339.824219 12.5625 340.710938 12.339844 341.605469 12.160156 C 342.503906 11.984375 343.40625 11.847656 344.316406 11.757812 C 345.226562 11.671875 346.140625 11.625 347.054688 11.625 C 347.96875 11.625 348.878906 11.671875 349.789062 11.757812 C 350.699219 11.847656 351.601562 11.984375 352.5 12.160156 C 353.394531 12.339844 354.28125 12.5625 355.15625 12.828125 C 356.03125 13.09375 356.890625 13.402344 357.738281 13.75 C 358.582031 14.101562 359.40625 14.492188 360.214844 14.921875 C 361.019531 15.351562 361.804688 15.820312 362.5625 16.332031 C 363.324219 16.839844 364.058594 17.382812 364.765625 17.960938 C 365.472656 18.542969 366.148438 19.15625 366.792969 19.800781 C 367.441406 20.449219 368.054688 21.125 368.632812 21.832031 C 369.214844 22.539062 369.757812 23.273438 370.265625 24.03125 C 370.773438 24.792969 371.242188 25.578125 371.675781 26.382812 C 372.105469 27.1875 372.496094 28.015625 372.847656 28.859375 C 373.195312 29.703125 373.503906 30.5625 373.769531 31.4375 C 374.035156 32.3125 374.257812 33.199219 374.433594 34.097656 C 374.613281 34.992188 374.746094 35.894531 374.835938 36.804688 C 374.925781 37.714844 374.972656 38.628906 374.972656 39.542969 Z M 374.972656 39.542969 " fill-opacity="1" fill-rule="nonzero"/></g></svg>