<svg xmlns="http://www.w3.org/2000/svg" xmlns:xlink="http://www.w3.org/1999/xlink" width="800" zoomAndPan="magnify" viewBox="0 0 600 449.999984" height="600" preserveAspectRatio="xMidYMid meet" version="1.0"><defs><clipPath id="8c9f7465dd"><path d="M 338.621094 73.769531 L 344.621094 73.769531 L 344.621094 79.769531 L 338.621094 79.769531 Z M 338.621094 73.769531 " clip-rule="nonzero"/></clipPath></defs><g clip-path="url(#8c9f7465dd)"><path fill="#2d4542" d="M 344.9375 76.929688 C 344.9375 77.347656 344.859375 77.75 344.699219 78.136719 C 344.539062 78.523438 344.308594 78.867188 344.011719 79.164062 C 343.71875 79.457031 343.375 79.6875 342.988281 79.847656 C 342.601562 80.007812 342.199219 80.085938 341.78125 80.085938 C 341.359375 80.085938 340.957031 80.007812 340.570312 79.847656 C 340.183594 79.6875 339.84375 79.457031 339.546875 79.164062 C 339.25 78.867188 339.023438 78.523438 338.863281 78.136719 C 338.703125 77.75 338.621094 77.347656 338.621094 76.929688 C 338.621094 76.511719 338.703125 76.105469 338.863281 75.71875 C 339.023438 75.332031 339.25 74.992188 339.546875 74.695312 C 339.84375 74.398438 340.183594 74.171875 340.570312 74.011719 C 340.957031 73.851562 341.359375 73.769531 341.78125 73.769531 C 342.199219 73.769531 342.601562 73.851562 342.988281 74.011719 C 343.375 74.171875 343.71875 74.398438 344.011719 74.695312 C 344.308594 74.992188 344.539062 75.332031 344.699219 75.71875 C 344.859375 76.105469 344.9375 76.511719 344.9375 76.929688 Z M 344.9375 76.929688 " fill-opacity="1" fill-rule="nonzero"/></g><path fill="#2d4542" d="M 110.175781 346.089844 L 89.652344 354.730469 C 82.609375 357.699219 77.09375 363.527344 74.523438 370.726562 C 70.378906 382.328125 74.527344 395.320312 84.609375 402.324219 C 97.542969 411.308594 116.746094 422.960938 134.800781 427.476562 C 163.582031 434.671875 265.085938 443.84375 276.285156 444.84375 L 282.300781 448.503906 C 284.121094 449.613281 286.15625 450.15625 288.1875 450.15625 C 290.777344 450.15625 293.355469 449.269531 295.441406 447.53125 C 298.039062 445.367188 299.523438 442.183594 299.515625 438.796875 C 299.507812 435.78125 298.304688 432.933594 296.191406 430.828125 L 300.085938 424.984375 L 303.980469 430.828125 C 301.871094 432.933594 300.667969 435.78125 300.660156 438.796875 C 300.648438 442.183594 302.132812 445.367188 304.734375 447.53125 C 306.820312 449.273438 309.398438 450.15625 311.988281 450.15625 C 314.015625 450.15625 316.058594 449.613281 317.875 448.503906 L 325.429688 443.90625 C 336.609375 442.992188 436.601562 434.667969 465.375 427.476562 C 483.425781 422.964844 502.632812 411.308594 515.566406 402.328125 C 525.648438 395.324219 529.796875 382.332031 525.652344 370.730469 C 523.082031 363.53125 517.566406 357.699219 510.519531 354.734375 L 490.144531 346.15625 C 485.941406 344.386719 481.324219 343.691406 476.789062 344.152344 L 374.5625 354.5 L 376.570312 346.28125 C 376.617188 346.070312 376.652344 345.859375 376.667969 345.644531 L 380.390625 289.765625 L 394.277344 199.527344 C 395.058594 194.441406 394.425781 189.242188 392.445312 184.492188 L 390.183594 179.058594 C 386.914062 171.21875 380.371094 165.351562 372.226562 162.953125 L 351.632812 156.898438 L 326.242188 148.425781 L 326.242188 130.070312 C 338.558594 116.65625 346.621094 95.296875 346.621094 76.382812 C 346.621094 59.414062 339.832031 44.261719 329.242188 34.359375 C 329.570312 32.96875 329.875 31.457031 329.875 29.867188 C 329.875 13.441406 316.515625 0.0820312 300.089844 0.0820312 C 283.667969 0.0820312 270.304688 13.441406 270.304688 29.867188 C 270.304688 31.585938 270.644531 33.019531 271 34.300781 C 260.378906 44.203125 253.558594 59.382812 253.558594 76.378906 C 253.558594 95.292969 261.625 116.65625 273.9375 130.066406 L 273.9375 147.363281 L 248.476562 156.910156 L 227.953125 162.949219 C 219.804688 165.34375 213.261719 171.214844 209.996094 179.054688 L 207.730469 184.488281 C 205.75 189.238281 205.121094 194.441406 205.902344 199.523438 L 219.785156 289.761719 L 223.511719 345.640625 C 223.527344 345.855469 223.558594 346.070312 223.609375 346.277344 L 225.273438 353.09375 L 123.195312 344.058594 C 118.773438 343.664062 114.269531 344.367188 110.175781 346.089844 Z M 136.613281 420.222656 C 132.664062 419.238281 128.636719 417.863281 124.628906 416.242188 C 124.226562 412.175781 123.753906 402.519531 126.941406 393.226562 C 128.699219 388.105469 137.039062 379.855469 141.320312 375.988281 L 158.660156 377.816406 C 177.414062 379.789062 195.414062 385.183594 212.160156 393.84375 L 238.539062 407.488281 L 241.921875 421.367188 C 242.398438 423.300781 243.597656 424.941406 245.296875 425.976562 L 261.75 435.988281 C 229.722656 432.953125 159.097656 425.84375 136.613281 420.222656 Z M 292.09375 404.667969 C 291.257812 402.429688 289.515625 400.613281 287.3125 399.691406 L 292.105469 395.585938 C 293.027344 394.792969 294.285156 394.492188 295.472656 394.789062 L 296.351562 395.011719 L 296.351562 417.113281 L 290.429688 426 L 278.746094 416.375 L 283.957031 416.375 C 287.265625 416.375 290.242188 414.539062 291.71875 411.578125 C 292.792969 409.433594 292.929688 406.917969 292.09375 404.667969 Z M 342.664062 323.980469 C 335.953125 326.273438 315.488281 332.832031 300.507812 333.015625 C 285.5625 333.234375 264.375 326.371094 257.515625 324 L 255.539062 296.824219 L 344.640625 296.824219 Z M 299.917969 340.492188 C 300.144531 340.492188 300.375 340.492188 300.601562 340.488281 C 314.929688 340.3125 333.144531 334.980469 342.074219 332.0625 L 337.710938 392.09375 L 331.84375 392.09375 C 331.351562 392.09375 330.863281 392.1875 330.410156 392.378906 L 320.589844 396.472656 L 312.9375 389.914062 C 310.175781 387.546875 306.417969 386.660156 302.894531 387.539062 L 300.089844 388.242188 L 297.285156 387.539062 C 293.757812 386.65625 290.003906 387.542969 287.242188 389.914062 L 279.589844 396.472656 L 269.769531 392.378906 C 269.3125 392.1875 268.828125 392.09375 268.332031 392.09375 L 262.46875 392.09375 L 258.105469 332.089844 C 267.128906 335.0625 285.566406 340.492188 299.917969 340.492188 Z M 303.824219 395.011719 L 304.707031 394.789062 C 305.886719 394.492188 307.148438 394.789062 308.074219 395.585938 L 312.867188 399.691406 C 310.660156 400.617188 308.921875 402.429688 308.085938 404.667969 C 307.25 406.914062 307.386719 409.433594 308.457031 411.574219 C 309.9375 414.535156 312.914062 416.375 316.222656 416.375 L 321.433594 416.375 L 309.75 425.996094 L 303.824219 417.113281 Z M 463.566406 420.222656 C 441.085938 425.84375 371.347656 432.402344 339.765625 435.175781 L 354.882812 425.976562 C 356.582031 424.941406 357.78125 423.300781 358.257812 421.363281 L 362.089844 405.644531 L 389.398438 392.367188 C 405.199219 384.6875 422.070312 379.863281 439.542969 378.023438 L 455.847656 376.304688 C 458.894531 378.777344 467.378906 386.191406 469.605469 393.769531 C 471.652344 400.730469 468.855469 413.183594 467.085938 419.246094 C 465.90625 419.601562 464.734375 419.933594 463.566406 420.222656 Z M 477.542969 351.582031 C 480.839844 351.253906 484.195312 351.753906 487.246094 353.039062 L 507.625 361.617188 C 512.742188 363.773438 516.75 368.007812 518.617188 373.242188 C 521.628906 381.667969 518.621094 391.105469 511.304688 396.1875 C 501.789062 402.796875 488.78125 410.890625 475.59375 416.226562 C 477.214844 409.339844 478.917969 398.957031 476.777344 391.660156 C 474.902344 385.289062 470 379.382812 465.839844 375.253906 L 483.546875 373.390625 L 482.761719 365.957031 L 438.761719 370.589844 C 420.425781 372.519531 402.71875 377.585938 386.132812 385.648438 L 364.390625 396.214844 L 372.6875 362.191406 Z M 383.285156 181.929688 L 385.550781 187.359375 C 387 190.84375 387.464844 194.65625 386.890625 198.386719 L 372.984375 288.785156 C 372.96875 288.890625 372.957031 288.996094 372.949219 289.105469 L 369.234375 344.820312 L 350.996094 419.589844 L 313.992188 442.117188 C 312.582031 442.972656 310.785156 442.839844 309.519531 441.785156 C 308.308594 440.777344 308.128906 439.492188 308.132812 438.816406 C 308.132812 438.136719 308.316406 436.851562 309.535156 435.851562 L 334.21875 415.523438 C 335.433594 414.519531 335.894531 412.863281 335.359375 411.378906 C 334.832031 409.894531 333.421875 408.902344 331.84375 408.902344 L 316.222656 408.902344 C 315.761719 408.902344 315.347656 408.648438 315.140625 408.234375 C 314.9375 407.828125 315.019531 407.457031 315.089844 407.273438 C 315.160156 407.089844 315.332031 406.753906 315.757812 406.578125 L 332.59375 399.5625 L 337.710938 399.5625 C 341.605469 399.5625 344.882812 396.519531 345.160156 392.632812 L 352.371094 293.484375 L 360.261719 236.675781 C 361.277344 229.382812 360.96875 222.042969 359.351562 214.855469 L 353.328125 188.117188 C 351.628906 180.566406 351.601562 172.703125 353.210938 165.148438 L 370.113281 170.121094 C 376.09375 171.875 380.890625 176.179688 383.285156 181.929688 Z M 281.410156 136.78125 C 287.125 140.925781 293.433594 143.382812 300.089844 143.382812 C 306.742188 143.382812 313.054688 140.925781 318.769531 136.78125 L 318.769531 155.125 C 318.769531 165.425781 310.390625 173.804688 300.089844 173.804688 C 289.789062 173.804688 281.410156 165.425781 281.410156 155.125 Z M 262.027344 87.410156 C 266.253906 66.980469 282.15625 52.207031 300.089844 52.207031 C 318.578125 52.207031 334.222656 66.160156 338.355469 86.203125 C 334.632812 110.230469 318.242188 135.910156 300.089844 135.910156 C 282.238281 135.910156 266.097656 111.085938 262.027344 87.410156 Z M 300.089844 7.550781 C 312.101562 7.550781 321.902344 17.101562 322.359375 29.003906 C 315.742188 24.800781 308.152344 22.410156 300.089844 22.410156 C 292.027344 22.410156 284.4375 24.800781 277.820312 29.003906 C 278.277344 17.101562 288.074219 7.550781 300.089844 7.550781 Z M 300.089844 29.878906 C 318.695312 29.878906 334.289062 45.449219 338.195312 66.214844 C 329.683594 53.007812 315.761719 44.734375 300.089844 44.734375 C 284.476562 44.734375 270.207031 53.890625 261.671875 68.058594 C 264.976562 46.375 280.9375 29.878906 300.089844 29.878906 Z M 273.949219 155.339844 C 274.066406 169.660156 285.742188 181.277344 300.089844 181.277344 C 314.117188 181.277344 325.570312 170.164062 326.183594 156.285156 L 346.046875 162.902344 C 344.0625 171.71875 344.054688 180.929688 346.042969 189.757812 L 352.0625 216.496094 C 353.484375 222.800781 353.753906 229.246094 352.863281 235.648438 L 345.40625 289.351562 L 254.773438 289.351562 L 247.289062 235.472656 C 246.417969 229.179688 246.664062 222.839844 248.019531 216.632812 L 254.082031 188.953125 C 255.960938 180.367188 255.953125 171.375 254.074219 162.792969 Z M 213.289062 198.386719 C 212.714844 194.65625 213.175781 190.84375 214.628906 187.359375 L 216.890625 181.925781 C 219.289062 176.179688 224.089844 171.875 230.0625 170.117188 L 246.933594 165.152344 C 248.421875 172.457031 248.378906 180.070312 246.785156 187.351562 L 240.722656 215.03125 C 239.175781 222.105469 238.894531 229.328125 239.890625 236.496094 L 247.804688 293.480469 L 255.015625 392.628906 C 255.296875 396.515625 258.570312 399.558594 262.46875 399.558594 L 267.585938 399.558594 L 284.421875 406.574219 C 284.84375 406.75 285.019531 407.085938 285.089844 407.269531 C 285.160156 407.453125 285.242188 407.824219 285.035156 408.234375 C 284.832031 408.644531 284.417969 408.902344 283.957031 408.902344 L 268.332031 408.902344 C 266.757812 408.902344 265.347656 409.890625 264.816406 411.375 C 264.285156 412.859375 264.742188 414.519531 265.960938 415.519531 L 290.644531 435.847656 C 291.859375 436.851562 292.042969 438.132812 292.046875 438.8125 C 292.050781 439.488281 291.871094 440.773438 290.660156 441.78125 C 289.394531 442.839844 287.597656 442.972656 286.1875 442.113281 L 249.179688 419.585938 L 230.941406 344.816406 L 227.226562 289.101562 C 227.21875 288.992188 227.210938 288.886719 227.191406 288.78125 Z M 236.1875 397.863281 L 215.589844 387.207031 C 198.015625 378.117188 179.125 372.457031 159.441406 370.382812 L 117.417969 365.960938 L 116.632812 373.390625 L 131.5625 374.960938 C 127.125 379.421875 121.636719 385.664062 119.871094 390.800781 C 117.0625 398.996094 116.710938 407.273438 116.914062 412.824219 C 106.457031 407.789062 96.535156 401.503906 88.871094 396.183594 C 81.554688 391.105469 78.546875 381.667969 81.558594 373.238281 C 83.425781 368.007812 87.433594 363.773438 92.550781 361.617188 L 113.074219 352.976562 C 116.046875 351.726562 119.3125 351.214844 122.53125 351.496094 L 227.136719 360.757812 Z M 236.1875 397.863281 " fill-opacity="1" fill-rule="nonzero"/></svg>