<svg xmlns="http://www.w3.org/2000/svg" xmlns:xlink="http://www.w3.org/1999/xlink" width="800" zoomAndPan="magnify" viewBox="0 0 600 449.999984" height="600" preserveAspectRatio="xMidYMid meet" version="1.0"><defs><clipPath id="0b9853c7a5"><path d="M 289.589844 196.519531 L 310.589844 196.519531 L 310.589844 217.519531 L 289.589844 217.519531 Z M 289.589844 196.519531 " clip-rule="nonzero"/></clipPath></defs><path fill="#2d4542" d="M 62.550781 100.398438 C 62.808594 99.800781 63.625 98.488281 65.457031 99.402344 C 65.644531 99.503906 65.855469 99.542969 66.074219 99.542969 C 68.34375 99.503906 80.902344 99.242188 83.871094 98.289062 C 84.050781 98.226562 84.230469 98.199219 84.417969 98.179688 C 85.832031 98.050781 91.46875 97.589844 93.988281 98.160156 C 94.128906 98.1875 94.277344 98.207031 94.417969 98.207031 L 103.609375 97.898438 C 103.828125 97.890625 104.035156 97.851562 104.246094 97.789062 C 105.539062 97.371094 110.679688 95.789062 112.699219 96.355469 C 112.890625 96.40625 113.089844 96.425781 113.289062 96.414062 C 117.800781 96.117188 164.992188 92.96875 169.046875 92.292969 C 169.125 92.28125 169.203125 92.273438 169.292969 92.273438 C 170.480469 92.261719 178.824219 92.304688 184.042969 95.289062 C 184.351562 95.46875 184.699219 95.570312 185.050781 95.609375 C 188.664062 95.988281 208.03125 98.089844 210.800781 99.503906 C 210.980469 99.59375 211.179688 99.640625 211.390625 99.652344 C 213.601562 99.773438 225.082031 100.300781 231.335938 98.328125 C 231.414062 98.296875 231.503906 98.277344 231.585938 98.269531 C 233.179688 97.96875 249.210938 95.0625 256.609375 98.457031 C 256.789062 98.535156 256.980469 98.585938 257.1875 98.597656 C 259.867188 98.6875 279.347656 98.996094 282.464844 89.515625 C 282.464844 89.515625 284.972656 80.28125 284.714844 76.289062 C 284.675781 75.683594 284.34375 75.132812 283.835938 74.804688 C 280.0625 72.414062 262.65625 60.457031 267.921875 45.925781 L 269.816406 35.199219 C 269.945312 34.484375 269.535156 33.777344 268.859375 33.539062 C 266.398438 32.660156 261.300781 30.121094 264.449219 24.835938 C 264.808594 24.238281 264.328125 23.488281 263.640625 23.570312 C 259.378906 24.066406 249.710938 24.375 253.054688 16.210938 C 253.054688 16.210938 265.800781 1.273438 271.558594 6.382812 C 271.9375 6.71875 272.484375 6.808594 272.953125 6.601562 C 275.074219 5.613281 280.839844 3.664062 282.921875 10.492188 C 283.148438 11.230469 283.796875 11.757812 284.574219 11.796875 C 285.570312 11.847656 286.882812 11.90625 287.621094 11.9375 C 287.988281 11.957031 288.347656 11.90625 288.695312 11.808594 C 292.878906 10.535156 321.3125 2.527344 324.410156 20.632812 C 324.46875 20.980469 324.585938 21.308594 324.777344 21.597656 C 326.230469 23.816406 332.632812 34.09375 331.796875 41.207031 C 331.796875 41.207031 329.359375 46.394531 331.867188 51.34375 C 331.867188 51.34375 337.214844 56.832031 332.722656 60.015625 C 332.226562 60.367188 331.96875 60.953125 332.078125 61.550781 C 332.394531 63.253906 332.84375 66.589844 331.648438 67.566406 C 331.269531 67.882812 331.109375 68.390625 331.269531 68.859375 C 331.6875 70.117188 331.976562 72.15625 329.796875 72.914062 C 329.476562 73.023438 329.199219 73.230469 329.019531 73.511719 C 328.609375 74.136719 328.230469 75.292969 329.65625 76.558594 C 329.65625 76.558594 331.886719 81.894531 325.734375 83.28125 C 325.394531 83.359375 325.046875 83.371094 324.707031 83.339844 C 322.367188 83.101562 312.148438 82.324219 313.5625 87.53125 C 313.710938 88.070312 313.78125 88.617188 313.742188 89.164062 C 313.535156 92.015625 314.507812 101.027344 336.488281 96.824219 C 336.488281 96.824219 360.476562 92.480469 374.71875 96.84375 C 375.167969 96.984375 375.636719 97.054688 376.101562 97.023438 C 380.792969 96.785156 407.304688 95.289062 412.878906 91.636719 C 412.878906 91.636719 430.238281 83.070312 439.597656 85.769531 C 440.066406 85.910156 440.554688 85.980469 441.042969 85.988281 L 474.285156 86.65625 C 474.941406 86.667969 475.589844 86.546875 476.195312 86.296875 C 478.316406 85.421875 484.0625 83.53125 488.851562 86.328125 C 489.550781 86.734375 490.316406 86.984375 491.125 87.09375 C 497.835938 87.992188 526.953125 91.65625 533.824219 88.320312 C 533.824219 88.320312 535.6875 87.574219 536.105469 89.394531 C 536.214844 89.894531 536.613281 90.269531 537.101562 90.410156 C 538.136719 90.71875 539.5625 91.417969 538.714844 92.769531 C 538.347656 93.359375 537.75 93.765625 537.082031 93.9375 C 532.402344 95.191406 507.167969 101.714844 493.734375 100.679688 C 493.34375 100.648438 492.964844 100.570312 492.609375 100.417969 C 491.652344 100.019531 489.320312 99.304688 487.855469 100.789062 C 487.855469 100.789062 484.53125 104.761719 478.84375 103.476562 C 478.058594 103.296875 477.242188 103.289062 476.453125 103.484375 C 471.148438 104.820312 450.074219 109.800781 430.65625 109.542969 C 430.246094 109.53125 429.847656 109.621094 429.46875 109.769531 C 428.851562 110.019531 427.308594 110.296875 423.535156 109.800781 C 422.398438 109.652344 421.253906 109.78125 420.1875 110.207031 C 411.945312 113.453125 375.277344 127.625 365.257812 127.21875 C 365.257812 127.21875 345.929688 126.042969 343.089844 145.839844 C 343.089844 145.839844 341.675781 170.128906 339.316406 183.332031 C 339.316406 183.332031 331.128906 226.253906 335.332031 238.375 C 335.660156 239.320312 335.832031 240.304688 335.890625 241.300781 L 336.867188 258.132812 C 336.925781 259.097656 337.5625 259.925781 338.480469 260.214844 C 343.945312 261.957031 362.75 267.78125 371.839844 268.191406 C 372.539062 268.21875 373.226562 268.359375 373.882812 268.589844 C 379.171875 270.410156 402.175781 278.4375 407.910156 282.609375 C 408.9375 283.355469 410.121094 283.835938 411.375 284.015625 C 417.203125 284.871094 432.296875 288.84375 433.625 306.890625 C 433.625 306.890625 444.230469 399.222656 449.328125 410.257812 C 449.558594 410.757812 449.746094 411.273438 449.90625 411.792969 C 450.832031 414.878906 454.605469 424.746094 465.691406 428.3125 C 465.691406 428.3125 484.550781 441.757812 491.152344 441.984375 C 491.152344 441.984375 497.050781 442.453125 494.929688 446.46875 C 494.929688 446.46875 492.609375 449.484375 484.980469 448.378906 C 484.859375 448.359375 484.730469 448.347656 484.609375 448.347656 C 483.085938 448.371094 472.582031 448.449219 469.515625 446.867188 C 469.285156 446.746094 469.054688 446.65625 468.808594 446.605469 C 466.4375 446.070312 454.726562 443.597656 449.804688 445.960938 C 448.910156 446.386719 447.933594 446.648438 446.949219 446.785156 C 440.605469 447.671875 421.632812 449.445312 425.378906 438.222656 C 425.378906 438.222656 430.644531 423.09375 424.699219 408.207031 C 424.53125 407.789062 424.382812 407.359375 424.273438 406.921875 C 423.148438 402.589844 416.574219 377.804688 412.042969 370.453125 C 411.605469 369.738281 411.277344 368.96875 411.039062 368.164062 C 409.472656 362.777344 404.253906 343.695312 406.167969 333.835938 C 406.257812 333.398438 406.316406 332.949219 406.328125 332.503906 C 406.398438 329.484375 405.640625 318.949219 391.898438 319.148438 C 391.898438 319.148438 358.175781 324.566406 334.605469 312.304688 C 334.605469 312.304688 288.386719 301.222656 282.972656 295.566406 C 282.972656 295.566406 275.902344 291.085938 270.472656 298.394531 C 270.472656 298.394531 227.09375 333.289062 220.960938 341.066406 C 220.960938 341.066406 205.164062 360.394531 194.789062 364.878906 C 194.789062 364.878906 179.222656 370.292969 174.273438 379.726562 C 174.273438 379.726562 159.414062 395.757812 119.34375 420.046875 C 119.34375 420.046875 113.914062 424.050781 112.273438 426.890625 C 112.273438 426.890625 107.324219 433.492188 104.015625 434.667969 C 104.015625 434.667969 107.789062 446.457031 101.1875 446.6875 C 101.1875 446.6875 96 448.339844 95.53125 445.980469 C 95.53125 445.980469 79.261719 448.339844 77.617188 442.445312 L 88.929688 424.757812 C 88.929688 424.757812 93.171875 422.167969 93.640625 419.101562 C 93.640625 419.101562 97.882812 413.914062 101.1875 413.207031 C 101.1875 413.207031 116.515625 395.519531 135.136719 372.65625 C 135.136719 372.65625 154.945312 351.671875 163.667969 348.605469 C 163.667969 348.605469 187.25 331.863281 199.269531 311.351562 C 199.269531 311.351562 240.058594 256.179688 248.785156 229.542969 C 248.785156 229.542969 257.914062 209.734375 263.722656 210.210938 C 263.722656 210.210938 270.710938 183.09375 257.507812 146.078125 C 257.507812 146.078125 253.492188 130.515625 236.523438 130.992188 C 236.523438 130.992188 208.230469 126.042969 182.300781 115.664062 C 182.300781 115.664062 176.875 113.304688 172.164062 114.492188 C 172.164062 114.492188 135.148438 116.371094 121.234375 111.664062 C 121.234375 111.664062 115.101562 108.835938 110.152344 111.195312 C 110.152344 111.195312 105.203125 114.730469 98.839844 112.847656 L 62.796875 104.214844 C 62.539062 104.152344 62.289062 104.023438 62.089844 103.84375 C 61.375 103.207031 59.949219 101.632812 62.160156 100.726562 C 62.351562 100.699219 62.480469 100.570312 62.550781 100.398438 Z M 62.550781 100.398438 " fill-opacity="1" fill-rule="nonzero"/><g clip-path="url(#0b9853c7a5)"><path fill="#2d4542" d="M 310.40625 206.925781 C 310.40625 207.609375 310.335938 208.285156 310.203125 208.957031 C 310.070312 209.628906 309.875 210.277344 309.613281 210.910156 C 309.351562 211.542969 309.03125 212.140625 308.652344 212.710938 C 308.269531 213.277344 307.839844 213.804688 307.355469 214.285156 C 306.871094 214.769531 306.347656 215.199219 305.777344 215.582031 C 305.210938 215.960938 304.609375 216.28125 303.980469 216.542969 C 303.347656 216.804688 302.699219 217 302.027344 217.132812 C 301.355469 217.269531 300.679688 217.335938 299.996094 217.335938 C 299.3125 217.335938 298.636719 217.269531 297.964844 217.132812 C 297.296875 217 296.644531 216.804688 296.015625 216.542969 C 295.382812 216.28125 294.78125 215.960938 294.214844 215.582031 C 293.648438 215.199219 293.121094 214.769531 292.636719 214.285156 C 292.15625 213.804688 291.722656 213.277344 291.34375 212.710938 C 290.964844 212.140625 290.644531 211.542969 290.382812 210.910156 C 290.121094 210.277344 289.921875 209.628906 289.789062 208.957031 C 289.65625 208.285156 289.589844 207.609375 289.589844 206.925781 C 289.589844 206.242188 289.65625 205.566406 289.789062 204.898438 C 289.921875 204.226562 290.121094 203.574219 290.382812 202.945312 C 290.644531 202.3125 290.964844 201.714844 291.34375 201.144531 C 291.722656 200.578125 292.15625 200.050781 292.636719 199.566406 C 293.121094 199.085938 293.648438 198.652344 294.214844 198.273438 C 294.78125 197.894531 295.382812 197.574219 296.015625 197.3125 C 296.644531 197.050781 297.296875 196.851562 297.964844 196.71875 C 298.636719 196.585938 299.3125 196.519531 299.996094 196.519531 C 300.679688 196.519531 301.355469 196.585938 302.027344 196.71875 C 302.699219 196.851562 303.347656 197.050781 303.980469 197.3125 C 304.609375 197.574219 305.210938 197.894531 305.777344 198.273438 C 306.347656 198.652344 306.871094 199.085938 307.355469 199.566406 C 307.839844 200.050781 308.269531 200.578125 308.652344 201.144531 C 309.03125 201.714844 309.351562 202.3125 309.613281 202.945312 C 309.875 203.574219 310.070312 204.226562 310.203125 204.898438 C 310.335938 205.566406 310.40625 206.242188 310.40625 206.925781 Z M 310.40625 206.925781 " fill-opacity="1" fill-rule="nonzero"/></g></svg>