<svg xmlns="http://www.w3.org/2000/svg" xmlns:xlink="http://www.w3.org/1999/xlink" width="500" zoomAndPan="magnify" viewBox="0 0 375 374.999991" height="500" preserveAspectRatio="xMidYMid meet" version="1.0"><defs><clipPath id="6adbda0e86"><path d="M 214.652344 23.957031 L 241.652344 23.957031 L 241.652344 50.957031 L 214.652344 50.957031 Z M 214.652344 23.957031 " clip-rule="nonzero"/></clipPath><clipPath id="439aaaac73"><path d="M 199.738281 159.867188 L 205.738281 159.867188 L 205.738281 165.867188 L 199.738281 165.867188 Z M 199.738281 159.867188 " clip-rule="nonzero"/></clipPath></defs><g clip-path="url(#6adbda0e86)"><path fill="#2d4542" d="M 241.738281 37.5 C 241.738281 38.386719 241.648438 39.269531 241.476562 40.140625 C 241.304688 41.011719 241.046875 41.859375 240.707031 42.683594 C 240.367188 43.503906 239.949219 44.285156 239.453125 45.023438 C 238.960938 45.761719 238.398438 46.445312 237.769531 47.074219 C 237.140625 47.703125 236.457031 48.265625 235.71875 48.757812 C 234.976562 49.253906 234.199219 49.671875 233.375 50.011719 C 232.554688 50.351562 231.707031 50.609375 230.835938 50.78125 C 229.964844 50.957031 229.082031 51.042969 228.195312 51.042969 C 227.304688 51.042969 226.425781 50.957031 225.550781 50.78125 C 224.679688 50.609375 223.832031 50.351562 223.011719 50.011719 C 222.191406 49.671875 221.410156 49.253906 220.671875 48.757812 C 219.929688 48.265625 219.246094 47.703125 218.617188 47.074219 C 217.988281 46.445312 217.425781 45.761719 216.933594 45.023438 C 216.441406 44.285156 216.023438 43.503906 215.683594 42.683594 C 215.339844 41.859375 215.085938 41.011719 214.910156 40.140625 C 214.738281 39.269531 214.652344 38.386719 214.652344 37.5 C 214.652344 36.609375 214.738281 35.730469 214.910156 34.855469 C 215.085938 33.984375 215.339844 33.136719 215.683594 32.316406 C 216.023438 31.496094 216.441406 30.714844 216.933594 29.976562 C 217.425781 29.234375 217.988281 28.550781 218.617188 27.921875 C 219.246094 27.292969 219.929688 26.734375 220.671875 26.238281 C 221.410156 25.746094 222.191406 25.328125 223.011719 24.988281 C 223.832031 24.648438 224.679688 24.390625 225.550781 24.214844 C 226.425781 24.042969 227.304688 23.957031 228.195312 23.957031 C 229.082031 23.957031 229.964844 24.042969 230.835938 24.214844 C 231.707031 24.390625 232.554688 24.648438 233.375 24.988281 C 234.199219 25.328125 234.976562 25.746094 235.71875 26.238281 C 236.457031 26.734375 237.140625 27.292969 237.769531 27.921875 C 238.398438 28.550781 238.960938 29.234375 239.453125 29.976562 C 239.949219 30.714844 240.367188 31.496094 240.707031 32.316406 C 241.046875 33.136719 241.304688 33.984375 241.476562 34.855469 C 241.648438 35.730469 241.738281 36.609375 241.738281 37.5 Z M 241.738281 37.5 " fill-opacity="1" fill-rule="nonzero"/></g><path fill="#2d4542" d="M 374.984375 243.503906 C 372.855469 245.742188 370.910156 247.785156 368.859375 249.941406 C 365.214844 246.714844 362.453125 243.789062 358.597656 240.722656 C 361.777344 257.804688 365.277344 275.667969 361.460938 292.914062 C 346.011719 342.988281 282.964844 360.496094 237.441406 342.492188 C 238.253906 339.546875 238.949219 337.089844 239.800781 334.152344 C 278.585938 347.542969 325.601562 339.601562 347.867188 302.21875 C 358.617188 285.546875 353.515625 254.375 347.441406 236.339844 C 345.652344 236.355469 347.65625 244.613281 346.527344 246.039062 C 343.789062 246.042969 340.902344 246.035156 338.179688 246.027344 C 337.132812 242.742188 337.839844 228.78125 339.320312 222.902344 C 341.417969 222.839844 343.355469 223.429688 345.554688 223.707031 C 346.699219 222.648438 347.882812 221.546875 349.125 220.394531 C 357.71875 228.152344 366.847656 235.261719 374.984375 243.503906 Z M 347.394531 231.164062 C 347.082031 231.414062 347.089844 231.539062 347.226562 231.855469 C 347.355469 231.808594 347.480469 231.765625 347.605469 231.71875 C 347.539062 231.546875 347.476562 231.378906 347.394531 231.164062 Z M 347.394531 231.164062 " fill-opacity="1" fill-rule="nonzero"/><path fill="#2d4542" d="M 309.542969 173.34375 C 308.039062 175.820312 306.578125 178.222656 305.160156 180.558594 C 283.195312 172.09375 259.800781 182.1875 237.269531 182.203125 C 200.421875 182.304688 181.625 145.394531 181.472656 112.609375 C 177.917969 117.988281 175.566406 124.027344 173.507812 130.117188 C 170.699219 130.136719 167.949219 128.488281 165.046875 127.839844 C 168.136719 115.695312 175.273438 104.777344 181.4375 93.957031 C 182.488281 95.277344 183.082031 96.390625 184.011719 97.800781 C 185.144531 97.453125 185.65625 96.46875 186.417969 95.917969 C 186.765625 95.3125 185.964844 94.746094 186.511719 94.175781 C 186.867188 93.808594 187.125 93.347656 187.511719 92.808594 C 189.347656 93.164062 190.542969 94.589844 191.488281 96.09375 C 197.871094 105.898438 204.183594 115.695312 209.90625 125.914062 C 207.402344 127.453125 204.953125 128.953125 202.449219 130.492188 C 198.195312 124.789062 195.359375 118.273438 191.335938 112.464844 C 189.851562 112.925781 191.363281 118.582031 191.125 120.09375 C 192.261719 133.425781 196.445312 146.785156 204.839844 157.371094 C 219.828125 176.996094 243.671875 174.140625 265.113281 169.804688 C 278.929688 168.292969 297.304688 165.75 309.542969 173.34375 Z M 309.542969 173.34375 " fill-opacity="1" fill-rule="nonzero"/><path fill="#2d4542" d="M 171.011719 300.320312 C 166.417969 300.191406 163.175781 297.507812 159.230469 295.6875 C 155.90625 293.757812 152.457031 292.132812 149.3125 289.898438 C 150.78125 287.394531 152.207031 284.957031 153.636719 282.519531 C 137.546875 261.074219 108.847656 253.742188 83.113281 255.214844 C 68.898438 255.859375 56.128906 263.335938 47.804688 274.675781 C 45.585938 272.710938 43.433594 270.804688 41.371094 268.980469 C 57.242188 243.863281 91.339844 242.652344 117.546875 249.457031 C 137.753906 254.335938 155.140625 266.988281 166.363281 284.414062 C 167.277344 281.078125 166.4375 278.40625 166.917969 275.09375 C 169.882812 275.203125 172.6875 275.308594 175.59375 275.414062 C 176.082031 281.054688 175.550781 286.765625 175.628906 292.4375 C 175.363281 294.269531 175.972656 296.421875 174.492188 297.863281 C 170.664062 297.75 171.097656 295.398438 169.511719 296.324219 C 169.59375 297.644531 170.617188 298.671875 171.011719 300.320312 Z M 171.011719 300.320312 " fill-opacity="1" fill-rule="nonzero"/><path fill="#2d4542" d="M 117.890625 77.230469 C 114.910156 76.773438 112.082031 76.90625 109.257812 76.609375 C 108.871094 73.136719 109.742188 69.949219 109.535156 66.523438 C 108.882812 66.40625 108.832031 66.886719 108.664062 67.144531 C 101.769531 78.675781 86.808594 81.414062 74.683594 77.519531 C 67.789062 75.332031 63.03125 70.695312 60.152344 64.152344 C 48.964844 41.332031 73.753906 16.648438 97.675781 22 C 97.722656 24.96875 97.109375 27.761719 96.5 30.625 C 64.699219 26.929688 56.585938 63.933594 80.058594 69.59375 C 88.453125 71.445312 101.71875 68.492188 101.828125 58.070312 C 97.113281 57.757812 92.445312 58.652344 87.796875 58.355469 C 87.375 56.847656 87.238281 51.96875 87.539062 49.578125 C 119.441406 48.476562 121.027344 41.890625 117.890625 77.230469 Z M 112.210938 52.816406 C 113.125 53.148438 113.976562 52.800781 114.851562 52.738281 C 115.246094 52.152344 115.597656 51.632812 116.0625 50.945312 C 115.050781 50.761719 114.421875 49.773438 113.195312 49.855469 C 112.859375 50.859375 112.542969 51.820312 112.210938 52.816406 Z M 112.210938 52.816406 " fill-opacity="1" fill-rule="nonzero"/><path fill="#2d4542" d="M 126.585938 69.878906 C 125.824219 69.878906 125.097656 69.878906 124.253906 69.878906 C 123.601562 59.46875 120.75 47.195312 124.445312 37.269531 C 131.242188 22.527344 152.296875 20.382812 163.097656 32.109375 C 188.140625 56.480469 147.160156 98.96875 126.585938 69.878906 Z M 133.195312 53.230469 C 129.089844 82.113281 162.601562 69.84375 161.808594 50.75 C 162.171875 41.136719 153.054688 32.257812 143.320312 33.769531 C 133.210938 34.570312 130.601562 43.816406 131.855469 52.496094 C 132.253906 52.714844 132.632812 52.921875 133.195312 53.230469 Z M 133.195312 53.230469 " fill-opacity="1" fill-rule="nonzero"/><path fill="#2d4542" d="M 216.128906 77.765625 C 213.378906 78.742188 210.726562 79.675781 207.949219 80.660156 C 205.839844 76.253906 204.917969 71.433594 203.234375 66.835938 C 196.015625 67.164062 188.777344 66.394531 181.550781 67.953125 C 180.761719 71.9375 180.722656 75.976562 179.953125 79.933594 C 177.023438 80.027344 174.296875 79.285156 171.265625 79.011719 C 172.015625 68.53125 173.777344 58.117188 175.355469 47.722656 C 177.027344 37.414062 179.15625 14.585938 194.839844 22.480469 C 206.414062 31.871094 210.175781 63.015625 216.128906 77.765625 Z M 187.945312 31.242188 C 185.664062 40.269531 183.8125 49.292969 183.085938 58.507812 C 188.9375 57.660156 194.679688 58.058594 200.484375 57.832031 C 198.335938 48.871094 195.578125 36.289062 189.433594 29.386719 C 191.84375 22.960938 182.914062 26.628906 187.945312 31.242188 Z M 187.945312 31.242188 " fill-opacity="1" fill-rule="nonzero"/><path fill="#2d4542" d="M 53.601562 318.09375 C 53.933594 328.019531 47.160156 336.714844 37.527344 339.09375 C 17.726562 344.238281 -0.015625 324.613281 3.421875 305.308594 C 6.515625 290.8125 25.1875 286.878906 37.511719 291.378906 C 48.640625 294.757812 53.65625 307.1875 53.601562 318.09375 Z M 44.519531 317.464844 C 44.570312 317.460938 44.621094 317.453125 44.671875 317.449219 C 44.191406 310.957031 42.28125 303.449219 35.945312 300.363281 C 27.386719 296.929688 11.378906 298.3125 12.019531 310.441406 C 12.898438 333.9375 44.652344 338.367188 44.519531 317.464844 Z M 44.519531 317.464844 " fill-opacity="1" fill-rule="nonzero"/><path fill="#2d4542" d="M 197.148438 351.296875 C 180.40625 351.769531 168.386719 334.53125 171.382812 319.0625 C 172.273438 315.625 174.148438 312.816406 176.839844 310.515625 C 177.429688 310.011719 178.257812 309.691406 178.320312 308.6875 C 178.335938 308.441406 178.800781 308.15625 179.117188 308.003906 C 185.246094 305.097656 191.421875 301.085938 198.511719 302.195312 C 232.167969 303.777344 229.652344 350.292969 197.148438 351.296875 Z M 196.96875 342.269531 C 219.394531 341.261719 219.175781 310.183594 196.441406 311.105469 C 191.320312 311 180.054688 316.882812 179.914062 322.546875 C 179.648438 332.121094 186.359375 342.523438 196.96875 342.269531 Z M 196.96875 342.269531 " fill-opacity="1" fill-rule="nonzero"/><path fill="#2d4542" d="M 303.386719 199.160156 C 302.050781 186.042969 318.15625 171.429688 333.183594 176.234375 C 341.605469 179.359375 352.609375 184.234375 353.390625 194.441406 C 355.191406 211.601562 334.71875 226.347656 318.988281 219.851562 C 310.808594 216.597656 303.085938 208.007812 303.386719 199.160156 Z M 312.433594 199.03125 C 312.515625 206.523438 321.382812 213.457031 328.773438 212.308594 C 336.777344 210.761719 344.863281 204.53125 344.464844 195.699219 C 343.925781 189.820312 336.773438 187.796875 332.242188 185.53125 C 323.21875 181.675781 312.085938 188.835938 312.433594 199.03125 Z M 312.433594 199.03125 " fill-opacity="1" fill-rule="nonzero"/><path fill="#2d4542" d="M 319.542969 133.398438 C 317.988281 135.847656 316.515625 138.171875 315.105469 140.402344 C 314.273438 140.683594 313.84375 140.148438 313.363281 139.855469 C 307.691406 136.402344 302.175781 132.898438 296.46875 129.46875 C 291.78125 134.761719 287.832031 140.527344 283.285156 145.96875 C 280.972656 144.105469 278.742188 142.3125 276.414062 140.441406 C 280.164062 134.914062 284.582031 130.078125 288.492188 124.644531 C 283.417969 121.464844 278.183594 118.765625 273.527344 115.21875 C 274.390625 113.398438 277.3125 109.234375 278.609375 107.96875 C 283.714844 111.234375 288.777344 114.320312 294.070312 117.394531 C 297.570312 113.734375 300.066406 109.085938 304.015625 105.921875 C 305.640625 107.03125 309.261719 110.511719 310.335938 112.015625 C 307.40625 115.144531 304.710938 118.503906 302.21875 121.90625 C 302.257812 122.59375 302.773438 122.699219 303.121094 122.917969 C 308.496094 126.542969 314.523438 129.390625 319.542969 133.398438 Z M 319.542969 133.398438 " fill-opacity="1" fill-rule="nonzero"/><path fill="#2d4542" d="M 232.457031 74.410156 C 239.199219 73.878906 245.554688 71.652344 252.195312 69.96875 C 252.898438 72.898438 253.808594 75.621094 254.351562 78.484375 C 249.777344 80.269531 244.824219 81.136719 240.058594 82.375 C 236.605469 82.683594 231.4375 84.738281 228.316406 83.371094 C 228.414062 82.253906 228.074219 80.855469 228.527344 79.734375 C 229.117188 78.566406 229.136719 78.566406 228.597656 77.300781 C 227.675781 77.601562 226.882812 78.113281 226.101562 78.769531 C 226.285156 79.773438 227.191406 80.875 225.746094 81.824219 C 222.9375 79.644531 223.492188 75.511719 222.890625 72.34375 C 221.753906 57.253906 223.113281 42.023438 221.039062 27.003906 C 222.800781 26.324219 227.5 25.613281 229.726562 25.695312 C 233.082031 41.644531 229.800781 58.527344 232.457031 74.410156 Z M 232.457031 74.410156 " fill-opacity="1" fill-rule="nonzero"/><path fill="#2d4542" d="M 226.871094 264.5625 C 228.8125 261.484375 230.636719 258.585938 232.527344 255.585938 C 227.644531 251.472656 222.09375 248.140625 216.3125 245.464844 C 216.558594 243.925781 218.285156 239.871094 219.757812 237.351562 C 226.339844 239.507812 231.726562 243.992188 237.46875 247.734375 C 240.984375 242.550781 243.894531 237.367188 248.113281 232.675781 C 250.480469 234.46875 252.628906 236.289062 254.925781 238.125 C 251.636719 243.160156 247.660156 247.800781 244.976562 253.195312 C 248.9375 256.25 253 259.019531 257.070312 262.035156 C 255.28125 264.492188 253.59375 266.8125 251.835938 269.226562 C 247.621094 266.558594 244.125 263.703125 240.042969 260.847656 C 237.933594 263.628906 236.421875 266.632812 234.492188 269.238281 C 231.808594 268.585938 229.597656 266.046875 226.871094 264.5625 Z M 226.871094 264.5625 " fill-opacity="1" fill-rule="nonzero"/><path fill="#2d4542" d="M 62.941406 197.667969 C 58.972656 203.144531 55.46875 208.257812 51.460938 213.671875 C 49.066406 211.800781 46.65625 210.222656 44.273438 208.355469 C 47.808594 203.191406 51.460938 198.304688 54.972656 193.199219 C 49.761719 190.070312 43.960938 187.8125 39.796875 183.28125 C 40.765625 181.738281 43.835938 178.136719 45.4375 176.664062 C 50.039062 180.273438 55.058594 183.058594 60.316406 185.734375 C 63.25 181.726562 65.757812 177.542969 68.984375 173.832031 C 70.949219 174.949219 74.871094 178.101562 75.925781 179.398438 C 73.320312 182.875 70.785156 186.441406 68.320312 190.175781 C 70.976562 192.011719 73.867188 193.25 76.339844 194.941406 C 75.761719 197.648438 73.378906 200.007812 72.074219 202.707031 C 68.960938 201.164062 66.140625 199.363281 62.941406 197.667969 Z M 62.941406 197.667969 " fill-opacity="1" fill-rule="nonzero"/><path fill="#2d4542" d="M 296.304688 62.5625 C 293.253906 62.5625 290.507812 62.5625 287.929688 62.5625 C 286.3125 49.144531 289.457031 34.777344 286.632812 21.203125 C 288.453125 20.492188 293.476562 19.550781 295.308594 19.589844 C 298.308594 33.625 296.285156 48.3125 296.304688 62.5625 Z M 296.304688 62.5625 " fill-opacity="1" fill-rule="nonzero"/><path fill="#2d4542" d="M 269.128906 60.726562 C 265.910156 60.96875 263.503906 61.148438 260.34375 61.296875 C 259.066406 47.671875 258.492188 34.214844 257.441406 20.75 C 260.433594 19.949219 263.148438 20.019531 266.253906 19.882812 C 267.558594 33.46875 268.34375 47.089844 269.128906 60.726562 Z M 269.128906 60.726562 " fill-opacity="1" fill-rule="nonzero"/><path fill="#2d4542" d="M 268.980469 23.4375 C 272.003906 23.015625 274.800781 22.695312 277.464844 22.519531 C 279.878906 34.652344 279.789062 48.046875 279.972656 60.496094 C 278.601562 60.757812 272.820312 60.898438 271.25 60.683594 C 270.664062 48.171875 270.421875 35.988281 268.980469 23.4375 Z M 268.980469 23.4375 " fill-opacity="1" fill-rule="nonzero"/><path fill="#2d4542" d="M 295.242188 84.382812 C 292.195312 84.042969 289.472656 83.734375 286.621094 83.414062 C 286.460938 80.570312 286.703125 77.484375 287.386719 74.742188 C 290.191406 74.621094 293.121094 74.949219 295.964844 75.347656 C 296.152344 78.390625 295.59375 81.289062 295.242188 84.382812 Z M 295.242188 84.382812 " fill-opacity="1" fill-rule="nonzero"/><path fill="#2d4542" d="M 280.683594 79.953125 C 277.902344 79.765625 275.097656 79.578125 272.285156 79.390625 C 271.714844 77.234375 272.359375 75.273438 272.292969 73.066406 C 275.210938 72.476562 278.066406 73.140625 280.953125 73.152344 C 281.34375 75.148438 281.226562 78.085938 280.683594 79.953125 Z M 280.683594 79.953125 " fill-opacity="1" fill-rule="nonzero"/><path fill="#2d4542" d="M 259.996094 78.695312 C 259.929688 77.648438 259.878906 76.855469 259.820312 75.914062 C 262.773438 75.484375 265.59375 75.488281 268.382812 75.347656 C 268.96875 76.632812 268.96875 76.632812 268.691406 78.164062 C 265.894531 78.332031 263.082031 78.503906 259.996094 78.695312 Z M 259.996094 78.695312 " fill-opacity="1" fill-rule="nonzero"/><g clip-path="url(#439aaaac73)"><path fill="#2d4542" d="M 205.738281 162.867188 C 205.738281 163.265625 205.664062 163.648438 205.511719 164.015625 C 205.359375 164.382812 205.140625 164.710938 204.859375 164.992188 C 204.578125 165.273438 204.253906 165.488281 203.886719 165.640625 C 203.519531 165.792969 203.136719 165.867188 202.738281 165.867188 C 202.339844 165.867188 201.957031 165.792969 201.589844 165.640625 C 201.222656 165.488281 200.898438 165.273438 200.617188 164.992188 C 200.335938 164.710938 200.117188 164.382812 199.964844 164.015625 C 199.8125 163.648438 199.738281 163.265625 199.738281 162.867188 C 199.738281 162.472656 199.8125 162.089844 199.964844 161.71875 C 200.117188 161.351562 200.335938 161.027344 200.617188 160.746094 C 200.898438 160.464844 201.222656 160.25 201.589844 160.097656 C 201.957031 159.945312 202.339844 159.867188 202.738281 159.867188 C 203.136719 159.867188 203.519531 159.945312 203.886719 160.097656 C 204.253906 160.25 204.578125 160.464844 204.859375 160.746094 C 205.140625 161.027344 205.359375 161.351562 205.511719 161.71875 C 205.664062 162.089844 205.738281 162.472656 205.738281 162.867188 Z M 205.738281 162.867188 " fill-opacity="1" fill-rule="nonzero"/></g></svg>